<svg xmlns="http://www.w3.org/2000/svg" viewBox="0 0 896 300" width="896" height="300" role="img" aria-label="Cinematic comet contribution orbit"><rect x="0.00" y="0.00" width="896.00" height="300.00" fill="#010209" /><defs><linearGradient id="tail-grad" x1="0" y1="0" x2="1" y2="0"><stop offset="0%" stop-color="#c8e0ff" stop-opacity="0"/><stop offset="40%" stop-color="#c8e0ff" stop-opacity="0.1"/><stop offset="70%" stop-color="#d8ecff" stop-opacity="0.5"/><stop offset="90%" stop-color="#ffffff" stop-opacity="0.85"/><stop offset="100%" stop-color="#ffffff" stop-opacity="0"/></linearGradient><filter id="tail-blur" x="-20%" y="-100%" width="140%" height="300%"><feGaussianBlur stdDeviation="1.2"/></filter><filter id="organic-sphere" x="-80%" y="-80%" width="260%" height="260%"><feTurbulence type="fractalNoise" baseFrequency="0.035" numOctaves="2" seed="7" result="noise" /><feDisplacementMap in="SourceGraphic" in2="noise" scale="4" xChannelSelector="R" yChannelSelector="G" result="displaced" /><feGaussianBlur in="displaced" stdDeviation="1.4" /></filter><radialGradient id="sun-glow"><stop offset="0" stop-color="#ffe9a8" stop-opacity="0.55"/><stop offset="0.45" stop-color="#ffb74a" stop-opacity="0.14"/><stop offset="1" stop-color="#ffb74a" stop-opacity="0"/></radialGradient></defs><circle cx="813.55" cy="49.10" r="0.86" fill="hsl(130,22%,80%)" opacity="0.15" /><circle cx="101.82" cy="67.54" r="0.43" fill="hsl(0,0%,100%)" opacity="0.15" /><circle cx="773.96" cy="44.72" r="0.89" fill="hsl(15,35%,80%)" opacity="0.15" /><circle cx="798.75" cy="222.31" r="0.42" fill="hsl(0,0%,100%)" opacity="0.15" /><circle cx="715.31" cy="284.87" r="0.84" fill="hsl(200,45%,88%)" opacity="0.15" /><circle cx="633.49" cy="58.11" r="0.74" fill="hsl(268,32%,82%)" opacity="0.15" /><circle cx="26.64" cy="10.59" r="0.94" fill="hsl(0,0%,100%)" opacity="0.15" /><circle cx="300.69" cy="69.11" r="0.77" fill="hsl(130,22%,80%)" opacity="0.15" /><circle cx="689.86" cy="109.42" r="0.53" fill="hsl(130,22%,80%)" opacity="0.15" /><circle cx="650.30" cy="226.24" r="0.68" fill="hsl(130,22%,80%)" opacity="0.15" /><circle cx="292.17" cy="55.95" r="0.58" fill="hsl(15,35%,80%)" opacity="0.15" /><circle cx="303.33" cy="89.64" r="0.48" fill="hsl(268,32%,82%)" opacity="0.15" /><circle cx="180.17" cy="170.71" r="0.72" fill="hsl(130,22%,80%)" opacity="0.15" /><circle cx="213.76" cy="64.54" r="0.35" fill="hsl(15,35%,80%)" opacity="0.15" /><circle cx="685.43" cy="248.06" r="0.93" fill="hsl(0,0%,100%)" opacity="0.15" /><circle cx="471.21" cy="90.80" r="0.39" fill="hsl(0,0%,100%)" opacity="0.15" /><circle cx="218.96" cy="77.66" r="0.48" fill="hsl(200,45%,88%)" opacity="0.15" /><circle cx="402.12" cy="278.74" r="0.59" fill="hsl(130,22%,80%)" opacity="0.15" /><circle cx="34.40" cy="112.10" r="0.71" fill="hsl(268,32%,82%)" opacity="0.15" /><circle cx="697.27" cy="107.07" r="0.31" fill="hsl(130,22%,80%)" opacity="0.15" /><circle cx="732.63" cy="137.03" r="0.50" fill="hsl(200,45%,88%)" opacity="0.15" /><circle cx="823.46" cy="120.66" r="0.78" fill="hsl(268,32%,82%)" opacity="0.15" /><circle cx="416.04" cy="53.93" r="0.53" fill="hsl(200,45%,88%)" opacity="0.15" /><circle cx="389.62" cy="295.90" r="0.39" fill="hsl(200,45%,88%)" opacity="0.15" /><circle cx="797.02" cy="232.24" r="0.95" fill="hsl(15,35%,80%)" opacity="0.15" /><circle cx="866.79" cy="24.30" r="0.58" fill="hsl(130,22%,80%)" opacity="0.15" /><circle cx="840.84" cy="44.01" r="0.53" fill="hsl(200,45%,88%)" opacity="0.15" /><circle cx="704.87" cy="29.59" r="0.71" fill="hsl(0,0%,100%)" opacity="0.15" /><circle cx="827.48" cy="262.78" r="1.10" fill="hsl(130,22%,80%)" opacity="0.15" /><circle cx="592.61" cy="221.66" r="0.40" fill="hsl(130,22%,80%)" opacity="0.15" /><circle cx="773.05" cy="181.86" r="1.08" fill="hsl(15,35%,80%)" opacity="0.15" /><circle cx="589.78" cy="250.05" r="0.58" fill="hsl(200,45%,88%)" opacity="0.15" /><circle cx="355.56" cy="135.52" r="1.01" fill="hsl(0,0%,100%)" opacity="0.15" /><circle cx="91.74" cy="49.99" r="0.76" fill="hsl(130,22%,80%)" opacity="0.15" /><circle cx="138.06" cy="244.06" r="0.71" fill="hsl(130,22%,80%)" opacity="0.15" /><circle cx="694.68" cy="67.81" r="1.15" fill="hsl(15,35%,80%)" opacity="0.15" /><circle cx="269.32" cy="240.73" r="0.60" fill="hsl(268,32%,82%)" opacity="0.15" /><circle cx="780.71" cy="278.41" r="1.12" fill="hsl(0,0%,100%)" opacity="0.15" /><circle cx="199.10" cy="243.85" r="0.85" fill="hsl(130,22%,80%)" opacity="0.15" /><circle cx="310.73" cy="180.46" r="1.18" fill="hsl(0,0%,100%)" opacity="0.15" /><circle cx="702.62" cy="283.74" r="0.80" fill="hsl(200,45%,88%)" opacity="0.15" /><circle cx="752.40" cy="211.22" r="1.00" fill="hsl(200,45%,88%)" opacity="0.15" /><circle cx="783.55" cy="43.54" r="0.73" fill="hsl(268,32%,82%)" opacity="0.15" /><circle cx="2.85" cy="93.83" r="0.51" fill="hsl(15,35%,80%)" opacity="0.15" /><circle cx="688.91" cy="124.22" r="1.02" fill="hsl(200,45%,88%)" opacity="0.15" /><circle cx="612.57" cy="147.90" r="0.51" fill="hsl(0,0%,100%)" opacity="0.15" /><circle cx="215.63" cy="182.32" r="0.31" fill="hsl(0,0%,100%)" opacity="0.15" /><circle cx="383.93" cy="270.39" r="0.38" fill="hsl(130,22%,80%)" opacity="0.15" /><circle cx="757.50" cy="36.88" r="0.58" fill="hsl(15,35%,80%)" opacity="0.15" /><circle cx="62.29" cy="84.11" r="0.33" fill="hsl(130,22%,80%)" opacity="0.15" /><circle cx="430.40" cy="242.04" r="1.06" fill="hsl(268,32%,82%)" opacity="0.15" /><circle cx="66.02" cy="217.95" r="0.82" fill="hsl(0,0%,100%)" opacity="0.15" /><circle cx="109.47" cy="122.41" r="0.43" fill="hsl(200,45%,88%)" opacity="0.15" /><circle cx="316.79" cy="103.60" r="0.32" fill="hsl(0,0%,100%)" opacity="0.15" /><circle cx="359.01" cy="233.11" r="0.43" fill="hsl(15,35%,80%)" opacity="0.15" /><circle cx="502.35" cy="92.45" r="0.48" fill="hsl(268,32%,82%)" opacity="0.15" /><circle cx="463.55" cy="195.89" r="0.93" fill="hsl(0,0%,100%)" opacity="0.15" /><circle cx="236.86" cy="40.77" r="0.94" fill="hsl(0,0%,100%)" opacity="0.15" /><circle cx="346.58" cy="222.43" r="0.85" fill="hsl(130,22%,80%)" opacity="0.15" /><circle cx="114.42" cy="35.70" r="1.11" fill="hsl(200,45%,88%)" opacity="0.15" /><circle cx="195.38" cy="189.49" r="0.43" fill="hsl(0,0%,100%)" opacity="0.15" /><circle cx="666.27" cy="135.88" r="0.37" fill="hsl(15,35%,80%)" opacity="0.15" /><circle cx="298.16" cy="219.07" r="1.15" fill="hsl(268,32%,82%)" opacity="0.15" /><circle cx="494.64" cy="14.01" r="0.81" fill="hsl(130,22%,80%)" opacity="0.15" /><circle cx="367.51" cy="121.13" r="1.19" fill="hsl(200,45%,88%)" opacity="0.15" /><circle cx="21.90" cy="267.71" r="0.71" fill="hsl(0,0%,100%)" opacity="0.15" /><circle cx="38.82" cy="206.65" r="0.97" fill="hsl(130,22%,80%)" opacity="0.15" /><circle cx="688.83" cy="135.88" r="0.60" fill="hsl(0,0%,100%)" opacity="0.15" /><circle cx="34.01" cy="102.23" r="0.80" fill="hsl(0,0%,100%)" opacity="0.15" /><circle cx="551.27" cy="178.68" r="0.63" fill="hsl(130,22%,80%)" opacity="0.15" /><circle cx="558.59" cy="174.46" r="1.15" fill="hsl(15,35%,80%)" opacity="0.15" /><circle cx="823.98" cy="65.73" r="0.96" fill="hsl(200,45%,88%)" opacity="0.15" /><circle cx="282.45" cy="268.88" r="0.50" fill="hsl(130,22%,80%)" opacity="0.15" /><circle cx="140.30" cy="215.73" r="1.05" fill="hsl(268,32%,82%)" opacity="0.15" /><circle cx="643.43" cy="79.71" r="0.47" fill="hsl(200,45%,88%)" opacity="0.15" /><circle cx="633.02" cy="194.53" r="1.15" fill="hsl(15,35%,80%)" opacity="0.15" /><circle cx="831.09" cy="10.24" r="1.05" fill="hsl(200,45%,88%)" opacity="0.15" /><circle cx="199.76" cy="86.93" r="0.41" fill="hsl(0,0%,100%)" opacity="0.15" /><circle cx="118.01" cy="57.00" r="0.82" fill="hsl(200,45%,88%)" opacity="0.15" /><circle cx="61.99" cy="137.38" r="0.71" fill="hsl(15,35%,80%)" opacity="0.15" /><circle cx="205.36" cy="222.63" r="1.14" fill="hsl(130,22%,80%)" opacity="0.15" /><circle cx="645.25" cy="58.26" r="1.15" fill="hsl(268,32%,82%)" opacity="0.15" /><circle cx="22.13" cy="92.75" r="0.54" fill="hsl(130,22%,80%)" opacity="0.15" /><circle cx="498.46" cy="39.37" r="1.19" fill="hsl(0,0%,100%)" opacity="0.15" /><circle cx="21.14" cy="233.85" r="1.10" fill="hsl(130,22%,80%)" opacity="0.15" /><circle cx="789.31" cy="157.95" r="0.97" fill="hsl(15,35%,80%)" opacity="0.15" /><circle cx="824.31" cy="170.92" r="0.62" fill="hsl(130,22%,80%)" opacity="0.15" /><circle cx="429.07" cy="106.13" r="1.05" fill="hsl(0,0%,100%)" opacity="0.15" /><circle cx="432.14" cy="207.54" r="0.47" fill="hsl(15,35%,80%)" opacity="0.15" /><circle cx="340.56" cy="122.45" r="0.84" fill="hsl(268,32%,82%)" opacity="0.15" /><circle cx="28.37" cy="28.90" r="1.12" fill="hsl(130,22%,80%)" opacity="0.15" /><circle cx="526.72" cy="142.78" r="0.53" fill="hsl(130,22%,80%)" opacity="0.15" /><circle cx="873.47" cy="124.07" r="0.69" fill="hsl(15,35%,80%)" opacity="0.15" /><circle cx="569.51" cy="282.84" r="1.09" fill="hsl(200,45%,88%)" opacity="0.15" /><circle cx="581.41" cy="195.20" r="1.02" fill="hsl(130,22%,80%)" opacity="0.15" /><circle cx="80.18" cy="121.57" r="0.67" fill="hsl(200,45%,88%)" opacity="0.15" /><circle cx="738.19" cy="152.25" r="0.91" fill="hsl(0,0%,100%)" opacity="0.15" /><circle cx="702.17" cy="125.55" r="0.38" fill="hsl(268,32%,82%)" opacity="0.15" /><circle cx="62.99" cy="137.63" r="0.95" fill="hsl(268,32%,82%)" opacity="0.15" /><circle cx="500.86" cy="248.00" r="0.31" fill="hsl(200,45%,88%)" opacity="0.15" /><circle cx="497.03" cy="79.20" r="0.70" fill="hsl(200,45%,88%)" opacity="0.15" /><circle cx="368.83" cy="26.08" r="0.77" fill="hsl(0,0%,100%)" opacity="0.15" /><circle cx="550.03" cy="292.45" r="0.78" fill="hsl(268,32%,82%)" opacity="0.15" /><circle cx="230.41" cy="108.93" r="0.37" fill="hsl(0,0%,100%)" opacity="0.15" /><circle cx="231.04" cy="3.17" r="0.53" fill="hsl(268,32%,82%)" opacity="0.15" /><circle cx="610.19" cy="296.96" r="0.55" fill="hsl(130,22%,80%)" opacity="0.15" /><circle cx="713.04" cy="273.73" r="0.41" fill="hsl(268,32%,82%)" opacity="0.15" /><circle cx="302.47" cy="25.16" r="1.08" fill="hsl(200,45%,88%)" opacity="0.15" /><circle cx="23.66" cy="68.11" r="0.76" fill="hsl(15,35%,80%)" opacity="0.15" /><circle cx="722.41" cy="152.79" r="1.09" fill="hsl(0,0%,100%)" opacity="0.15" /><circle cx="160.00" cy="152.00" r="44.00" fill="url(#sun-glow)" /><text x="160.00" y="157.00" font-family="monospace" font-size="17.00" fill="#fff3c4" text-anchor="middle" font-weight="bold">675</text><text x="160.00" y="169.00" font-family="monospace" font-size="7.00" fill="rgba(122,172,216,0.75)" text-anchor="middle">contributions</text><circle cx="160.00" cy="152.00" r="50.00" fill="none" stroke="#5d7ea8" stroke-width="0.40" opacity="0.18" /><circle cx="160.00" cy="152.00" r="84.50" fill="none" stroke="#5d7ea8" stroke-width="0.40" opacity="0.18" /><circle cx="160.00" cy="152.00" r="119.00" fill="none" stroke="#5d7ea8" stroke-width="0.40" opacity="0.18" /><line x1="171.57" y1="19.71" x2="172.08" y2="13.98" stroke="rgba(122,172,216,0.75)" stroke-width="0.60" /><line x1="186.71" y1="21.91" x2="187.87" y2="16.28" stroke="rgba(122,172,216,0.75)" stroke-width="0.60" /><text x="215.15" y="20.90" font-family="monospace" font-size="8.00" fill="rgba(122,172,216,0.75)" text-anchor="middle">Oct</text><line x1="241.79" y1="47.38" x2="245.34" y2="42.85" stroke="rgba(122,172,216,0.75)" stroke-width="0.60" /><text x="269.05" y="59.43" font-family="monospace" font-size="8.00" fill="rgba(122,172,216,0.75)" text-anchor="middle">Nov</text><line x1="285.59" y1="108.85" x2="291.03" y2="106.98" stroke="rgba(122,172,216,0.75)" stroke-width="0.60" /><text x="303.51" y="134.29" font-family="monospace" font-size="8.00" fill="rgba(122,172,216,0.75)" text-anchor="middle">Dec</text><line x1="291.68" y1="169.23" x2="297.38" y2="169.97" stroke="rgba(122,172,216,0.75)" stroke-width="0.60" /><text x="297.74" y="200.30" font-family="monospace" font-size="8.00" fill="rgba(122,172,216,0.75)" text-anchor="middle">Jan</text><line x1="261.02" y1="238.20" x2="265.40" y2="241.93" stroke="rgba(122,172,216,0.75)" stroke-width="0.60" /><text x="250.81" y="268.04" font-family="monospace" font-size="8.00" fill="rgba(122,172,216,0.75)" text-anchor="middle">Feb</text><line x1="212.13" y1="274.14" x2="214.39" y2="279.43" stroke="rgba(122,172,216,0.75)" stroke-width="0.60" /><text x="191.04" y="296.64" font-family="monospace" font-size="8.00" fill="rgba(122,172,216,0.75)" text-anchor="middle">Mar</text><line x1="152.35" y1="284.58" x2="152.02" y2="290.32" stroke="rgba(122,172,216,0.75)" stroke-width="0.60" /><text x="124.79" y="295.66" font-family="monospace" font-size="8.00" fill="rgba(122,172,216,0.75)" text-anchor="middle">Apr</text><line x1="94.17" y1="267.33" x2="91.32" y2="272.33" stroke="rgba(122,172,216,0.75)" stroke-width="0.60" /><text x="65.89" y="265.31" font-family="monospace" font-size="8.00" fill="rgba(122,172,216,0.75)" text-anchor="middle">May</text><line x1="41.95" y1="212.83" x2="36.84" y2="215.47" stroke="rgba(122,172,216,0.75)" stroke-width="0.60" /><text x="20.98" y="196.22" font-family="monospace" font-size="8.00" fill="rgba(122,172,216,0.75)" text-anchor="middle">Jun</text><line x1="27.21" y1="153.97" x2="21.47" y2="154.05" stroke="rgba(122,172,216,0.75)" stroke-width="0.60" /><text x="17.16" y="130.07" font-family="monospace" font-size="8.00" fill="rgba(122,172,216,0.75)" text-anchor="middle">Jul</text><line x1="40.20" y1="94.69" x2="35.02" y2="92.21" stroke="rgba(122,172,216,0.75)" stroke-width="0.60" /><text x="43.16" y="69.12" font-family="monospace" font-size="8.00" fill="rgba(122,172,216,0.75)" text-anchor="middle">Aug</text><line x1="90.78" y1="38.67" x2="87.78" y2="33.76" stroke="rgba(122,172,216,0.75)" stroke-width="0.60" /><text x="108.83" y="19.33" font-family="monospace" font-size="8.00" fill="rgba(122,172,216,0.75)" text-anchor="middle">Sep</text><circle cx="175.52" cy="45.63" r="2.01" fill="hsl(214.0,64%,59%)" opacity="0.77" /><circle cx="177.18" cy="34.25" r="2.16" fill="hsl(214.0,68%,65%)" opacity="0.82" /><circle cx="181.74" cy="70.34" r="2.47" fill="hsl(207.0,77%,81%)" opacity="0.94" /><circle cx="190.61" cy="37.00" r="2.41" fill="hsl(209.9,75%,77%)" opacity="0.91" /><circle cx="205.24" cy="67.33" r="2.01" fill="hsl(214.0,64%,59%)" opacity="0.77" /><circle cx="210.66" cy="57.18" r="1.68" fill="hsl(214.0,57%,49%)" opacity="0.69" /><circle cx="195.03" cy="101.45" r="1.68" fill="hsl(214.0,57%,49%)" opacity="0.69" /><circle cx="208.12" cy="82.54" r="1.89" fill="hsl(214.0,61%,55%)" opacity="0.73" /><circle cx="214.67" cy="73.09" r="1.89" fill="hsl(214.0,61%,55%)" opacity="0.73" /><circle cx="200.61" cy="105.81" r="1.68" fill="hsl(214.0,57%,49%)" opacity="0.69" /><circle cx="223.39" cy="79.90" r="1.68" fill="hsl(214.0,57%,49%)" opacity="0.69" /><circle cx="205.65" cy="110.79" r="1.68" fill="hsl(214.0,57%,49%)" opacity="0.69" /><circle cx="228.82" cy="102.96" r="1.89" fill="hsl(214.0,61%,55%)" opacity="0.73" /><circle cx="243.45" cy="138.70" r="2.01" fill="hsl(214.0,64%,59%)" opacity="0.77" /><circle cx="209.95" cy="149.86" r="2.41" fill="hsl(209.9,75%,77%)" opacity="0.91" /><circle cx="221.44" cy="149.37" r="1.89" fill="hsl(214.0,61%,55%)" opacity="0.73" /><circle cx="255.91" cy="147.89" r="2.33" fill="hsl(213.7,73%,73%)" opacity="0.88" /><circle cx="218.70" cy="170.35" r="2.38" fill="hsl(211.1,74%,76%)" opacity="0.91" /><circle cx="258.23" cy="195.66" r="1.89" fill="hsl(214.0,61%,55%)" opacity="0.73" /><circle cx="209.01" cy="189.16" r="2.16" fill="hsl(214.0,68%,65%)" opacity="0.82" /><circle cx="229.32" cy="218.41" r="2.01" fill="hsl(214.0,64%,59%)" opacity="0.77" /><circle cx="235.89" cy="243.66" r="2.01" fill="hsl(214.0,64%,59%)" opacity="0.77" /><circle cx="207.82" cy="248.28" r="2.36" fill="hsl(212.3,74%,75%)" opacity="0.89" /><circle cx="180.84" cy="209.86" r="2.43" fill="hsl(208.9,76%,78%)" opacity="0.92" /><circle cx="188.64" cy="231.50" r="2.60" fill="hsl(200.0,82%,88%)" opacity="1.00" /><circle cx="192.54" cy="242.32" r="2.49" fill="hsl(206.1,78%,81%)" opacity="0.95" /><circle cx="196.43" cy="253.14" r="1.89" fill="hsl(214.0,61%,55%)" opacity="0.73" /><circle cx="174.05" cy="211.87" r="2.57" fill="hsl(201.8,81%,86%)" opacity="0.98" /><circle cx="165.75" cy="201.67" r="1.68" fill="hsl(214.0,57%,49%)" opacity="0.69" /><circle cx="171.04" cy="247.36" r="2.56" fill="hsl(202.4,80%,85%)" opacity="0.98" /><circle cx="150.28" cy="235.94" r="1.68" fill="hsl(214.0,57%,49%)" opacity="0.69" /><circle cx="147.64" cy="258.79" r="1.68" fill="hsl(214.0,57%,49%)" opacity="0.69" /><circle cx="145.95" cy="211.87" r="2.01" fill="hsl(214.0,64%,59%)" opacity="0.77" /><circle cx="143.32" cy="223.07" r="2.01" fill="hsl(214.0,64%,59%)" opacity="0.77" /><circle cx="140.69" cy="234.26" r="1.68" fill="hsl(214.0,57%,49%)" opacity="0.69" /><circle cx="132.64" cy="207.08" r="2.53" fill="hsl(203.8,79%,84%)" opacity="0.97" /><circle cx="127.52" cy="217.38" r="2.26" fill="hsl(214.0,70%,70%)" opacity="0.86" /><circle cx="122.41" cy="227.68" r="1.68" fill="hsl(214.0,57%,49%)" opacity="0.69" /><circle cx="117.29" cy="237.98" r="1.68" fill="hsl(214.0,57%,49%)" opacity="0.69" /><circle cx="112.18" cy="248.28" r="2.45" fill="hsl(207.9,77%,80%)" opacity="0.93" /><circle cx="107.06" cy="258.58" r="1.68" fill="hsl(214.0,57%,49%)" opacity="0.69" /><circle cx="132.75" cy="193.92" r="1.89" fill="hsl(214.0,61%,55%)" opacity="0.73" /><circle cx="113.95" cy="222.85" r="2.21" fill="hsl(214.0,69%,68%)" opacity="0.84" /><circle cx="107.69" cy="232.50" r="1.68" fill="hsl(214.0,57%,49%)" opacity="0.69" /><circle cx="110.99" cy="189.16" r="2.26" fill="hsl(214.0,70%,70%)" opacity="0.86" /><circle cx="92.67" cy="203.05" r="2.36" fill="hsl(212.3,74%,75%)" opacity="0.89" /><circle cx="83.50" cy="210.00" r="1.68" fill="hsl(214.0,57%,49%)" opacity="0.69" /><circle cx="65.18" cy="223.90" r="1.68" fill="hsl(214.0,57%,49%)" opacity="0.69" /><circle cx="116.95" cy="177.43" r="1.68" fill="hsl(214.0,57%,49%)" opacity="0.69" /><circle cx="107.05" cy="183.27" r="2.09" fill="hsl(214.0,66%,63%)" opacity="0.80" /><circle cx="87.24" cy="194.97" r="1.68" fill="hsl(214.0,57%,49%)" opacity="0.69" /><circle cx="77.34" cy="200.82" r="1.89" fill="hsl(214.0,61%,55%)" opacity="0.73" /><circle cx="82.78" cy="186.32" r="1.89" fill="hsl(214.0,61%,55%)" opacity="0.73" /><circle cx="101.30" cy="170.35" r="1.68" fill="hsl(214.0,57%,49%)" opacity="0.69" /><circle cx="90.32" cy="173.78" r="1.68" fill="hsl(214.0,57%,49%)" opacity="0.69" /><circle cx="68.37" cy="180.64" r="2.09" fill="hsl(214.0,66%,63%)" opacity="0.80" /><circle cx="57.40" cy="184.07" r="1.89" fill="hsl(214.0,61%,55%)" opacity="0.73" /><circle cx="46.42" cy="187.50" r="2.16" fill="hsl(214.0,68%,65%)" opacity="0.82" /><circle cx="99.58" cy="163.48" r="1.68" fill="hsl(214.0,57%,49%)" opacity="0.69" /><circle cx="88.28" cy="165.62" r="1.89" fill="hsl(214.0,61%,55%)" opacity="0.73" /><circle cx="76.98" cy="167.77" r="2.36" fill="hsl(212.3,74%,75%)" opacity="0.89" /><circle cx="65.69" cy="169.91" r="2.01" fill="hsl(214.0,64%,59%)" opacity="0.77" /><circle cx="43.09" cy="174.21" r="2.45" fill="hsl(207.9,77%,80%)" opacity="0.93" /><circle cx="87.19" cy="157.28" r="2.01" fill="hsl(214.0,64%,59%)" opacity="0.77" /><circle cx="75.72" cy="158.12" r="1.68" fill="hsl(214.0,57%,49%)" opacity="0.69" /><circle cx="64.25" cy="158.95" r="1.68" fill="hsl(214.0,57%,49%)" opacity="0.69" /><circle cx="52.78" cy="159.78" r="1.68" fill="hsl(214.0,57%,49%)" opacity="0.69" /><circle cx="110.05" cy="149.86" r="2.01" fill="hsl(214.0,64%,59%)" opacity="0.77" /><circle cx="98.56" cy="149.37" r="1.68" fill="hsl(214.0,57%,49%)" opacity="0.69" /><circle cx="75.58" cy="148.38" r="2.09" fill="hsl(214.0,66%,63%)" opacity="0.80" /><circle cx="52.60" cy="147.40" r="2.01" fill="hsl(214.0,64%,59%)" opacity="0.77" /><circle cx="110.62" cy="144.13" r="2.01" fill="hsl(214.0,64%,59%)" opacity="0.77" /><circle cx="99.27" cy="142.32" r="2.30" fill="hsl(214.0,72%,72%)" opacity="0.87" /><circle cx="87.91" cy="140.51" r="2.09" fill="hsl(214.0,66%,63%)" opacity="0.80" /><circle cx="76.55" cy="138.70" r="2.01" fill="hsl(214.0,64%,59%)" opacity="0.77" /><circle cx="65.20" cy="136.89" r="2.01" fill="hsl(214.0,64%,59%)" opacity="0.77" /><circle cx="42.48" cy="133.27" r="1.89" fill="hsl(214.0,61%,55%)" opacity="0.73" /><circle cx="111.86" cy="138.50" r="1.68" fill="hsl(214.0,57%,49%)" opacity="0.69" /><circle cx="100.78" cy="135.40" r="2.09" fill="hsl(214.0,66%,63%)" opacity="0.80" /><circle cx="67.56" cy="126.09" r="2.09" fill="hsl(214.0,66%,63%)" opacity="0.80" /><circle cx="113.73" cy="133.06" r="2.57" fill="hsl(201.8,81%,86%)" opacity="0.98" /><circle cx="103.09" cy="128.70" r="2.21" fill="hsl(214.0,69%,68%)" opacity="0.84" /><circle cx="92.44" cy="124.34" r="1.68" fill="hsl(214.0,57%,49%)" opacity="0.69" /><circle cx="81.80" cy="119.98" r="1.68" fill="hsl(214.0,57%,49%)" opacity="0.69" /><circle cx="60.51" cy="111.27" r="2.36" fill="hsl(212.3,74%,75%)" opacity="0.89" /><circle cx="106.14" cy="122.31" r="1.68" fill="hsl(214.0,57%,49%)" opacity="0.69" /><circle cx="86.00" cy="111.20" r="1.89" fill="hsl(214.0,61%,55%)" opacity="0.73" /><circle cx="65.86" cy="100.10" r="1.68" fill="hsl(214.0,57%,49%)" opacity="0.69" /><circle cx="119.28" cy="122.98" r="1.68" fill="hsl(214.0,57%,49%)" opacity="0.69" /><circle cx="109.91" cy="116.31" r="1.89" fill="hsl(214.0,61%,55%)" opacity="0.73" /><circle cx="100.55" cy="109.64" r="1.89" fill="hsl(214.0,61%,55%)" opacity="0.73" /><circle cx="81.82" cy="96.29" r="1.68" fill="hsl(214.0,57%,49%)" opacity="0.69" /><circle cx="72.45" cy="89.62" r="1.68" fill="hsl(214.0,57%,49%)" opacity="0.69" /><circle cx="114.35" cy="110.79" r="1.68" fill="hsl(214.0,57%,49%)" opacity="0.69" /><circle cx="71.67" cy="72.26" r="2.01" fill="hsl(214.0,64%,59%)" opacity="0.77" /><circle cx="111.80" cy="97.18" r="2.09" fill="hsl(214.0,66%,63%)" opacity="0.80" /><circle cx="96.61" cy="79.90" r="2.16" fill="hsl(214.0,68%,65%)" opacity="0.82" /><circle cx="89.02" cy="71.26" r="2.09" fill="hsl(214.0,66%,63%)" opacity="0.80" /><g transform="rotate(18.9 184.69 59.23)"><circle cx="184.69" cy="59.23" r="5.90" fill="hsla(48,100%,74%,0.35)" fill-opacity="0.35" /><circle cx="184.69" cy="59.23" r="3.54" fill="hsla(50,100%,99%,0.75)" filter="url(#organic-sphere)" /><line x1="181.83" y1="56.37" x2="187.56" y2="62.09" stroke="hsl(48,100%,92%)" stroke-width="0.40" stroke-opacity="0.42" stroke-linecap="round" /><line x1="181.83" y1="62.09" x2="187.56" y2="56.37" stroke="hsl(48,100%,92%)" stroke-width="0.40" stroke-opacity="0.42" stroke-linecap="round" /><line x1="175.69" y1="59.23" x2="193.69" y2="59.23" stroke="hsl(48,100%,92%)" stroke-width="0.50" stroke-linecap="round" /><line x1="184.69" y1="50.23" x2="184.69" y2="68.23" stroke="hsl(48,100%,92%)" stroke-width="0.50" stroke-linecap="round" /><circle cx="184.69" cy="59.23" r="1.38" fill="hsl(48,100%,92%)" /></g><g transform="rotate(10.8 187.65 48.12)"><circle cx="187.65" cy="48.12" r="5.90" fill="hsla(48,100%,74%,0.35)" fill-opacity="0.35" /><circle cx="187.65" cy="48.12" r="3.54" fill="hsla(50,100%,99%,0.75)" filter="url(#organic-sphere)" /><line x1="184.79" y1="45.25" x2="190.52" y2="50.98" stroke="hsl(48,100%,92%)" stroke-width="0.40" stroke-opacity="0.42" stroke-linecap="round" /><line x1="184.79" y1="50.98" x2="190.52" y2="45.25" stroke="hsl(48,100%,92%)" stroke-width="0.40" stroke-opacity="0.42" stroke-linecap="round" /><line x1="178.65" y1="48.12" x2="196.65" y2="48.12" stroke="hsl(48,100%,92%)" stroke-width="0.50" stroke-linecap="round" /><line x1="187.65" y1="39.12" x2="187.65" y2="57.12" stroke="hsl(48,100%,92%)" stroke-width="0.50" stroke-linecap="round" /><circle cx="187.65" cy="48.12" r="1.38" fill="hsl(48,100%,92%)" /></g><g transform="rotate(-37.7 182.55 94.78)"><circle cx="182.55" cy="94.78" r="5.90" fill="hsla(48,100%,74%,0.35)" fill-opacity="0.35" /><circle cx="182.55" cy="94.78" r="3.54" fill="hsla(50,100%,99%,0.75)" filter="url(#organic-sphere)" /><line x1="179.69" y1="91.92" x2="185.41" y2="97.65" stroke="hsl(48,100%,92%)" stroke-width="0.40" stroke-opacity="0.42" stroke-linecap="round" /><line x1="179.69" y1="97.65" x2="185.41" y2="91.92" stroke="hsl(48,100%,92%)" stroke-width="0.40" stroke-opacity="0.42" stroke-linecap="round" /><line x1="173.55" y1="94.78" x2="191.55" y2="94.78" stroke="hsl(48,100%,92%)" stroke-width="0.50" stroke-linecap="round" /><line x1="182.55" y1="85.78" x2="182.55" y2="103.78" stroke="hsl(48,100%,92%)" stroke-width="0.50" stroke-linecap="round" /><circle cx="182.55" cy="94.78" r="1.38" fill="hsl(48,100%,92%)" /></g><g transform="rotate(-10.5 274.58 119.88)"><circle cx="274.58" cy="119.88" r="5.90" fill="hsla(48,100%,74%,0.35)" fill-opacity="0.35" /><circle cx="274.58" cy="119.88" r="3.54" fill="hsla(50,100%,99%,0.75)" filter="url(#organic-sphere)" /><line x1="271.72" y1="117.01" x2="277.45" y2="122.74" stroke="hsl(48,100%,92%)" stroke-width="0.40" stroke-opacity="0.42" stroke-linecap="round" /><line x1="271.72" y1="122.74" x2="277.45" y2="117.01" stroke="hsl(48,100%,92%)" stroke-width="0.40" stroke-opacity="0.42" stroke-linecap="round" /><line x1="265.58" y1="119.88" x2="283.58" y2="119.88" stroke="hsl(48,100%,92%)" stroke-width="0.50" stroke-linecap="round" /><line x1="274.58" y1="110.88" x2="274.58" y2="128.88" stroke="hsl(48,100%,92%)" stroke-width="0.50" stroke-linecap="round" /><circle cx="274.58" cy="119.88" r="1.38" fill="hsl(48,100%,92%)" /></g><g transform="rotate(5.8 277.52 133.27)"><circle cx="277.52" cy="133.27" r="5.90" fill="hsla(48,100%,74%,0.35)" fill-opacity="0.35" /><circle cx="277.52" cy="133.27" r="3.54" fill="hsla(50,100%,99%,0.75)" filter="url(#organic-sphere)" /><line x1="274.65" y1="130.40" x2="280.38" y2="136.13" stroke="hsl(48,100%,92%)" stroke-width="0.40" stroke-opacity="0.42" stroke-linecap="round" /><line x1="274.65" y1="136.13" x2="280.38" y2="130.40" stroke="hsl(48,100%,92%)" stroke-width="0.40" stroke-opacity="0.42" stroke-linecap="round" /><line x1="268.52" y1="133.27" x2="286.52" y2="133.27" stroke="hsl(48,100%,92%)" stroke-width="0.50" stroke-linecap="round" /><line x1="277.52" y1="124.27" x2="277.52" y2="142.27" stroke="hsl(48,100%,92%)" stroke-width="0.50" stroke-linecap="round" /><circle cx="277.52" cy="133.27" r="1.38" fill="hsl(48,100%,92%)" /></g><g transform="rotate(-23.8 187.25 193.92)"><circle cx="187.25" cy="193.92" r="5.90" fill="hsla(48,100%,74%,0.35)" fill-opacity="0.35" /><circle cx="187.25" cy="193.92" r="3.54" fill="hsla(50,100%,99%,0.75)" filter="url(#organic-sphere)" /><line x1="184.38" y1="191.06" x2="190.11" y2="196.79" stroke="hsl(48,100%,92%)" stroke-width="0.40" stroke-opacity="0.42" stroke-linecap="round" /><line x1="184.38" y1="196.79" x2="190.11" y2="191.06" stroke="hsl(48,100%,92%)" stroke-width="0.40" stroke-opacity="0.42" stroke-linecap="round" /><line x1="178.25" y1="193.92" x2="196.25" y2="193.92" stroke="hsl(48,100%,92%)" stroke-width="0.50" stroke-linecap="round" /><line x1="187.25" y1="184.92" x2="187.25" y2="202.92" stroke="hsl(48,100%,92%)" stroke-width="0.50" stroke-linecap="round" /><circle cx="187.25" cy="193.92" r="1.38" fill="hsl(48,100%,92%)" /></g><g transform="rotate(-7.9 193.51 203.57)"><circle cx="193.51" cy="203.57" r="5.90" fill="hsla(48,100%,74%,0.35)" fill-opacity="0.35" /><circle cx="193.51" cy="203.57" r="3.54" fill="hsla(50,100%,99%,0.75)" filter="url(#organic-sphere)" /><line x1="190.65" y1="200.70" x2="196.38" y2="206.43" stroke="hsl(48,100%,92%)" stroke-width="0.40" stroke-opacity="0.42" stroke-linecap="round" /><line x1="190.65" y1="206.43" x2="196.38" y2="200.70" stroke="hsl(48,100%,92%)" stroke-width="0.40" stroke-opacity="0.42" stroke-linecap="round" /><line x1="184.51" y1="203.57" x2="202.51" y2="203.57" stroke="hsl(48,100%,92%)" stroke-width="0.50" stroke-linecap="round" /><line x1="193.51" y1="194.57" x2="193.51" y2="212.57" stroke="hsl(48,100%,92%)" stroke-width="0.50" stroke-linecap="round" /><circle cx="193.51" cy="203.57" r="1.38" fill="hsl(48,100%,92%)" /></g><text x="340.00" y="40.00" font-family="monospace" font-size="18.00" fill="#e8f3ff" letter-spacing="6.00">STAKS-SOR</text><text x="340.00" y="56.00" font-family="monospace" font-size="9.00" fill="rgba(122,172,216,0.75)">21 Sep 2025 → 21 Sep 2026</text><text x="340.00" y="104.00" font-family="monospace" font-size="26.00" fill="#dff1ff">105</text><text x="340.00" y="119.00" font-family="monospace" font-size="8.00" fill="rgba(122,172,216,0.75)" letter-spacing="1.50">ACTIVE DAYS</text><text x="590.00" y="104.00" font-family="monospace" font-size="26.00" fill="#dff1ff">7d</text><text x="590.00" y="119.00" font-family="monospace" font-size="8.00" fill="rgba(122,172,216,0.75)" letter-spacing="1.50">LONGEST STREAK</text><text x="340.00" y="162.00" font-family="monospace" font-size="26.00" fill="#dff1ff">36</text><text x="340.00" y="177.00" font-family="monospace" font-size="8.00" fill="rgba(122,172,216,0.75)" letter-spacing="1.50">BEST DAY · 6 OCT</text><text x="590.00" y="162.00" font-family="monospace" font-size="26.00" fill="#dff1ff">Mon</text><text x="590.00" y="177.00" font-family="monospace" font-size="8.00" fill="rgba(122,172,216,0.75)" letter-spacing="1.50">BUSIEST WEEKDAY</text><text x="340.00" y="208.00" font-family="monospace" font-size="8.00" fill="rgba(122,172,216,0.75)" letter-spacing="1.50">WEEKLY VOLUME</text><rect x="340.00" y="247.16" width="8.04" height="14.84" rx="1.00" fill="rgb(22,72,128)" /><rect x="350.04" y="216.00" width="8.04" height="46.00" rx="1.00" fill="rgb(240,251,255)" /><rect x="360.08" y="232.77" width="8.04" height="29.23" rx="1.00" fill="rgb(66,166,208)" /><rect x="370.11" y="250.92" width="8.04" height="11.08" rx="1.00" fill="rgb(19,56,106)" /><rect x="380.15" y="249.85" width="8.04" height="12.15" rx="1.00" fill="rgb(19,59,111)" /><rect x="390.19" y="253.58" width="8.04" height="8.42" rx="1.00" fill="rgb(17,47,91)" /><rect x="400.23" y="255.46" width="8.04" height="6.54" rx="1.00" fill="rgb(16,41,81)" /><rect x="410.26" y="253.58" width="8.04" height="8.42" rx="1.00" fill="rgb(17,47,91)" /><rect x="420.30" y="260.00" width="8.04" height="2.00" rx="1.00" fill="#0e182b" /><rect x="430.34" y="260.00" width="8.04" height="2.00" rx="1.00" fill="#0e182b" /><rect x="440.38" y="236.42" width="8.04" height="25.58" rx="1.00" fill="rgb(43,137,193)" /><rect x="450.42" y="235.99" width="8.04" height="26.01" rx="1.00" fill="rgb(46,140,194)" /><rect x="460.45" y="238.24" width="8.04" height="23.76" rx="1.00" fill="rgb(33,123,185)" /><rect x="470.49" y="260.00" width="8.04" height="2.00" rx="1.00" fill="#0e182b" /><rect x="480.53" y="260.00" width="8.04" height="2.00" rx="1.00" fill="#0e182b" /><rect x="490.57" y="244.95" width="8.04" height="17.05" rx="1.00" fill="rgb(25,85,142)" /><rect x="500.60" y="253.58" width="8.04" height="8.42" rx="1.00" fill="rgb(17,47,91)" /><rect x="510.64" y="260.00" width="8.04" height="2.00" rx="1.00" fill="#0e182b" /><rect x="520.68" y="249.85" width="8.04" height="12.15" rx="1.00" fill="rgb(19,59,111)" /><rect x="530.72" y="252.14" width="8.04" height="9.86" rx="1.00" fill="rgb(18,52,99)" /><rect x="540.75" y="252.14" width="8.04" height="9.86" rx="1.00" fill="rgb(18,52,99)" /><rect x="550.79" y="224.56" width="8.04" height="37.44" rx="1.00" fill="rgb(133,221,237)" /><rect x="560.83" y="245.65" width="8.04" height="16.35" rx="1.00" fill="rgb(24,81,137)" /><rect x="570.87" y="226.04" width="8.04" height="35.96" rx="1.00" fill="rgb(114,215,234)" /><rect x="580.91" y="238.71" width="8.04" height="23.29" rx="1.00" fill="rgb(32,120,181)" /><rect x="590.94" y="238.71" width="8.04" height="23.29" rx="1.00" fill="rgb(32,120,181)" /><rect x="600.98" y="260.00" width="8.04" height="2.00" rx="1.00" fill="#0e182b" /><rect x="611.02" y="253.58" width="8.04" height="8.42" rx="1.00" fill="rgb(17,47,91)" /><rect x="621.06" y="247.99" width="8.04" height="14.01" rx="1.00" fill="rgb(21,68,122)" /><rect x="631.09" y="260.00" width="8.04" height="2.00" rx="1.00" fill="#0e182b" /><rect x="641.13" y="230.24" width="8.04" height="31.76" rx="1.00" fill="rgb(82,186,218)" /><rect x="651.17" y="246.39" width="8.04" height="15.61" rx="1.00" fill="rgb(23,77,133)" /><rect x="661.21" y="260.00" width="8.04" height="2.00" rx="1.00" fill="#0e182b" /><rect x="671.25" y="260.00" width="8.04" height="2.00" rx="1.00" fill="#0e182b" /><rect x="681.28" y="240.22" width="8.04" height="21.78" rx="1.00" fill="rgb(30,111,172)" /><rect x="691.32" y="247.16" width="8.04" height="14.84" rx="1.00" fill="rgb(22,72,128)" /><rect x="701.36" y="253.58" width="8.04" height="8.42" rx="1.00" fill="rgb(17,47,91)" /><rect x="711.40" y="243.64" width="8.04" height="18.36" rx="1.00" fill="rgb(26,92,150)" /><rect x="721.43" y="235.14" width="8.04" height="26.86" rx="1.00" fill="rgb(51,147,198)" /><rect x="731.47" y="248.88" width="8.04" height="13.12" rx="1.00" fill="rgb(20,63,117)" /><rect x="741.51" y="244.95" width="8.04" height="17.05" rx="1.00" fill="rgb(25,85,142)" /><rect x="751.55" y="238.24" width="8.04" height="23.76" rx="1.00" fill="rgb(33,123,185)" /><rect x="761.58" y="246.39" width="8.04" height="15.61" rx="1.00" fill="rgb(23,77,133)" /><rect x="771.62" y="231.30" width="8.04" height="30.70" rx="1.00" fill="rgb(75,178,214)" /><rect x="781.66" y="250.92" width="8.04" height="11.08" rx="1.00" fill="rgb(19,56,106)" /><rect x="791.70" y="247.99" width="8.04" height="14.01" rx="1.00" fill="rgb(21,68,122)" /><rect x="801.74" y="250.92" width="8.04" height="11.08" rx="1.00" fill="rgb(19,56,106)" /><rect x="811.77" y="243.64" width="8.04" height="18.36" rx="1.00" fill="rgb(26,92,150)" /><rect x="821.81" y="260.00" width="8.04" height="2.00" rx="1.00" fill="#0e182b" /><rect x="831.85" y="260.00" width="8.04" height="2.00" rx="1.00" fill="#0e182b" /><rect x="841.89" y="260.00" width="8.04" height="2.00" rx="1.00" fill="#0e182b" /><rect x="851.92" y="260.00" width="8.04" height="2.00" rx="1.00" fill="#0e182b" /><rect x="861.96" y="260.00" width="8.04" height="2.00" rx="1.00" fill="#0e182b" /><text x="350.04" y="275.00" font-family="monospace" font-size="8.00" fill="rgba(122,172,216,0.75)">Oct</text><text x="390.19" y="275.00" font-family="monospace" font-size="8.00" fill="rgba(122,172,216,0.75)">Nov</text><text x="440.38" y="275.00" font-family="monospace" font-size="8.00" fill="rgba(122,172,216,0.75)">Dec</text><text x="480.53" y="275.00" font-family="monospace" font-size="8.00" fill="rgba(122,172,216,0.75)">Jan</text><text x="530.72" y="275.00" font-family="monospace" font-size="8.00" fill="rgba(122,172,216,0.75)">Feb</text><text x="570.87" y="275.00" font-family="monospace" font-size="8.00" fill="rgba(122,172,216,0.75)">Mar</text><text x="611.02" y="275.00" font-family="monospace" font-size="8.00" fill="rgba(122,172,216,0.75)">Apr</text><text x="651.17" y="275.00" font-family="monospace" font-size="8.00" fill="rgba(122,172,216,0.75)">May</text><text x="701.36" y="275.00" font-family="monospace" font-size="8.00" fill="rgba(122,172,216,0.75)">Jun</text><text x="741.51" y="275.00" font-family="monospace" font-size="8.00" fill="rgba(122,172,216,0.75)">Jul</text><text x="781.66" y="275.00" font-family="monospace" font-size="8.00" fill="rgba(122,172,216,0.75)">Aug</text><text x="831.85" y="275.00" font-family="monospace" font-size="8.00" fill="rgba(122,172,216,0.75)">Sep</text></svg>