<svg xmlns="http://www.w3.org/2000/svg" viewBox="0 0 896 150" width="896" height="150" role="img" aria-label="Cinematic comet contribution graph"><rect x="0.00" y="0.00" width="896.00" height="150.00" fill="#010209" /><defs><linearGradient id="tail-grad" x1="0" y1="0" x2="1" y2="0"><stop offset="0%" stop-color="#c8e0ff" stop-opacity="0"/><stop offset="40%" stop-color="#c8e0ff" stop-opacity="0.1"/><stop offset="70%" stop-color="#d8ecff" stop-opacity="0.5"/><stop offset="90%" stop-color="#ffffff" stop-opacity="0.85"/><stop offset="100%" stop-color="#ffffff" stop-opacity="0"/></linearGradient><filter id="tail-blur" x="-20%" y="-100%" width="140%" height="300%"><feGaussianBlur stdDeviation="1.2"/></filter><filter id="organic-sphere" x="-80%" y="-80%" width="260%" height="260%"><feTurbulence type="fractalNoise" baseFrequency="0.035" numOctaves="2" seed="7" result="noise" /><feDisplacementMap in="SourceGraphic" in2="noise" scale="4" xChannelSelector="R" yChannelSelector="G" result="displaced" /><feGaussianBlur in="displaced" stdDeviation="1.4" /></filter></defs><text x="22.00" y="55.00" font-family="monospace" font-size="10.00" fill="rgba(122,172,216,0.75)" text-anchor="end">Mon</text><text x="22.00" y="87.00" font-family="monospace" font-size="10.00" fill="rgba(122,172,216,0.75)" text-anchor="end">Wed</text><text x="22.00" y="119.00" font-family="monospace" font-size="10.00" fill="rgba(122,172,216,0.75)" text-anchor="end">Fri</text><text x="38.00" y="12.00" font-family="monospace" font-size="10.00" fill="rgba(122,172,216,0.75)">Jun</text><text x="102.00" y="12.00" font-family="monospace" font-size="10.00" fill="rgba(122,172,216,0.75)">Jul</text><text x="166.00" y="12.00" font-family="monospace" font-size="10.00" fill="rgba(122,172,216,0.75)">Aug</text><text x="246.00" y="12.00" font-family="monospace" font-size="10.00" fill="rgba(122,172,216,0.75)">Sep</text><text x="310.00" y="12.00" font-family="monospace" font-size="10.00" fill="rgba(122,172,216,0.75)">Oct</text><text x="374.00" y="12.00" font-family="monospace" font-size="10.00" fill="rgba(122,172,216,0.75)">Nov</text><text x="454.00" y="12.00" font-family="monospace" font-size="10.00" fill="rgba(122,172,216,0.75)">Dec</text><text x="518.00" y="12.00" font-family="monospace" font-size="10.00" fill="rgba(122,172,216,0.75)">Jan</text><text x="598.00" y="12.00" font-family="monospace" font-size="10.00" fill="rgba(122,172,216,0.75)">Feb</text><text x="662.00" y="12.00" font-family="monospace" font-size="10.00" fill="rgba(122,172,216,0.75)">Mar</text><text x="726.00" y="12.00" font-family="monospace" font-size="10.00" fill="rgba(122,172,216,0.75)">Apr</text><text x="790.00" y="12.00" font-family="monospace" font-size="10.00" fill="rgba(122,172,216,0.75)">May</text><text x="870.00" y="12.00" font-family="monospace" font-size="10.00" fill="rgba(122,172,216,0.75)">Jun</text><circle cx="807.96" cy="46.33" r="0.94" fill="hsl(200,45%,88%)" opacity="0.15" /><circle cx="134.36" cy="53.21" r="0.21" fill="hsl(0,0%,100%)" opacity="0.15" /><circle cx="770.50" cy="44.69" r="0.99" fill="hsl(0,0%,100%)" opacity="0.15" /><circle cx="793.96" cy="111.00" r="0.20" fill="hsl(0,0%,100%)" opacity="0.15" /><circle cx="714.99" cy="134.35" r="0.90" fill="hsl(0,0%,100%)" opacity="0.15" /><circle cx="637.55" cy="49.69" r="0.73" fill="hsl(130,22%,80%)" opacity="0.15" /><circle cx="63.22" cy="31.95" r="1.07" fill="hsl(0,0%,100%)" opacity="0.15" /><circle cx="322.58" cy="53.80" r="0.79" fill="hsl(0,0%,100%)" opacity="0.15" /><circle cx="690.90" cy="68.85" r="0.38" fill="hsl(0,0%,100%)" opacity="0.15" /><circle cx="653.46" cy="112.46" r="0.63" fill="hsl(0,0%,100%)" opacity="0.15" /><circle cx="314.51" cy="48.89" r="0.47" fill="hsl(0,0%,100%)" opacity="0.15" /><circle cx="325.08" cy="61.47" r="0.30" fill="hsl(15,35%,80%)" opacity="0.15" /><circle cx="208.52" cy="91.73" r="0.70" fill="hsl(0,0%,100%)" opacity="0.15" /><circle cx="240.31" cy="52.10" r="0.09" fill="hsl(0,0%,100%)" opacity="0.15" /><circle cx="686.71" cy="120.61" r="1.04" fill="hsl(0,0%,100%)" opacity="0.15" /><circle cx="483.97" cy="61.90" r="0.15" fill="hsl(0,0%,100%)" opacity="0.15" /><circle cx="245.23" cy="56.99" r="0.30" fill="hsl(0,0%,100%)" opacity="0.15" /><circle cx="418.58" cy="132.06" r="0.48" fill="hsl(0,0%,100%)" opacity="0.15" /><circle cx="70.56" cy="69.85" r="0.69" fill="hsl(268,32%,82%)" opacity="0.15" /><circle cx="697.91" cy="67.97" r="0.02" fill="hsl(0,0%,100%)" opacity="0.15" /><circle cx="731.38" cy="79.16" r="0.34" fill="hsl(0,0%,100%)" opacity="0.15" /><circle cx="817.35" cy="73.05" r="0.79" fill="hsl(268,32%,82%)" opacity="0.15" /><circle cx="431.75" cy="48.13" r="0.39" fill="hsl(0,0%,100%)" opacity="0.15" /><circle cx="406.74" cy="138.47" r="0.15" fill="hsl(0,0%,100%)" opacity="0.15" /><circle cx="792.32" cy="114.70" r="1.08" fill="hsl(0,0%,100%)" opacity="0.15" /><circle cx="858.35" cy="37.07" r="0.46" fill="hsl(0,0%,100%)" opacity="0.15" /><circle cx="833.80" cy="44.43" r="0.39" fill="hsl(0,0%,100%)" opacity="0.15" /><circle cx="705.11" cy="39.05" r="0.68" fill="hsl(0,0%,100%)" opacity="0.15" /><circle cx="821.15" cy="126.10" r="1.33" fill="hsl(200,45%,88%)" opacity="0.15" /><circle cx="598.86" cy="110.75" r="0.16" fill="hsl(0,0%,100%)" opacity="0.15" /><circle cx="769.63" cy="95.89" r="1.31" fill="hsl(0,0%,100%)" opacity="0.15" /><circle cx="596.19" cy="121.35" r="0.46" fill="hsl(0,0%,100%)" opacity="0.15" /><circle cx="374.51" cy="78.59" r="1.18" fill="hsl(0,0%,100%)" opacity="0.15" /><circle cx="124.83" cy="46.66" r="0.76" fill="hsl(200,45%,88%)" opacity="0.15" /><circle cx="168.67" cy="119.12" r="0.69" fill="hsl(200,45%,88%)" opacity="0.15" /><circle cx="695.47" cy="53.32" r="1.42" fill="hsl(0,0%,100%)" opacity="0.15" /><circle cx="292.90" cy="117.87" r="0.49" fill="hsl(15,35%,80%)" opacity="0.15" /><circle cx="776.89" cy="131.94" r="1.37" fill="hsl(0,0%,100%)" opacity="0.15" /><circle cx="226.44" cy="119.04" r="0.92" fill="hsl(200,45%,88%)" opacity="0.15" /><circle cx="332.08" cy="95.37" r="1.46" fill="hsl(0,0%,100%)" opacity="0.15" /><circle cx="702.98" cy="133.93" r="0.84" fill="hsl(0,0%,100%)" opacity="0.15" /><circle cx="750.09" cy="106.86" r="1.16" fill="hsl(0,0%,100%)" opacity="0.15" /><circle cx="779.58" cy="44.26" r="0.72" fill="hsl(130,22%,80%)" opacity="0.15" /><circle cx="40.70" cy="63.03" r="0.36" fill="hsl(0,0%,100%)" opacity="0.15" /><circle cx="690.00" cy="74.38" r="1.20" fill="hsl(0,0%,100%)" opacity="0.15" /><circle cx="617.75" cy="83.22" r="0.36" fill="hsl(0,0%,100%)" opacity="0.15" /><circle cx="242.08" cy="96.07" r="0.02" fill="hsl(0,0%,100%)" opacity="0.15" /><circle cx="401.36" cy="128.94" r="0.13" fill="hsl(200,45%,88%)" opacity="0.15" /><circle cx="754.92" cy="41.77" r="0.47" fill="hsl(0,0%,100%)" opacity="0.15" /><circle cx="96.95" cy="59.40" r="0.05" fill="hsl(0,0%,100%)" opacity="0.15" /><circle cx="445.35" cy="118.36" r="1.26" fill="hsl(130,22%,80%)" opacity="0.15" /><circle cx="100.48" cy="109.37" r="0.87" fill="hsl(0,0%,100%)" opacity="0.15" /><circle cx="141.61" cy="73.70" r="0.22" fill="hsl(0,0%,100%)" opacity="0.15" /><circle cx="337.82" cy="66.68" r="0.04" fill="hsl(0,0%,100%)" opacity="0.15" /><circle cx="377.78" cy="115.03" r="0.22" fill="hsl(0,0%,100%)" opacity="0.15" /><circle cx="513.44" cy="62.52" r="0.29" fill="hsl(15,35%,80%)" opacity="0.15" /><circle cx="476.72" cy="101.13" r="1.05" fill="hsl(0,0%,100%)" opacity="0.15" /><circle cx="262.17" cy="43.22" r="1.07" fill="hsl(0,0%,100%)" opacity="0.15" /><circle cx="366.01" cy="111.04" r="0.91" fill="hsl(0,0%,100%)" opacity="0.15" /><circle cx="146.29" cy="41.33" r="1.35" fill="hsl(0,0%,100%)" opacity="0.15" /><circle cx="222.92" cy="98.74" r="0.21" fill="hsl(0,0%,100%)" opacity="0.15" /><circle cx="668.58" cy="78.73" r="0.12" fill="hsl(0,0%,100%)" opacity="0.15" /><circle cx="320.19" cy="109.79" r="1.41" fill="hsl(15,35%,80%)" opacity="0.15" /><circle cx="506.14" cy="33.23" r="0.85" fill="hsl(0,0%,100%)" opacity="0.15" /><circle cx="385.82" cy="73.22" r="1.48" fill="hsl(0,0%,100%)" opacity="0.15" /><circle cx="497.70" cy="79.77" r="2.37" fill="hsl(214,39%,51%)" opacity="0.19" /><circle cx="497.70" cy="79.77" r="1.47" fill="hsl(214.0,62%,57%)" opacity="0.71" /><circle cx="490.91" cy="110.95" r="2.37" fill="hsl(214,39%,51%)" opacity="0.19" /><circle cx="490.91" cy="110.95" r="1.47" fill="hsl(214.0,62%,57%)" opacity="0.71" /><circle cx="530.19" cy="103.33" r="2.19" fill="hsl(214,36%,47%)" opacity="0.17" /><circle cx="530.19" cy="103.33" r="1.33" fill="hsl(214.0,58%,50%)" opacity="0.66" /><circle cx="563.02" cy="81.02" r="2.37" fill="hsl(214,39%,51%)" opacity="0.19" /><circle cx="563.02" cy="81.02" r="1.47" fill="hsl(214.0,62%,57%)" opacity="0.71" /><circle cx="713.65" cy="63.16" r="2.19" fill="hsl(214,36%,47%)" opacity="0.17" /><circle cx="713.65" cy="63.16" r="1.33" fill="hsl(214.0,58%,50%)" opacity="0.66" /><circle cx="734.41" cy="69.11" r="2.19" fill="hsl(214,36%,47%)" opacity="0.17" /><circle cx="734.41" cy="69.11" r="1.33" fill="hsl(214.0,58%,50%)" opacity="0.66" /><circle cx="737.29" cy="79.06" r="2.19" fill="hsl(214,36%,47%)" opacity="0.17" /><circle cx="737.29" cy="79.06" r="1.33" fill="hsl(214.0,58%,50%)" opacity="0.66" /><circle cx="729.78" cy="96.13" r="2.56" fill="hsl(214,44%,56%)" opacity="0.20" /><circle cx="729.78" cy="96.13" r="1.61" fill="hsl(214.0,67%,65%)" opacity="0.75" /><circle cx="730.00" cy="119.48" r="2.81" fill="hsl(214,51%,65%)" opacity="0.22" /><circle cx="730.00" cy="119.48" r="1.81" fill="hsl(207.3,77%,80%)" opacity="0.81" /><circle cx="754.13" cy="48.99" r="2.62" fill="hsl(214,45%,58%)" opacity="0.21" /><circle cx="754.13" cy="48.99" r="1.66" fill="hsl(214.0,69%,68%)" opacity="0.76" /><circle cx="745.88" cy="63.36" r="2.62" fill="hsl(214,45%,58%)" opacity="0.21" /><circle cx="745.88" cy="63.36" r="1.66" fill="hsl(214.0,69%,68%)" opacity="0.76" /><circle cx="746.58" cy="88.39" r="2.66" fill="hsl(214,47%,60%)" opacity="0.21" /><circle cx="746.58" cy="88.39" r="1.69" fill="hsl(214.0,71%,71%)" opacity="0.77" /><circle cx="749.96" cy="132.59" r="2.66" fill="hsl(214,47%,60%)" opacity="0.21" /><circle cx="749.96" cy="132.59" r="1.69" fill="hsl(214.0,71%,71%)" opacity="0.77" /><circle cx="770.99" cy="38.94" r="2.48" fill="hsl(214,42%,54%)" opacity="0.20" /><circle cx="770.99" cy="38.94" r="1.55" fill="hsl(214.0,65%,62%)" opacity="0.73" /><circle cx="767.05" cy="52.27" r="2.48" fill="hsl(214,42%,54%)" opacity="0.20" /><circle cx="767.05" cy="52.27" r="1.55" fill="hsl(214.0,65%,62%)" opacity="0.73" /><circle cx="762.78" cy="72.88" r="2.62" fill="hsl(214,45%,58%)" opacity="0.21" /><circle cx="762.78" cy="72.88" r="1.66" fill="hsl(214.0,69%,68%)" opacity="0.76" /><circle cx="760.90" cy="80.28" r="2.79" fill="hsl(214,50%,64%)" opacity="0.22" /><circle cx="760.90" cy="80.28" r="1.79" fill="hsl(208.7,76%,79%)" opacity="0.80" /><circle cx="770.33" cy="104.67" r="2.90" fill="hsl(214,54%,69%)" opacity="0.23" /><circle cx="770.33" cy="104.67" r="1.88" fill="hsl(201.8,81%,86%)" opacity="0.83" /><circle cx="761.07" cy="112.79" r="2.74" fill="hsl(214,49%,62%)" opacity="0.22" /><circle cx="761.07" cy="112.79" r="1.75" fill="hsl(211.8,74%,75%)" opacity="0.79" /><circle cx="761.80" cy="136.69" r="2.93" fill="hsl(214,55%,70%)" opacity="0.23" /><circle cx="761.80" cy="136.69" r="1.90" fill="hsl(200.0,82%,88%)" opacity="0.84" /><circle cx="781.29" cy="35.62" r="2.48" fill="hsl(214,42%,54%)" opacity="0.20" /><circle cx="781.29" cy="35.62" r="1.55" fill="hsl(214.0,65%,62%)" opacity="0.73" /><circle cx="777.52" cy="48.36" r="2.66" fill="hsl(214,47%,60%)" opacity="0.21" /><circle cx="777.52" cy="48.36" r="1.69" fill="hsl(214.0,71%,71%)" opacity="0.77" /><circle cx="786.23" cy="71.99" r="2.56" fill="hsl(214,44%,56%)" opacity="0.20" /><circle cx="786.23" cy="71.99" r="1.61" fill="hsl(214.0,67%,65%)" opacity="0.75" /><circle cx="785.14" cy="80.07" r="2.87" fill="hsl(214,53%,68%)" opacity="0.23" /><circle cx="785.14" cy="80.07" r="1.85" fill="hsl(203.7,79%,84%)" opacity="0.82" /><circle cx="777.81" cy="95.07" r="2.66" fill="hsl(214,47%,60%)" opacity="0.21" /><circle cx="777.81" cy="95.07" r="1.69" fill="hsl(214.0,71%,71%)" opacity="0.77" /><circle cx="782.91" cy="132.80" r="2.77" fill="hsl(214,50%,63%)" opacity="0.22" /><circle cx="782.91" cy="132.80" r="1.77" fill="hsl(210.2,75%,77%)" opacity="0.80" /><circle cx="795.01" cy="48.70" r="2.92" fill="hsl(214,55%,69%)" opacity="0.23" /><circle cx="795.01" cy="48.70" r="1.89" fill="hsl(200.9,81%,87%)" opacity="0.83" /><circle cx="794.51" cy="96.54" r="2.74" fill="hsl(214,49%,62%)" opacity="0.22" /><circle cx="794.51" cy="96.54" r="1.75" fill="hsl(211.8,74%,75%)" opacity="0.79" /><circle cx="794.69" cy="111.96" r="2.81" fill="hsl(214,51%,65%)" opacity="0.22" /><circle cx="794.69" cy="111.96" r="1.81" fill="hsl(207.3,77%,80%)" opacity="0.81" /><circle cx="793.74" cy="136.07" r="2.48" fill="hsl(214,42%,54%)" opacity="0.20" /><circle cx="793.74" cy="136.07" r="1.55" fill="hsl(214.0,65%,62%)" opacity="0.73" /><circle cx="817.32" cy="87.78" r="2.56" fill="hsl(214,44%,56%)" opacity="0.20" /><circle cx="817.32" cy="87.78" r="1.61" fill="hsl(214.0,67%,65%)" opacity="0.75" /><circle cx="817.61" cy="95.81" r="2.37" fill="hsl(214,39%,51%)" opacity="0.19" /><circle cx="817.61" cy="95.81" r="1.47" fill="hsl(214.0,62%,57%)" opacity="0.71" /><circle cx="835.11" cy="40.37" r="2.56" fill="hsl(214,44%,56%)" opacity="0.20" /><circle cx="835.11" cy="40.37" r="1.61" fill="hsl(214.0,67%,65%)" opacity="0.75" /><circle cx="827.12" cy="46.95" r="2.87" fill="hsl(214,53%,68%)" opacity="0.23" /><circle cx="827.12" cy="46.95" r="1.85" fill="hsl(203.7,79%,84%)" opacity="0.82" /><circle cx="833.32" cy="64.74" r="2.87" fill="hsl(214,53%,68%)" opacity="0.23" /><circle cx="833.32" cy="64.74" r="1.85" fill="hsl(203.7,79%,84%)" opacity="0.82" /><circle cx="826.08" cy="80.20" r="2.62" fill="hsl(214,45%,58%)" opacity="0.21" /><circle cx="826.08" cy="80.20" r="1.66" fill="hsl(214.0,69%,68%)" opacity="0.76" /><circle cx="825.99" cy="103.34" r="2.92" fill="hsl(214,55%,69%)" opacity="0.23" /><circle cx="825.99" cy="103.34" r="1.89" fill="hsl(200.9,81%,87%)" opacity="0.83" /><circle cx="825.50" cy="121.13" r="2.48" fill="hsl(214,42%,54%)" opacity="0.20" /><circle cx="825.50" cy="121.13" r="1.55" fill="hsl(214.0,65%,62%)" opacity="0.73" /><circle cx="825.18" cy="136.79" r="2.77" fill="hsl(214,50%,63%)" opacity="0.22" /><circle cx="825.18" cy="136.79" r="1.77" fill="hsl(210.2,75%,77%)" opacity="0.80" /><circle cx="841.43" cy="127.19" r="2.37" fill="hsl(214,39%,51%)" opacity="0.19" /><circle cx="841.43" cy="127.19" r="1.47" fill="hsl(214.0,62%,57%)" opacity="0.71" /><circle cx="858.93" cy="38.89" r="2.56" fill="hsl(214,44%,56%)" opacity="0.20" /><circle cx="858.93" cy="38.89" r="1.61" fill="hsl(214.0,67%,65%)" opacity="0.75" /><circle cx="866.45" cy="48.59" r="2.56" fill="hsl(214,44%,56%)" opacity="0.20" /><circle cx="866.45" cy="48.59" r="1.61" fill="hsl(214.0,67%,65%)" opacity="0.75" /><path d="M 753.82,96.59 L 754.53,113.02 L 777.72,119.18 L 801.05,73.03 L 801.69,87.56 L 817.72,120.78 L 817.49,128.73" fill="none" stroke="rgba(255,255,255,0.1)" stroke-width="1.00" stroke-linejoin="round" /><g transform="rotate(-4.6 753.82 96.59)"><circle cx="753.82" cy="96.59" r="5.90" fill="hsla(48,100%,74%,0.35)" fill-opacity="0.35" /><circle cx="753.82" cy="96.59" r="3.54" fill="hsla(50,100%,99%,0.75)" filter="url(#organic-sphere)" /><line x1="750.95" y1="93.72" x2="756.68" y2="99.45" stroke="hsl(48,100%,86.0%)" stroke-width="0.40" stroke-opacity="0.42" stroke-linecap="round" /><line x1="750.95" y1="99.45" x2="756.68" y2="93.72" stroke="hsl(48,100%,86.0%)" stroke-width="0.40" stroke-opacity="0.42" stroke-linecap="round" /><line x1="744.82" y1="96.59" x2="762.82" y2="96.59" stroke="hsl(48,100%,86.0%)" stroke-width="0.50" stroke-linecap="round" /><line x1="753.82" y1="87.59" x2="753.82" y2="105.59" stroke="hsl(48,100%,86.0%)" stroke-width="0.50" stroke-linecap="round" /><circle cx="753.82" cy="96.59" r="1.38" fill="hsl(48,100%,86.0%)" /></g><g transform="rotate(12.5 754.53 113.02)"><circle cx="754.53" cy="113.02" r="5.90" fill="hsla(48,100%,74%,0.35)" fill-opacity="0.35" /><circle cx="754.53" cy="113.02" r="3.54" fill="hsla(50,100%,99%,0.75)" filter="url(#organic-sphere)" /><line x1="751.66" y1="110.16" x2="757.39" y2="115.88" stroke="hsl(48,100%,92%)" stroke-width="0.40" stroke-opacity="0.42" stroke-linecap="round" /><line x1="751.66" y1="115.88" x2="757.39" y2="110.16" stroke="hsl(48,100%,92%)" stroke-width="0.40" stroke-opacity="0.42" stroke-linecap="round" /><line x1="745.53" y1="113.02" x2="763.53" y2="113.02" stroke="hsl(48,100%,92%)" stroke-width="0.50" stroke-linecap="round" /><line x1="754.53" y1="104.02" x2="754.53" y2="122.02" stroke="hsl(48,100%,92%)" stroke-width="0.50" stroke-linecap="round" /><circle cx="754.53" cy="113.02" r="1.38" fill="hsl(48,100%,92%)" /></g><g transform="rotate(41.9 777.72 119.18)"><circle cx="777.72" cy="119.18" r="5.90" fill="hsla(48,100%,74%,0.35)" fill-opacity="0.35" /><circle cx="777.72" cy="119.18" r="3.54" fill="hsla(50,100%,99%,0.75)" filter="url(#organic-sphere)" /><line x1="774.86" y1="116.32" x2="780.59" y2="122.04" stroke="hsl(48,100%,92%)" stroke-width="0.40" stroke-opacity="0.42" stroke-linecap="round" /><line x1="774.86" y1="122.04" x2="780.59" y2="116.32" stroke="hsl(48,100%,92%)" stroke-width="0.40" stroke-opacity="0.42" stroke-linecap="round" /><line x1="768.72" y1="119.18" x2="786.72" y2="119.18" stroke="hsl(48,100%,92%)" stroke-width="0.50" stroke-linecap="round" /><line x1="777.72" y1="110.18" x2="777.72" y2="128.18" stroke="hsl(48,100%,92%)" stroke-width="0.50" stroke-linecap="round" /><circle cx="777.72" cy="119.18" r="1.38" fill="hsl(48,100%,92%)" /></g><g transform="rotate(19.1 801.05 73.03)"><circle cx="801.05" cy="73.03" r="5.90" fill="hsla(48,100%,74%,0.35)" fill-opacity="0.35" /><circle cx="801.05" cy="73.03" r="3.54" fill="hsla(50,100%,99%,0.75)" filter="url(#organic-sphere)" /><line x1="798.19" y1="70.16" x2="803.92" y2="75.89" stroke="hsl(48,100%,92%)" stroke-width="0.40" stroke-opacity="0.42" stroke-linecap="round" /><line x1="798.19" y1="75.89" x2="803.92" y2="70.16" stroke="hsl(48,100%,92%)" stroke-width="0.40" stroke-opacity="0.42" stroke-linecap="round" /><line x1="792.05" y1="73.03" x2="810.05" y2="73.03" stroke="hsl(48,100%,92%)" stroke-width="0.50" stroke-linecap="round" /><line x1="801.05" y1="64.03" x2="801.05" y2="82.03" stroke="hsl(48,100%,92%)" stroke-width="0.50" stroke-linecap="round" /><circle cx="801.05" cy="73.03" r="1.38" fill="hsl(48,100%,92%)" /></g><g transform="rotate(34.2 801.69 87.56)"><circle cx="801.69" cy="87.56" r="5.90" fill="hsla(48,100%,74%,0.35)" fill-opacity="0.35" /><circle cx="801.69" cy="87.56" r="3.54" fill="hsla(50,100%,99%,0.75)" filter="url(#organic-sphere)" /><line x1="798.82" y1="84.69" x2="804.55" y2="90.42" stroke="hsl(48,100%,92%)" stroke-width="0.40" stroke-opacity="0.42" stroke-linecap="round" /><line x1="798.82" y1="90.42" x2="804.55" y2="84.69" stroke="hsl(48,100%,92%)" stroke-width="0.40" stroke-opacity="0.42" stroke-linecap="round" /><line x1="792.69" y1="87.56" x2="810.69" y2="87.56" stroke="hsl(48,100%,92%)" stroke-width="0.50" stroke-linecap="round" /><line x1="801.69" y1="78.56" x2="801.69" y2="96.56" stroke="hsl(48,100%,92%)" stroke-width="0.50" stroke-linecap="round" /><circle cx="801.69" cy="87.56" r="1.38" fill="hsl(48,100%,92%)" /></g><g transform="rotate(-6.5 817.72 120.78)"><circle cx="817.72" cy="120.78" r="5.90" fill="hsla(48,100%,74%,0.35)" fill-opacity="0.35" /><circle cx="817.72" cy="120.78" r="3.54" fill="hsla(50,100%,99%,0.75)" filter="url(#organic-sphere)" /><line x1="814.86" y1="117.92" x2="820.58" y2="123.65" stroke="hsl(48,100%,86.0%)" stroke-width="0.40" stroke-opacity="0.42" stroke-linecap="round" /><line x1="814.86" y1="123.65" x2="820.58" y2="117.92" stroke="hsl(48,100%,86.0%)" stroke-width="0.40" stroke-opacity="0.42" stroke-linecap="round" /><line x1="808.72" y1="120.78" x2="826.72" y2="120.78" stroke="hsl(48,100%,86.0%)" stroke-width="0.50" stroke-linecap="round" /><line x1="817.72" y1="111.78" x2="817.72" y2="129.78" stroke="hsl(48,100%,86.0%)" stroke-width="0.50" stroke-linecap="round" /><circle cx="817.72" cy="120.78" r="1.38" fill="hsl(48,100%,86.0%)" /></g><g transform="rotate(1.2 817.49 128.73)"><circle cx="817.49" cy="128.73" r="5.90" fill="hsla(48,100%,74%,0.35)" fill-opacity="0.35" /><circle cx="817.49" cy="128.73" r="3.54" fill="hsla(50,100%,99%,0.75)" filter="url(#organic-sphere)" /><line x1="814.63" y1="125.87" x2="820.35" y2="131.60" stroke="hsl(48,100%,92%)" stroke-width="0.40" stroke-opacity="0.42" stroke-linecap="round" /><line x1="814.63" y1="131.60" x2="820.35" y2="125.87" stroke="hsl(48,100%,92%)" stroke-width="0.40" stroke-opacity="0.42" stroke-linecap="round" /><line x1="808.49" y1="128.73" x2="826.49" y2="128.73" stroke="hsl(48,100%,92%)" stroke-width="0.50" stroke-linecap="round" /><line x1="817.49" y1="119.73" x2="817.49" y2="137.73" stroke="hsl(48,100%,92%)" stroke-width="0.50" stroke-linecap="round" /><circle cx="817.49" cy="128.73" r="1.38" fill="hsl(48,100%,92%)" /></g></svg>