<svg xmlns="http://www.w3.org/2000/svg" viewBox="0 0 896 150" width="896" height="150" role="img" aria-label="Cinematic comet contribution graph"><rect x="0.00" y="0.00" width="896.00" height="150.00" fill="#010209" /><defs><linearGradient id="tail-grad" x1="0" y1="0" x2="1" y2="0"><stop offset="0%" stop-color="#c8e0ff" stop-opacity="0"/><stop offset="40%" stop-color="#c8e0ff" stop-opacity="0.1"/><stop offset="70%" stop-color="#d8ecff" stop-opacity="0.5"/><stop offset="90%" stop-color="#ffffff" stop-opacity="0.85"/><stop offset="100%" stop-color="#ffffff" stop-opacity="0"/></linearGradient><filter id="tail-blur" x="-20%" y="-100%" width="140%" height="300%"><feGaussianBlur stdDeviation="1.2"/></filter><filter id="organic-sphere" x="-80%" y="-80%" width="260%" height="260%"><feTurbulence type="fractalNoise" baseFrequency="0.035" numOctaves="2" seed="7" result="noise" /><feDisplacementMap in="SourceGraphic" in2="noise" scale="4" xChannelSelector="R" yChannelSelector="G" result="displaced" /><feGaussianBlur in="displaced" stdDeviation="1.4" /></filter></defs><text x="22.00" y="55.00" font-family="monospace" font-size="10.00" fill="rgba(122,172,216,0.75)" text-anchor="end">Mon</text><text x="22.00" y="87.00" font-family="monospace" font-size="10.00" fill="rgba(122,172,216,0.75)" text-anchor="end">Wed</text><text x="22.00" y="119.00" font-family="monospace" font-size="10.00" fill="rgba(122,172,216,0.75)" text-anchor="end">Fri</text><text x="38.00" y="12.00" font-family="monospace" font-size="10.00" fill="rgba(122,172,216,0.75)">Jan</text><text x="102.00" y="12.00" font-family="monospace" font-size="10.00" fill="rgba(122,172,216,0.75)">Feb</text><text x="166.00" y="12.00" font-family="monospace" font-size="10.00" fill="rgba(122,172,216,0.75)">Mar</text><text x="230.00" y="12.00" font-family="monospace" font-size="10.00" fill="rgba(122,172,216,0.75)">Apr</text><text x="310.00" y="12.00" font-family="monospace" font-size="10.00" fill="rgba(122,172,216,0.75)">May</text><text x="374.00" y="12.00" font-family="monospace" font-size="10.00" fill="rgba(122,172,216,0.75)">Jun</text><text x="438.00" y="12.00" font-family="monospace" font-size="10.00" fill="rgba(122,172,216,0.75)">Jul</text><text x="518.00" y="12.00" font-family="monospace" font-size="10.00" fill="rgba(122,172,216,0.75)">Aug</text><text x="582.00" y="12.00" font-family="monospace" font-size="10.00" fill="rgba(122,172,216,0.75)">Sep</text><text x="662.00" y="12.00" font-family="monospace" font-size="10.00" fill="rgba(122,172,216,0.75)">Oct</text><text x="726.00" y="12.00" font-family="monospace" font-size="10.00" fill="rgba(122,172,216,0.75)">Nov</text><text x="790.00" y="12.00" font-family="monospace" font-size="10.00" fill="rgba(122,172,216,0.75)">Dec</text><text x="870.00" y="12.00" font-family="monospace" font-size="10.00" fill="rgba(122,172,216,0.75)">Jan</text><circle cx="738.04" cy="34.24" r="0.79" fill="hsl(0,0%,100%)" opacity="0.12" /><circle cx="651.31" cy="48.81" r="0.10" fill="hsl(0,0%,100%)" opacity="0.12" /><circle cx="541.05" cy="133.20" r="0.52" fill="hsl(0,0%,100%)" opacity="0.12" /><circle cx="699.44" cy="110.07" r="0.81" fill="hsl(0,0%,100%)" opacity="0.12" /><circle cx="256.74" cy="29.52" r="0.71" fill="hsl(268,32%,82%)" opacity="0.12" /><circle cx="141.55" cy="77.97" r="0.92" fill="hsl(130,22%,80%)" opacity="0.12" /><circle cx="196.52" cy="71.19" r="1.33" fill="hsl(15,35%,80%)" opacity="0.12" /><circle cx="869.56" cy="39.15" r="0.00" fill="hsl(200,45%,88%)" opacity="0.12" /><circle cx="703.98" cy="28.88" r="1.22" fill="hsl(0,0%,100%)" opacity="0.12" /><circle cx="257.67" cy="83.36" r="0.04" fill="hsl(0,0%,100%)" opacity="0.12" /><circle cx="725.27" cy="56.24" r="0.36" fill="hsl(0,0%,100%)" opacity="0.12" /><circle cx="528.02" cy="66.59" r="0.47" fill="hsl(130,22%,80%)" opacity="0.12" /><circle cx="734.03" cy="128.44" r="1.02" fill="hsl(0,0%,100%)" opacity="0.12" /><circle cx="97.63" cy="58.85" r="0.76" fill="hsl(268,32%,82%)" opacity="0.12" /><circle cx="586.36" cy="85.07" r="0.44" fill="hsl(15,35%,80%)" opacity="0.12" /><circle cx="813.53" cy="111.59" r="1.36" fill="hsl(0,0%,100%)" opacity="0.12" /><circle cx="469.37" cy="105.26" r="0.75" fill="hsl(200,45%,88%)" opacity="0.12" /><circle cx="276.20" cy="69.69" r="1.41" fill="hsl(200,45%,88%)" opacity="0.12" /><circle cx="365.78" cy="136.97" r="1.14" fill="hsl(15,35%,80%)" opacity="0.12" /><circle cx="832.16" cy="39.52" r="0.03" fill="hsl(130,22%,80%)" opacity="0.12" /><circle cx="227.00" cy="44.11" r="0.43" fill="hsl(15,35%,80%)" opacity="0.12" /><circle cx="867.67" cy="46.21" r="0.71" fill="hsl(0,0%,100%)" opacity="0.12" /><circle cx="627.41" cy="71.59" r="1.41" fill="hsl(15,35%,80%)" opacity="0.12" /><circle cx="240.73" cy="46.27" r="1.47" fill="hsl(200,45%,88%)" opacity="0.12" /><circle cx="444.84" cy="72.45" r="1.49" fill="hsl(0,0%,100%)" opacity="0.12" /><circle cx="246.79" cy="32.16" r="0.04" fill="hsl(0,0%,100%)" opacity="0.12" /><circle cx="79.34" cy="57.44" r="0.69" fill="hsl(0,0%,100%)" opacity="0.12" /><circle cx="135.81" cy="120.70" r="0.12" fill="hsl(130,22%,80%)" opacity="0.12" /><circle cx="726.85" cy="40.82" r="0.52" fill="hsl(0,0%,100%)" opacity="0.12" /><circle cx="127.28" cy="51.92" r="0.63" fill="hsl(0,0%,100%)" opacity="0.12" /><circle cx="329.14" cy="119.25" r="1.29" fill="hsl(0,0%,100%)" opacity="0.12" /><circle cx="460.56" cy="114.16" r="1.00" fill="hsl(0,0%,100%)" opacity="0.12" /><circle cx="715.90" cy="117.70" r="1.48" fill="hsl(0,0%,100%)" opacity="0.12" /><circle cx="501.13" cy="129.33" r="0.05" fill="hsl(0,0%,100%)" opacity="0.12" /><circle cx="75.84" cy="122.06" r="0.64" fill="hsl(15,35%,80%)" opacity="0.12" /><circle cx="432.11" cy="131.53" r="0.58" fill="hsl(0,0%,100%)" opacity="0.12" /><circle cx="138.34" cy="122.43" r="1.17" fill="hsl(0,0%,100%)" opacity="0.12" /><circle cx="256.49" cy="119.97" r="0.15" fill="hsl(0,0%,100%)" opacity="0.12" /><circle cx="408.86" cy="58.40" r="1.43" fill="hsl(0,0%,100%)" opacity="0.12" /><circle cx="420.73" cy="85.44" r="0.25" fill="hsl(200,45%,88%)" opacity="0.12" /><circle cx="318.39" cy="123.57" r="0.01" fill="hsl(0,0%,100%)" opacity="0.12" /><circle cx="422.29" cy="67.20" r="0.10" fill="hsl(0,0%,100%)" opacity="0.12" /><circle cx="102.71" cy="112.94" r="0.51" fill="hsl(200,45%,88%)" opacity="0.12" /><circle cx="732.43" cy="66.82" r="1.33" fill="hsl(0,0%,100%)" opacity="0.12" /><circle cx="311.56" cy="40.62" r="1.31" fill="hsl(130,22%,80%)" opacity="0.12" /><circle cx="827.73" cy="126.98" r="1.05" fill="hsl(0,0%,100%)" opacity="0.12" /><circle cx="141.14" cy="30.28" r="1.18" fill="hsl(0,0%,100%)" opacity="0.12" /><circle cx="286.23" cy="84.31" r="0.12" fill="hsl(0,0%,100%)" opacity="0.12" /><circle cx="123.83" cy="128.93" r="0.40" fill="hsl(0,0%,100%)" opacity="0.12" /><circle cx="124.67" cy="134.33" r="0.46" fill="hsl(0,0%,100%)" opacity="0.12" /></svg>