<svg xmlns="http://www.w3.org/2000/svg" viewBox="0 0 868 150" width="868" height="150" role="img" aria-label="Cinematic comet contribution graph"><rect x="0.00" y="0.00" width="868.00" height="150.00" fill="#f5f6fa" /><text x="10.00" y="12.00" font-family="monospace" font-size="10.00" fill="rgba(40,60,90,0.8)">Jan</text><text x="90.00" y="12.00" font-family="monospace" font-size="10.00" fill="rgba(40,60,90,0.8)">Feb</text><text x="154.00" y="12.00" font-family="monospace" font-size="10.00" fill="rgba(40,60,90,0.8)">Mar</text><text x="218.00" y="12.00" font-family="monospace" font-size="10.00" fill="rgba(40,60,90,0.8)">Apr</text><text x="298.00" y="12.00" font-family="monospace" font-size="10.00" fill="rgba(40,60,90,0.8)">May</text><text x="362.00" y="12.00" font-family="monospace" font-size="10.00" fill="rgba(40,60,90,0.8)">Jun</text><text x="426.00" y="12.00" font-family="monospace" font-size="10.00" fill="rgba(40,60,90,0.8)">Jul</text><text x="506.00" y="12.00" font-family="monospace" font-size="10.00" fill="rgba(40,60,90,0.8)">Aug</text><text x="570.00" y="12.00" font-family="monospace" font-size="10.00" fill="rgba(40,60,90,0.8)">Sep</text><text x="634.00" y="12.00" font-family="monospace" font-size="10.00" fill="rgba(40,60,90,0.8)">Oct</text><text x="714.00" y="12.00" font-family="monospace" font-size="10.00" fill="rgba(40,60,90,0.8)">Nov</text><text x="778.00" y="12.00" font-family="monospace" font-size="10.00" fill="rgba(40,60,90,0.8)">Dec</text><circle cx="710.04" cy="34.24" r="0.79" fill="hsl(0,0%,45%)" opacity="0.18" /><circle cx="623.31" cy="48.81" r="0.10" fill="hsl(0,0%,45%)" opacity="0.18" /><circle cx="513.05" cy="133.20" r="0.52" fill="hsl(0,0%,45%)" opacity="0.18" /><circle cx="671.44" cy="110.07" r="0.81" fill="hsl(0,0%,45%)" opacity="0.18" /><circle cx="228.74" cy="29.52" r="0.71" fill="hsl(268,32%,38%)" opacity="0.18" /><circle cx="113.55" cy="77.97" r="0.92" fill="hsl(130,22%,34%)" opacity="0.18" /><circle cx="168.52" cy="71.19" r="1.33" fill="hsl(15,35%,40%)" opacity="0.18" /><circle cx="841.56" cy="39.15" r="0.00" fill="hsl(200,45%,35%)" opacity="0.18" /><circle cx="675.98" cy="28.88" r="1.22" fill="hsl(0,0%,45%)" opacity="0.18" /><circle cx="229.67" cy="83.36" r="0.04" fill="hsl(0,0%,45%)" opacity="0.18" /><circle cx="697.27" cy="56.24" r="0.36" fill="hsl(0,0%,45%)" opacity="0.18" /><circle cx="500.02" cy="66.59" r="0.47" fill="hsl(130,22%,34%)" opacity="0.18" /><circle cx="706.03" cy="128.44" r="1.02" fill="hsl(0,0%,45%)" opacity="0.18" /><circle cx="69.63" cy="58.85" r="0.76" fill="hsl(268,32%,38%)" opacity="0.18" /><circle cx="558.36" cy="85.07" r="0.44" fill="hsl(15,35%,40%)" opacity="0.18" /><circle cx="785.53" cy="111.59" r="1.36" fill="hsl(0,0%,45%)" opacity="0.18" /><circle cx="441.37" cy="105.26" r="0.75" fill="hsl(200,45%,35%)" opacity="0.18" /><circle cx="248.20" cy="69.69" r="1.41" fill="hsl(200,45%,35%)" opacity="0.18" /><circle cx="337.78" cy="136.97" r="1.14" fill="hsl(15,35%,40%)" opacity="0.18" /><circle cx="804.16" cy="39.52" r="0.03" fill="hsl(130,22%,34%)" opacity="0.18" /><circle cx="199.00" cy="44.11" r="0.43" fill="hsl(15,35%,40%)" opacity="0.18" /><circle cx="839.67" cy="46.21" r="0.71" fill="hsl(0,0%,45%)" opacity="0.18" /><circle cx="599.41" cy="71.59" r="1.41" fill="hsl(15,35%,40%)" opacity="0.18" /><circle cx="212.73" cy="46.27" r="1.47" fill="hsl(200,45%,35%)" opacity="0.18" /><circle cx="416.84" cy="72.45" r="1.49" fill="hsl(0,0%,45%)" opacity="0.18" /><circle cx="218.79" cy="32.16" r="0.04" fill="hsl(0,0%,45%)" opacity="0.18" /><circle cx="51.34" cy="57.44" r="0.69" fill="hsl(0,0%,45%)" opacity="0.18" /><circle cx="107.81" cy="120.70" r="0.12" fill="hsl(130,22%,34%)" opacity="0.18" /><circle cx="698.85" cy="40.82" r="0.52" fill="hsl(0,0%,45%)" opacity="0.18" /><circle cx="99.28" cy="51.92" r="0.63" fill="hsl(0,0%,45%)" opacity="0.18" /><circle cx="301.14" cy="119.25" r="1.29" fill="hsl(0,0%,45%)" opacity="0.18" /><circle cx="432.56" cy="114.16" r="1.00" fill="hsl(0,0%,45%)" opacity="0.18" /><circle cx="687.90" cy="117.70" r="1.48" fill="hsl(0,0%,45%)" opacity="0.18" /><circle cx="473.13" cy="129.33" r="0.05" fill="hsl(0,0%,45%)" opacity="0.18" /><circle cx="47.84" cy="122.06" r="0.64" fill="hsl(15,35%,40%)" opacity="0.18" /><circle cx="404.11" cy="131.53" r="0.58" fill="hsl(0,0%,45%)" opacity="0.18" /><circle cx="110.34" cy="122.43" r="1.17" fill="hsl(0,0%,45%)" opacity="0.18" /><circle cx="228.49" cy="119.97" r="0.15" fill="hsl(0,0%,45%)" opacity="0.18" /><circle cx="380.86" cy="58.40" r="1.43" fill="hsl(0,0%,45%)" opacity="0.18" /><circle cx="392.73" cy="85.44" r="0.25" fill="hsl(200,45%,35%)" opacity="0.18" /><circle cx="290.39" cy="123.57" r="0.01" fill="hsl(0,0%,45%)" opacity="0.18" /><circle cx="394.29" cy="67.20" r="0.10" fill="hsl(0,0%,45%)" opacity="0.18" /><circle cx="74.71" cy="112.94" r="0.51" fill="hsl(200,45%,35%)" opacity="0.18" /><circle cx="704.43" cy="66.82" r="1.33" fill="hsl(0,0%,45%)" opacity="0.18" /><circle cx="283.56" cy="40.62" r="1.31" fill="hsl(130,22%,34%)" opacity="0.18" /><circle cx="799.73" cy="126.98" r="1.05" fill="hsl(0,0%,45%)" opacity="0.18" /><circle cx="113.14" cy="30.28" r="1.18" fill="hsl(0,0%,45%)" opacity="0.18" /><circle cx="258.23" cy="84.31" r="0.12" fill="hsl(0,0%,45%)" opacity="0.18" /><circle cx="95.83" cy="128.93" r="0.40" fill="hsl(0,0%,45%)" opacity="0.18" /><circle cx="96.67" cy="134.33" r="0.46" fill="hsl(0,0%,45%)" opacity="0.18" /><circle cx="104.82" cy="129.54" r="0.56" fill="hsl(0,0%,45%)" opacity="0.18" /><circle cx="771.72" cy="75.12" r="0.07" fill="hsl(0,0%,45%)" opacity="0.18" /><circle cx="184.81" cy="123.90" r="0.22" fill="hsl(0,0%,45%)" opacity="0.18" /><circle cx="739.03" cy="51.78" r="0.89" fill="hsl(0,0%,45%)" opacity="0.18" /><circle cx="775.64" cy="136.80" r="1.23" fill="hsl(0,0%,45%)" opacity="0.18" /><circle cx="511.96" cy="58.95" r="0.89" fill="hsl(0,0%,45%)" opacity="0.18" /><circle cx="698.36" cy="81.89" r="0.23" fill="hsl(0,0%,45%)" opacity="0.18" /><circle cx="814.97" cy="126.57" r="1.29" fill="hsl(0,0%,45%)" opacity="0.18" /><circle cx="450.72" cy="135.66" r="1.23" fill="hsl(0,0%,45%)" opacity="0.18" /><circle cx="265.52" cy="77.02" r="1.23" fill="hsl(0,0%,45%)" opacity="0.18" /><circle cx="458.55" cy="63.36" r="0.30" fill="hsl(0,0%,45%)" opacity="0.18" /><circle cx="593.47" cy="119.14" r="0.52" fill="hsl(0,0%,45%)" opacity="0.18" /><circle cx="640.81" cy="38.68" r="0.96" fill="hsl(0,0%,45%)" opacity="0.18" /><circle cx="516.77" cy="113.92" r="0.18" fill="hsl(0,0%,45%)" opacity="0.18" /><circle cx="449.24" cy="126.95" r="0.53" fill="hsl(0,0%,45%)" opacity="0.18" /><circle cx="100.58" cy="132.28" r="0.36" fill="hsl(0,0%,45%)" opacity="0.18" /><circle cx="430.39" cy="129.44" r="0.38" fill="hsl(0,0%,45%)" opacity="0.18" /><circle cx="248.35" cy="82.50" r="1.40" fill="hsl(0,0%,45%)" opacity="0.18" /><circle cx="138.54" cy="86.93" r="0.61" fill="hsl(0,0%,45%)" opacity="0.18" /><circle cx="118.75" cy="44.64" r="0.88" fill="hsl(268,32%,38%)" opacity="0.18" /><circle cx="459.23" cy="77.59" r="0.72" fill="hsl(0,0%,45%)" opacity="0.18" /><circle cx="519.87" cy="60.47" r="0.21" fill="hsl(0,0%,45%)" opacity="0.18" /><circle cx="631.02" cy="76.85" r="1.25" fill="hsl(0,0%,45%)" opacity="0.18" /><circle cx="618.12" cy="37.27" r="0.77" fill="hsl(0,0%,45%)" opacity="0.18" /><circle cx="724.77" cy="124.52" r="0.62" fill="hsl(0,0%,45%)" opacity="0.18" /><circle cx="550.33" cy="44.84" r="0.12" fill="hsl(0,0%,45%)" opacity="0.18" /><circle cx="832.68" cy="30.66" r="0.44" fill="hsl(0,0%,45%)" opacity="0.18" /><circle cx="114.61" cy="66.67" r="1.31" fill="hsl(0,0%,45%)" opacity="0.18" /><circle cx="642.69" cy="117.15" r="0.88" fill="hsl(0,0%,45%)" opacity="0.18" /><circle cx="83.81" cy="108.45" r="1.11" fill="hsl(130,22%,34%)" opacity="0.18" /><circle cx="21.51" cy="131.87" r="2.34" fill="hsl(214,63%,66%)" opacity="0.80" /><circle cx="38.54" cy="99.29" r="2.56" fill="hsl(214,66%,71%)" opacity="0.85" /><circle cx="46.72" cy="36.21" r="2.34" fill="hsl(214,63%,66%)" opacity="0.80" /><circle cx="50.64" cy="56.26" r="2.56" fill="hsl(214,66%,71%)" opacity="0.85" /><circle cx="53.51" cy="86.00" r="2.56" fill="hsl(214,66%,71%)" opacity="0.85" /><circle cx="50.46" cy="97.91" r="2.56" fill="hsl(214,66%,71%)" opacity="0.85" /><g transform="rotate(17.7 50.46 97.91)"><line x1="43.29" y1="97.91" x2="57.63" y2="97.91" stroke="hsl(214,66%,71%)" stroke-width="0.60" opacity="0.85" /><line x1="50.46" y1="90.74" x2="50.46" y2="105.08" stroke="hsl(214,66%,71%)" stroke-width="0.60" opacity="0.85" /><line x1="48.18" y1="95.63" x2="52.74" y2="100.19" stroke="hsl(214,66%,71%)" stroke-width="0.40" stroke-opacity="0.30" stroke-linecap="round" /><line x1="48.18" y1="100.19" x2="52.74" y2="95.63" stroke="hsl(214,66%,71%)" stroke-width="0.40" stroke-opacity="0.30" stroke-linecap="round" /></g><circle cx="63.00" cy="53.32" r="2.34" fill="hsl(214,63%,66%)" opacity="0.80" /><circle cx="68.43" cy="85.39" r="2.56" fill="hsl(214,66%,71%)" opacity="0.85" /><circle cx="67.06" cy="99.89" r="2.12" fill="hsl(214,60%,60%)" opacity="0.75" /><circle cx="81.16" cy="53.91" r="2.12" fill="hsl(214,60%,60%)" opacity="0.75" /><circle cx="79.14" cy="96.61" r="2.12" fill="hsl(214,60%,60%)" opacity="0.75" /><circle cx="80.77" cy="134.17" r="2.12" fill="hsl(214,60%,60%)" opacity="0.75" /><circle cx="94.46" cy="39.76" r="2.56" fill="hsl(214,66%,71%)" opacity="0.85" /><circle cx="98.07" cy="101.81" r="2.34" fill="hsl(214,63%,66%)" opacity="0.80" /><circle cx="97.46" cy="135.87" r="2.12" fill="hsl(214,60%,60%)" opacity="0.75" /><circle cx="115.29" cy="34.25" r="2.34" fill="hsl(214,63%,66%)" opacity="0.80" /><circle cx="117.89" cy="67.65" r="2.34" fill="hsl(214,63%,66%)" opacity="0.80" /><circle cx="110.30" cy="79.37" r="2.12" fill="hsl(214,60%,60%)" opacity="0.75" /><circle cx="130.31" cy="36.49" r="2.34" fill="hsl(214,63%,66%)" opacity="0.80" /><circle cx="128.68" cy="81.23" r="2.56" fill="hsl(214,66%,71%)" opacity="0.85" /><circle cx="134.78" cy="102.56" r="2.56" fill="hsl(214,66%,71%)" opacity="0.85" /><circle cx="133.12" cy="116.28" r="2.34" fill="hsl(214,63%,66%)" opacity="0.80" /><circle cx="125.49" cy="129.57" r="2.34" fill="hsl(214,63%,66%)" opacity="0.80" /><circle cx="150.88" cy="31.11" r="2.56" fill="hsl(214,66%,71%)" opacity="0.85" /><circle cx="146.70" cy="87.17" r="2.34" fill="hsl(214,63%,66%)" opacity="0.80" /><circle cx="146.51" cy="101.92" r="2.12" fill="hsl(214,60%,60%)" opacity="0.75" /><circle cx="150.96" cy="118.73" r="2.56" fill="hsl(214,66%,71%)" opacity="0.85" /><circle cx="149.73" cy="130.84" r="2.12" fill="hsl(214,60%,60%)" opacity="0.75" /><circle cx="161.86" cy="65.69" r="2.34" fill="hsl(214,63%,66%)" opacity="0.80" /><circle cx="175.34" cy="83.80" r="2.56" fill="hsl(214,66%,71%)" opacity="0.85" /><g transform="rotate(-21.6 175.34 83.80)"><line x1="168.17" y1="83.80" x2="182.50" y2="83.80" stroke="hsl(214,66%,71%)" stroke-width="0.60" opacity="0.85" /><line x1="175.34" y1="76.63" x2="175.34" y2="90.97" stroke="hsl(214,66%,71%)" stroke-width="0.60" opacity="0.85" /><line x1="173.06" y1="81.52" x2="177.62" y2="86.08" stroke="hsl(214,66%,71%)" stroke-width="0.40" stroke-opacity="0.30" stroke-linecap="round" /><line x1="173.06" y1="86.08" x2="177.62" y2="81.52" stroke="hsl(214,66%,71%)" stroke-width="0.40" stroke-opacity="0.30" stroke-linecap="round" /></g><circle cx="197.48" cy="34.38" r="2.34" fill="hsl(214,63%,66%)" opacity="0.80" /><circle cx="197.06" cy="50.73" r="2.34" fill="hsl(214,63%,66%)" opacity="0.80" /><circle cx="190.29" cy="63.72" r="2.34" fill="hsl(214,63%,66%)" opacity="0.80" /><circle cx="198.32" cy="132.22" r="2.34" fill="hsl(214,63%,66%)" opacity="0.80" /><circle cx="210.82" cy="33.79" r="2.34" fill="hsl(214,63%,66%)" opacity="0.80" /><circle cx="221.05" cy="102.13" r="2.12" fill="hsl(214,60%,60%)" opacity="0.75" /><circle cx="242.97" cy="56.56" r="2.34" fill="hsl(214,63%,66%)" opacity="0.80" /><circle cx="242.56" cy="85.13" r="2.12" fill="hsl(214,60%,60%)" opacity="0.75" /><circle cx="246.91" cy="104.78" r="2.56" fill="hsl(214,66%,71%)" opacity="0.85" /><circle cx="245.83" cy="133.83" r="2.12" fill="hsl(214,60%,60%)" opacity="0.75" /><circle cx="257.53" cy="40.33" r="2.34" fill="hsl(214,63%,66%)" opacity="0.80" /><circle cx="256.71" cy="54.30" r="2.56" fill="hsl(214,66%,71%)" opacity="0.85" /><g transform="rotate(-32.6 256.71 54.30)"><line x1="249.55" y1="54.30" x2="263.88" y2="54.30" stroke="hsl(214,66%,71%)" stroke-width="0.60" opacity="0.85" /><line x1="256.71" y1="47.13" x2="256.71" y2="61.47" stroke="hsl(214,66%,71%)" stroke-width="0.60" opacity="0.85" /><line x1="254.43" y1="52.02" x2="258.99" y2="56.58" stroke="hsl(214,66%,71%)" stroke-width="0.40" stroke-opacity="0.30" stroke-linecap="round" /><line x1="254.43" y1="56.58" x2="258.99" y2="52.02" stroke="hsl(214,66%,71%)" stroke-width="0.40" stroke-opacity="0.30" stroke-linecap="round" /></g><circle cx="259.24" cy="66.71" r="2.56" fill="hsl(214,66%,71%)" opacity="0.85" /><circle cx="255.48" cy="100.95" r="2.12" fill="hsl(214,60%,60%)" opacity="0.75" /><circle cx="276.13" cy="68.68" r="2.12" fill="hsl(214,60%,60%)" opacity="0.75" /><circle cx="268.88" cy="95.23" r="2.56" fill="hsl(214,66%,71%)" opacity="0.85" /><circle cx="289.09" cy="52.93" r="2.56" fill="hsl(214,66%,71%)" opacity="0.85" /><g transform="rotate(-32.8 289.09 52.93)"><line x1="281.92" y1="52.93" x2="296.26" y2="52.93" stroke="hsl(214,66%,71%)" stroke-width="0.60" opacity="0.85" /><line x1="289.09" y1="45.76" x2="289.09" y2="60.09" stroke="hsl(214,66%,71%)" stroke-width="0.60" opacity="0.85" /><line x1="286.81" y1="50.65" x2="291.37" y2="55.21" stroke="hsl(214,66%,71%)" stroke-width="0.40" stroke-opacity="0.30" stroke-linecap="round" /><line x1="286.81" y1="55.21" x2="291.37" y2="50.65" stroke="hsl(214,66%,71%)" stroke-width="0.40" stroke-opacity="0.30" stroke-linecap="round" /></g><circle cx="291.98" cy="98.40" r="2.56" fill="hsl(214,66%,71%)" opacity="0.85" /><circle cx="287.27" cy="112.42" r="2.34" fill="hsl(214,63%,66%)" opacity="0.80" /><circle cx="294.87" cy="127.10" r="2.56" fill="hsl(214,66%,71%)" opacity="0.85" /><circle cx="307.30" cy="66.11" r="2.34" fill="hsl(214,63%,66%)" opacity="0.80" /><circle cx="302.65" cy="126.94" r="2.12" fill="hsl(214,60%,60%)" opacity="0.75" /><circle cx="321.67" cy="87.24" r="2.34" fill="hsl(214,63%,66%)" opacity="0.80" /><circle cx="342.10" cy="71.94" r="2.34" fill="hsl(214,63%,66%)" opacity="0.80" /><circle cx="336.69" cy="98.32" r="2.56" fill="hsl(214,66%,71%)" opacity="0.85" /><circle cx="335.32" cy="116.92" r="2.34" fill="hsl(214,63%,66%)" opacity="0.80" /><circle cx="350.09" cy="104.59" r="2.34" fill="hsl(214,63%,66%)" opacity="0.80" /><circle cx="349.55" cy="117.23" r="2.12" fill="hsl(214,60%,60%)" opacity="0.75" /><circle cx="368.92" cy="31.42" r="2.56" fill="hsl(214,66%,71%)" opacity="0.85" /><circle cx="366.83" cy="69.94" r="2.56" fill="hsl(214,66%,71%)" opacity="0.85" /><circle cx="371.36" cy="127.81" r="2.12" fill="hsl(214,60%,60%)" opacity="0.75" /><circle cx="382.98" cy="63.22" r="2.56" fill="hsl(214,66%,71%)" opacity="0.85" /><circle cx="387.03" cy="117.62" r="2.34" fill="hsl(214,63%,66%)" opacity="0.80" /><circle cx="387.89" cy="133.27" r="2.34" fill="hsl(214,63%,66%)" opacity="0.80" /><circle cx="401.24" cy="31.93" r="2.34" fill="hsl(214,63%,66%)" opacity="0.80" /><circle cx="403.09" cy="53.11" r="2.12" fill="hsl(214,60%,60%)" opacity="0.75" /><circle cx="403.53" cy="85.52" r="2.12" fill="hsl(214,60%,60%)" opacity="0.75" /><circle cx="416.31" cy="117.46" r="2.12" fill="hsl(214,60%,60%)" opacity="0.75" /><circle cx="435.01" cy="40.93" r="2.12" fill="hsl(214,60%,60%)" opacity="0.75" /><circle cx="431.87" cy="53.84" r="2.12" fill="hsl(214,60%,60%)" opacity="0.75" /><circle cx="436.98" cy="68.62" r="2.56" fill="hsl(214,66%,71%)" opacity="0.85" /><circle cx="434.97" cy="84.09" r="2.34" fill="hsl(214,63%,66%)" opacity="0.80" /><circle cx="433.81" cy="134.22" r="2.56" fill="hsl(214,66%,71%)" opacity="0.85" /><circle cx="453.32" cy="34.62" r="2.56" fill="hsl(214,66%,71%)" opacity="0.85" /><g transform="rotate(-39.7 453.32 34.62)"><line x1="446.16" y1="34.62" x2="460.49" y2="34.62" stroke="hsl(214,66%,71%)" stroke-width="0.60" opacity="0.85" /><line x1="453.32" y1="27.45" x2="453.32" y2="41.79" stroke="hsl(214,66%,71%)" stroke-width="0.60" opacity="0.85" /><line x1="451.04" y1="32.34" x2="455.60" y2="36.90" stroke="hsl(214,66%,71%)" stroke-width="0.40" stroke-opacity="0.30" stroke-linecap="round" /><line x1="451.04" y1="36.90" x2="455.60" y2="32.34" stroke="hsl(214,66%,71%)" stroke-width="0.40" stroke-opacity="0.30" stroke-linecap="round" /></g><circle cx="451.29" cy="84.13" r="2.34" fill="hsl(214,63%,66%)" opacity="0.80" /><circle cx="447.37" cy="112.10" r="2.12" fill="hsl(214,60%,60%)" opacity="0.75" /><circle cx="462.89" cy="47.76" r="2.12" fill="hsl(214,60%,60%)" opacity="0.75" /><circle cx="464.50" cy="115.89" r="2.34" fill="hsl(214,63%,66%)" opacity="0.80" /><circle cx="482.27" cy="87.47" r="2.34" fill="hsl(214,63%,66%)" opacity="0.80" /><circle cx="485.34" cy="102.95" r="2.56" fill="hsl(214,66%,71%)" opacity="0.85" /><circle cx="479.31" cy="119.14" r="2.12" fill="hsl(214,60%,60%)" opacity="0.75" /><circle cx="501.11" cy="119.68" r="2.12" fill="hsl(214,60%,60%)" opacity="0.75" /><circle cx="511.03" cy="37.81" r="2.56" fill="hsl(214,66%,71%)" opacity="0.85" /><g transform="rotate(25.1 511.03 37.81)"><line x1="503.86" y1="37.81" x2="518.20" y2="37.81" stroke="hsl(214,66%,71%)" stroke-width="0.60" opacity="0.85" /><line x1="511.03" y1="30.64" x2="511.03" y2="44.98" stroke="hsl(214,66%,71%)" stroke-width="0.60" opacity="0.85" /><line x1="508.75" y1="35.53" x2="513.31" y2="40.09" stroke="hsl(214,66%,71%)" stroke-width="0.40" stroke-opacity="0.30" stroke-linecap="round" /><line x1="508.75" y1="40.09" x2="513.31" y2="35.53" stroke="hsl(214,66%,71%)" stroke-width="0.40" stroke-opacity="0.30" stroke-linecap="round" /></g><circle cx="512.40" cy="66.26" r="2.12" fill="hsl(214,60%,60%)" opacity="0.75" /><circle cx="512.28" cy="80.62" r="2.12" fill="hsl(214,60%,60%)" opacity="0.75" /><circle cx="517.09" cy="103.46" r="2.56" fill="hsl(214,66%,71%)" opacity="0.85" /><circle cx="511.54" cy="115.10" r="2.56" fill="hsl(214,66%,71%)" opacity="0.85" /><g transform="rotate(41.4 511.54 115.10)"><line x1="504.37" y1="115.10" x2="518.71" y2="115.10" stroke="hsl(214,66%,71%)" stroke-width="0.60" opacity="0.85" /><line x1="511.54" y1="107.93" x2="511.54" y2="122.27" stroke="hsl(214,66%,71%)" stroke-width="0.60" opacity="0.85" /><line x1="509.26" y1="112.82" x2="513.82" y2="117.38" stroke="hsl(214,66%,71%)" stroke-width="0.40" stroke-opacity="0.30" stroke-linecap="round" /><line x1="509.26" y1="117.38" x2="513.82" y2="112.82" stroke="hsl(214,66%,71%)" stroke-width="0.40" stroke-opacity="0.30" stroke-linecap="round" /></g><circle cx="528.98" cy="55.39" r="2.12" fill="hsl(214,60%,60%)" opacity="0.75" /><circle cx="534.86" cy="132.36" r="2.34" fill="hsl(214,63%,66%)" opacity="0.80" /><circle cx="544.36" cy="68.24" r="2.56" fill="hsl(214,66%,71%)" opacity="0.85" /><circle cx="548.49" cy="80.24" r="2.12" fill="hsl(214,60%,60%)" opacity="0.75" /><circle cx="560.62" cy="66.16" r="2.12" fill="hsl(214,60%,60%)" opacity="0.75" /><circle cx="562.63" cy="115.04" r="2.34" fill="hsl(214,63%,66%)" opacity="0.80" /><circle cx="565.32" cy="133.25" r="2.12" fill="hsl(214,60%,60%)" opacity="0.75" /><circle cx="577.83" cy="68.49" r="2.34" fill="hsl(214,63%,66%)" opacity="0.80" /><circle cx="576.10" cy="83.14" r="2.34" fill="hsl(214,63%,66%)" opacity="0.80" /><circle cx="573.01" cy="100.28" r="2.12" fill="hsl(214,60%,60%)" opacity="0.75" /><circle cx="579.07" cy="127.45" r="2.34" fill="hsl(214,63%,66%)" opacity="0.80" /><circle cx="592.28" cy="35.82" r="2.34" fill="hsl(214,63%,66%)" opacity="0.80" /><circle cx="596.45" cy="81.81" r="2.12" fill="hsl(214,60%,60%)" opacity="0.75" /><circle cx="606.83" cy="54.34" r="2.12" fill="hsl(214,60%,60%)" opacity="0.75" /><circle cx="609.03" cy="70.61" r="2.34" fill="hsl(214,63%,66%)" opacity="0.80" /><circle cx="614.57" cy="83.02" r="2.34" fill="hsl(214,63%,66%)" opacity="0.80" /><circle cx="610.85" cy="105.11" r="2.56" fill="hsl(214,66%,71%)" opacity="0.85" /><circle cx="614.49" cy="133.10" r="2.56" fill="hsl(214,66%,71%)" opacity="0.85" /><circle cx="623.06" cy="32.78" r="2.56" fill="hsl(214,66%,71%)" opacity="0.85" /><circle cx="625.52" cy="79.33" r="2.56" fill="hsl(214,66%,71%)" opacity="0.85" /><g transform="rotate(-36.5 625.52 79.33)"><line x1="618.35" y1="79.33" x2="632.69" y2="79.33" stroke="hsl(214,66%,71%)" stroke-width="0.60" opacity="0.85" /><line x1="625.52" y1="72.16" x2="625.52" y2="86.50" stroke="hsl(214,66%,71%)" stroke-width="0.60" opacity="0.85" /><line x1="623.24" y1="77.05" x2="627.80" y2="81.61" stroke="hsl(214,66%,71%)" stroke-width="0.40" stroke-opacity="0.30" stroke-linecap="round" /><line x1="623.24" y1="81.61" x2="627.80" y2="77.05" stroke="hsl(214,66%,71%)" stroke-width="0.40" stroke-opacity="0.30" stroke-linecap="round" /></g><circle cx="625.69" cy="117.56" r="2.12" fill="hsl(214,60%,60%)" opacity="0.75" /><circle cx="646.67" cy="52.70" r="2.56" fill="hsl(214,66%,71%)" opacity="0.85" /><circle cx="638.38" cy="89.07" r="2.34" fill="hsl(214,63%,66%)" opacity="0.80" /><circle cx="637.97" cy="121.01" r="2.56" fill="hsl(214,66%,71%)" opacity="0.85" /><g transform="rotate(-2.6 637.97 121.01)"><line x1="630.81" y1="121.01" x2="645.14" y2="121.01" stroke="hsl(214,66%,71%)" stroke-width="0.60" opacity="0.85" /><line x1="637.97" y1="113.84" x2="637.97" y2="128.18" stroke="hsl(214,66%,71%)" stroke-width="0.60" opacity="0.85" /><line x1="635.69" y1="118.73" x2="640.25" y2="123.29" stroke="hsl(214,66%,71%)" stroke-width="0.40" stroke-opacity="0.30" stroke-linecap="round" /><line x1="635.69" y1="123.29" x2="640.25" y2="118.73" stroke="hsl(214,66%,71%)" stroke-width="0.40" stroke-opacity="0.30" stroke-linecap="round" /></g><circle cx="638.60" cy="136.37" r="2.12" fill="hsl(214,60%,60%)" opacity="0.75" /><circle cx="660.69" cy="68.08" r="2.12" fill="hsl(214,60%,60%)" opacity="0.75" /><circle cx="660.55" cy="80.77" r="2.34" fill="hsl(214,63%,66%)" opacity="0.80" /><circle cx="676.55" cy="112.62" r="2.12" fill="hsl(214,60%,60%)" opacity="0.75" /><circle cx="686.23" cy="37.25" r="2.56" fill="hsl(214,66%,71%)" opacity="0.85" /><circle cx="686.46" cy="133.69" r="2.56" fill="hsl(214,66%,71%)" opacity="0.85" /><circle cx="710.28" cy="40.06" r="2.12" fill="hsl(214,60%,60%)" opacity="0.75" /><circle cx="704.58" cy="133.41" r="2.12" fill="hsl(214,60%,60%)" opacity="0.75" /><circle cx="723.42" cy="47.17" r="2.56" fill="hsl(214,66%,71%)" opacity="0.85" /><g transform="rotate(38.5 723.42 47.17)"><line x1="716.25" y1="47.17" x2="730.59" y2="47.17" stroke="hsl(214,66%,71%)" stroke-width="0.60" opacity="0.85" /><line x1="723.42" y1="40.00" x2="723.42" y2="54.34" stroke="hsl(214,66%,71%)" stroke-width="0.60" opacity="0.85" /><line x1="721.14" y1="44.89" x2="725.70" y2="49.45" stroke="hsl(214,66%,71%)" stroke-width="0.40" stroke-opacity="0.30" stroke-linecap="round" /><line x1="721.14" y1="49.45" x2="725.70" y2="44.89" stroke="hsl(214,66%,71%)" stroke-width="0.40" stroke-opacity="0.30" stroke-linecap="round" /></g><circle cx="724.92" cy="65.34" r="2.56" fill="hsl(214,66%,71%)" opacity="0.85" /><g transform="rotate(-22.1 724.92 65.34)"><line x1="717.75" y1="65.34" x2="732.09" y2="65.34" stroke="hsl(214,66%,71%)" stroke-width="0.60" opacity="0.85" /><line x1="724.92" y1="58.17" x2="724.92" y2="72.51" stroke="hsl(214,66%,71%)" stroke-width="0.60" opacity="0.85" /><line x1="722.64" y1="63.06" x2="727.20" y2="67.62" stroke="hsl(214,66%,71%)" stroke-width="0.40" stroke-opacity="0.30" stroke-linecap="round" /><line x1="722.64" y1="67.62" x2="727.20" y2="63.06" stroke="hsl(214,66%,71%)" stroke-width="0.40" stroke-opacity="0.30" stroke-linecap="round" /></g><circle cx="717.45" cy="132.53" r="2.34" fill="hsl(214,63%,66%)" opacity="0.80" /><circle cx="743.03" cy="53.86" r="2.34" fill="hsl(214,63%,66%)" opacity="0.80" /><circle cx="733.15" cy="65.76" r="2.12" fill="hsl(214,60%,60%)" opacity="0.75" /><circle cx="741.22" cy="102.66" r="2.34" fill="hsl(214,63%,66%)" opacity="0.80" /><circle cx="738.58" cy="130.16" r="2.34" fill="hsl(214,63%,66%)" opacity="0.80" /><circle cx="750.50" cy="48.64" r="2.56" fill="hsl(214,66%,71%)" opacity="0.85" /><circle cx="749.46" cy="69.05" r="2.56" fill="hsl(214,66%,71%)" opacity="0.85" /><circle cx="773.19" cy="84.39" r="2.56" fill="hsl(214,66%,71%)" opacity="0.85" /><g transform="rotate(19.3 773.19 84.39)"><line x1="766.02" y1="84.39" x2="780.36" y2="84.39" stroke="hsl(214,66%,71%)" stroke-width="0.60" opacity="0.85" /><line x1="773.19" y1="77.22" x2="773.19" y2="91.56" stroke="hsl(214,66%,71%)" stroke-width="0.60" opacity="0.85" /><line x1="770.91" y1="82.11" x2="775.47" y2="86.67" stroke="hsl(214,66%,71%)" stroke-width="0.40" stroke-opacity="0.30" stroke-linecap="round" /><line x1="770.91" y1="86.67" x2="775.47" y2="82.11" stroke="hsl(214,66%,71%)" stroke-width="0.40" stroke-opacity="0.30" stroke-linecap="round" /></g><circle cx="771.78" cy="101.21" r="2.12" fill="hsl(214,60%,60%)" opacity="0.75" /><circle cx="773.87" cy="129.49" r="2.56" fill="hsl(214,66%,71%)" opacity="0.85" /><g transform="rotate(6.6 773.87 129.49)"><line x1="766.70" y1="129.49" x2="781.03" y2="129.49" stroke="hsl(214,66%,71%)" stroke-width="0.60" opacity="0.85" /><line x1="773.87" y1="122.32" x2="773.87" y2="136.66" stroke="hsl(214,66%,71%)" stroke-width="0.60" opacity="0.85" /><line x1="771.59" y1="127.21" x2="776.15" y2="131.77" stroke="hsl(214,66%,71%)" stroke-width="0.40" stroke-opacity="0.30" stroke-linecap="round" /><line x1="771.59" y1="131.77" x2="776.15" y2="127.21" stroke="hsl(214,66%,71%)" stroke-width="0.40" stroke-opacity="0.30" stroke-linecap="round" /></g><circle cx="790.03" cy="118.32" r="2.56" fill="hsl(214,66%,71%)" opacity="0.85" /><circle cx="803.85" cy="116.26" r="2.56" fill="hsl(214,66%,71%)" opacity="0.85" /><circle cx="822.51" cy="72.57" r="2.34" fill="hsl(214,63%,66%)" opacity="0.80" /><circle cx="819.72" cy="98.84" r="2.56" fill="hsl(214,66%,71%)" opacity="0.85" /><circle cx="814.84" cy="115.39" r="2.56" fill="hsl(214,66%,71%)" opacity="0.85" /><g transform="rotate(42.7 814.84 115.39)"><line x1="807.67" y1="115.39" x2="822.01" y2="115.39" stroke="hsl(214,66%,71%)" stroke-width="0.60" opacity="0.85" /><line x1="814.84" y1="108.22" x2="814.84" y2="122.56" stroke="hsl(214,66%,71%)" stroke-width="0.60" opacity="0.85" /><line x1="812.56" y1="113.11" x2="817.12" y2="117.67" stroke="hsl(214,66%,71%)" stroke-width="0.40" stroke-opacity="0.30" stroke-linecap="round" /><line x1="812.56" y1="117.67" x2="817.12" y2="113.11" stroke="hsl(214,66%,71%)" stroke-width="0.40" stroke-opacity="0.30" stroke-linecap="round" /></g><circle cx="832.53" cy="50.56" r="2.56" fill="hsl(214,66%,71%)" opacity="0.85" /><circle cx="834.69" cy="86.21" r="2.12" fill="hsl(214,60%,60%)" opacity="0.75" /><circle cx="830.97" cy="118.60" r="2.12" fill="hsl(214,60%,60%)" opacity="0.75" /><circle cx="849.77" cy="80.26" r="2.34" fill="hsl(214,63%,66%)" opacity="0.80" /><circle cx="853.45" cy="101.09" r="2.12" fill="hsl(214,60%,60%)" opacity="0.75" /><circle cx="849.80" cy="116.61" r="2.34" fill="hsl(214,63%,66%)" opacity="0.80" /><circle cx="849.55" cy="127.75" r="2.34" fill="hsl(214,63%,66%)" opacity="0.80" /><path d="M 80.23,67.95 L 209.45,131.85 L 354.86,81.58 L 501.67,40.22 L 626.14,95.18 L 774.56,51.37" fill="none" stroke="rgba(10,20,40,0.18)" stroke-width="1.00" stroke-linejoin="round" /><g transform="rotate(4.2 80.23 67.95)"><circle cx="80.23" cy="67.95" r="5.90" fill="hsla(36,85%,55%,0.3)" fill-opacity="0.35" /><line x1="77.37" y1="65.09" x2="83.10" y2="70.81" stroke="hsl(48,100%,92%)" stroke-width="0.40" stroke-opacity="0.42" stroke-linecap="round" /><line x1="77.37" y1="70.81" x2="83.10" y2="65.09" stroke="hsl(48,100%,92%)" stroke-width="0.40" stroke-opacity="0.42" stroke-linecap="round" /><line x1="71.23" y1="67.95" x2="89.23" y2="67.95" stroke="hsl(48,100%,92%)" stroke-width="0.50" stroke-linecap="round" /><line x1="80.23" y1="58.95" x2="80.23" y2="76.95" stroke="hsl(48,100%,92%)" stroke-width="0.50" stroke-linecap="round" /><circle cx="80.23" cy="67.95" r="1.38" fill="hsl(48,100%,92%)" /></g><g transform="rotate(-0.1 209.45 131.85)"><circle cx="209.45" cy="131.85" r="5.90" fill="hsla(36,85%,55%,0.3)" fill-opacity="0.35" /><line x1="206.58" y1="128.98" x2="212.31" y2="134.71" stroke="hsl(48,100%,92%)" stroke-width="0.40" stroke-opacity="0.42" stroke-linecap="round" /><line x1="206.58" y1="134.71" x2="212.31" y2="128.98" stroke="hsl(48,100%,92%)" stroke-width="0.40" stroke-opacity="0.42" stroke-linecap="round" /><line x1="200.45" y1="131.85" x2="218.45" y2="131.85" stroke="hsl(48,100%,92%)" stroke-width="0.50" stroke-linecap="round" /><line x1="209.45" y1="122.85" x2="209.45" y2="140.85" stroke="hsl(48,100%,92%)" stroke-width="0.50" stroke-linecap="round" /><circle cx="209.45" cy="131.85" r="1.38" fill="hsl(48,100%,92%)" /></g><g transform="rotate(31.0 354.86 81.58)"><circle cx="354.86" cy="81.58" r="5.90" fill="hsla(36,85%,55%,0.3)" fill-opacity="0.35" /><line x1="352.00" y1="78.72" x2="357.73" y2="84.45" stroke="hsl(48,100%,92%)" stroke-width="0.40" stroke-opacity="0.42" stroke-linecap="round" /><line x1="352.00" y1="84.45" x2="357.73" y2="78.72" stroke="hsl(48,100%,92%)" stroke-width="0.40" stroke-opacity="0.42" stroke-linecap="round" /><line x1="345.86" y1="81.58" x2="363.86" y2="81.58" stroke="hsl(48,100%,92%)" stroke-width="0.50" stroke-linecap="round" /><line x1="354.86" y1="72.58" x2="354.86" y2="90.58" stroke="hsl(48,100%,92%)" stroke-width="0.50" stroke-linecap="round" /><circle cx="354.86" cy="81.58" r="1.38" fill="hsl(48,100%,92%)" /></g><g transform="rotate(31.9 501.67 40.22)"><circle cx="501.67" cy="40.22" r="5.90" fill="hsla(36,85%,55%,0.3)" fill-opacity="0.35" /><line x1="498.81" y1="37.35" x2="504.53" y2="43.08" stroke="hsl(48,100%,92%)" stroke-width="0.40" stroke-opacity="0.42" stroke-linecap="round" /><line x1="498.81" y1="43.08" x2="504.53" y2="37.35" stroke="hsl(48,100%,92%)" stroke-width="0.40" stroke-opacity="0.42" stroke-linecap="round" /><line x1="492.67" y1="40.22" x2="510.67" y2="40.22" stroke="hsl(48,100%,92%)" stroke-width="0.50" stroke-linecap="round" /><line x1="501.67" y1="31.22" x2="501.67" y2="49.22" stroke="hsl(48,100%,92%)" stroke-width="0.50" stroke-linecap="round" /><circle cx="501.67" cy="40.22" r="1.38" fill="hsl(48,100%,92%)" /></g><g transform="rotate(22.2 626.14 95.18)"><circle cx="626.14" cy="95.18" r="5.90" fill="hsla(36,85%,55%,0.3)" fill-opacity="0.35" /><line x1="623.28" y1="92.32" x2="629.00" y2="98.04" stroke="hsl(48,100%,92%)" stroke-width="0.40" stroke-opacity="0.42" stroke-linecap="round" /><line x1="623.28" y1="98.04" x2="629.00" y2="92.32" stroke="hsl(48,100%,92%)" stroke-width="0.40" stroke-opacity="0.42" stroke-linecap="round" /><line x1="617.14" y1="95.18" x2="635.14" y2="95.18" stroke="hsl(48,100%,92%)" stroke-width="0.50" stroke-linecap="round" /><line x1="626.14" y1="86.18" x2="626.14" y2="104.18" stroke="hsl(48,100%,92%)" stroke-width="0.50" stroke-linecap="round" /><circle cx="626.14" cy="95.18" r="1.38" fill="hsl(48,100%,92%)" /></g><g transform="rotate(-4.2 774.56 51.37)"><circle cx="774.56" cy="51.37" r="5.90" fill="hsla(36,85%,55%,0.3)" fill-opacity="0.35" /><line x1="771.70" y1="48.51" x2="777.43" y2="54.23" stroke="hsl(48,100%,92%)" stroke-width="0.40" stroke-opacity="0.42" stroke-linecap="round" /><line x1="771.70" y1="54.23" x2="777.43" y2="48.51" stroke="hsl(48,100%,92%)" stroke-width="0.40" stroke-opacity="0.42" stroke-linecap="round" /><line x1="765.56" y1="51.37" x2="783.56" y2="51.37" stroke="hsl(48,100%,92%)" stroke-width="0.50" stroke-linecap="round" /><line x1="774.56" y1="42.37" x2="774.56" y2="60.37" stroke="hsl(48,100%,92%)" stroke-width="0.50" stroke-linecap="round" /><circle cx="774.56" cy="51.37" r="1.38" fill="hsl(48,100%,92%)" /></g></svg>