<svg xmlns="http://www.w3.org/2000/svg" viewBox="0 0 896 150" width="896" height="150" role="img" aria-label="Cinematic comet contribution graph"><rect x="0.00" y="0.00" width="896.00" height="150.00" fill="#010209" /><defs><linearGradient id="tail-grad" x1="0" y1="0" x2="1" y2="0"><stop offset="0%" stop-color="#c8e0ff" stop-opacity="0"/><stop offset="40%" stop-color="#c8e0ff" stop-opacity="0.1"/><stop offset="70%" stop-color="#d8ecff" stop-opacity="0.5"/><stop offset="90%" stop-color="#ffffff" stop-opacity="0.85"/><stop offset="100%" stop-color="#ffffff" stop-opacity="0"/></linearGradient><filter id="tail-blur" x="-20%" y="-100%" width="140%" height="300%"><feGaussianBlur stdDeviation="1.2"/></filter><filter id="organic-sphere" x="-80%" y="-80%" width="260%" height="260%"><feTurbulence type="fractalNoise" baseFrequency="0.035" numOctaves="2" seed="7" result="noise" /><feDisplacementMap in="SourceGraphic" in2="noise" scale="4" xChannelSelector="R" yChannelSelector="G" result="displaced" /><feGaussianBlur in="displaced" stdDeviation="1.4" /></filter></defs><text x="22.00" y="55.00" font-family="monospace" font-size="10.00" fill="rgba(122,172,216,0.75)" text-anchor="end">Mon</text><text x="22.00" y="87.00" font-family="monospace" font-size="10.00" fill="rgba(122,172,216,0.75)" text-anchor="end">Wed</text><text x="22.00" y="119.00" font-family="monospace" font-size="10.00" fill="rgba(122,172,216,0.75)" text-anchor="end">Fri</text><text x="38.00" y="12.00" font-family="monospace" font-size="10.00" fill="rgba(122,172,216,0.75)">Apr</text><text x="70.00" y="12.00" font-family="monospace" font-size="10.00" fill="rgba(122,172,216,0.75)">May</text><text x="134.00" y="12.00" font-family="monospace" font-size="10.00" fill="rgba(122,172,216,0.75)">Jun</text><text x="198.00" y="12.00" font-family="monospace" font-size="10.00" fill="rgba(122,172,216,0.75)">Jul</text><text x="262.00" y="12.00" font-family="monospace" font-size="10.00" fill="rgba(122,172,216,0.75)">Aug</text><text x="342.00" y="12.00" font-family="monospace" font-size="10.00" fill="rgba(122,172,216,0.75)">Sep</text><text x="406.00" y="12.00" font-family="monospace" font-size="10.00" fill="rgba(122,172,216,0.75)">Oct</text><text x="470.00" y="12.00" font-family="monospace" font-size="10.00" fill="rgba(122,172,216,0.75)">Nov</text><text x="550.00" y="12.00" font-family="monospace" font-size="10.00" fill="rgba(122,172,216,0.75)">Dec</text><text x="614.00" y="12.00" font-family="monospace" font-size="10.00" fill="rgba(122,172,216,0.75)">Jan</text><text x="694.00" y="12.00" font-family="monospace" font-size="10.00" fill="rgba(122,172,216,0.75)">Feb</text><text x="758.00" y="12.00" font-family="monospace" font-size="10.00" fill="rgba(122,172,216,0.75)">Mar</text><text x="822.00" y="12.00" font-family="monospace" font-size="10.00" fill="rgba(122,172,216,0.75)">Apr</text><circle cx="738.04" cy="34.24" r="0.79" fill="hsl(0,0%,100%)" opacity="0.12" /><circle cx="651.31" cy="48.81" r="0.10" fill="hsl(0,0%,100%)" opacity="0.12" /><circle cx="541.05" cy="133.20" r="0.52" fill="hsl(0,0%,100%)" opacity="0.12" /><circle cx="699.44" cy="110.07" r="0.81" fill="hsl(0,0%,100%)" opacity="0.12" /><circle cx="256.74" cy="29.52" r="0.71" fill="hsl(268,32%,82%)" opacity="0.12" /><circle cx="141.55" cy="77.97" r="0.92" fill="hsl(130,22%,80%)" opacity="0.12" /><circle cx="196.52" cy="71.19" r="1.33" fill="hsl(15,35%,80%)" opacity="0.12" /><circle cx="869.56" cy="39.15" r="0.00" fill="hsl(200,45%,88%)" opacity="0.12" /><circle cx="703.98" cy="28.88" r="1.22" fill="hsl(0,0%,100%)" opacity="0.12" /><circle cx="257.67" cy="83.36" r="0.04" fill="hsl(0,0%,100%)" opacity="0.12" /><circle cx="725.27" cy="56.24" r="0.36" fill="hsl(0,0%,100%)" opacity="0.12" /><circle cx="528.02" cy="66.59" r="0.47" fill="hsl(130,22%,80%)" opacity="0.12" /><circle cx="734.03" cy="128.44" r="1.02" fill="hsl(0,0%,100%)" opacity="0.12" /><circle cx="97.63" cy="58.85" r="0.76" fill="hsl(268,32%,82%)" opacity="0.12" /><circle cx="586.36" cy="85.07" r="0.44" fill="hsl(15,35%,80%)" opacity="0.12" /><circle cx="813.53" cy="111.59" r="1.36" fill="hsl(0,0%,100%)" opacity="0.12" /><circle cx="469.37" cy="105.26" r="0.75" fill="hsl(200,45%,88%)" opacity="0.12" /><circle cx="276.20" cy="69.69" r="1.41" fill="hsl(200,45%,88%)" opacity="0.12" /><circle cx="365.78" cy="136.97" r="1.14" fill="hsl(15,35%,80%)" opacity="0.12" /><circle cx="832.16" cy="39.52" r="0.03" fill="hsl(130,22%,80%)" opacity="0.12" /><circle cx="227.00" cy="44.11" r="0.43" fill="hsl(15,35%,80%)" opacity="0.12" /><circle cx="867.67" cy="46.21" r="0.71" fill="hsl(0,0%,100%)" opacity="0.12" /><circle cx="627.41" cy="71.59" r="1.41" fill="hsl(15,35%,80%)" opacity="0.12" /><circle cx="240.73" cy="46.27" r="1.47" fill="hsl(200,45%,88%)" opacity="0.12" /><circle cx="444.84" cy="72.45" r="1.49" fill="hsl(0,0%,100%)" opacity="0.12" /><circle cx="246.79" cy="32.16" r="0.04" fill="hsl(0,0%,100%)" opacity="0.12" /><circle cx="79.34" cy="57.44" r="0.69" fill="hsl(0,0%,100%)" opacity="0.12" /><circle cx="135.81" cy="120.70" r="0.12" fill="hsl(130,22%,80%)" opacity="0.12" /><circle cx="726.85" cy="40.82" r="0.52" fill="hsl(0,0%,100%)" opacity="0.12" /><circle cx="127.28" cy="51.92" r="0.63" fill="hsl(0,0%,100%)" opacity="0.12" /><circle cx="329.14" cy="119.25" r="1.29" fill="hsl(0,0%,100%)" opacity="0.12" /><circle cx="460.56" cy="114.16" r="1.00" fill="hsl(0,0%,100%)" opacity="0.12" /><circle cx="715.90" cy="117.70" r="1.48" fill="hsl(0,0%,100%)" opacity="0.12" /><circle cx="501.13" cy="129.33" r="0.05" fill="hsl(0,0%,100%)" opacity="0.12" /><circle cx="75.84" cy="122.06" r="0.64" fill="hsl(15,35%,80%)" opacity="0.12" /><circle cx="432.11" cy="131.53" r="0.58" fill="hsl(0,0%,100%)" opacity="0.12" /><circle cx="138.34" cy="122.43" r="1.17" fill="hsl(0,0%,100%)" opacity="0.12" /><circle cx="256.49" cy="119.97" r="0.15" fill="hsl(0,0%,100%)" opacity="0.12" /><circle cx="408.86" cy="58.40" r="1.43" fill="hsl(0,0%,100%)" opacity="0.12" /><circle cx="420.73" cy="85.44" r="0.25" fill="hsl(200,45%,88%)" opacity="0.12" /><circle cx="318.39" cy="123.57" r="0.01" fill="hsl(0,0%,100%)" opacity="0.12" /><circle cx="422.29" cy="67.20" r="0.10" fill="hsl(0,0%,100%)" opacity="0.12" /><circle cx="102.71" cy="112.94" r="0.51" fill="hsl(200,45%,88%)" opacity="0.12" /><circle cx="732.43" cy="66.82" r="1.33" fill="hsl(0,0%,100%)" opacity="0.12" /><circle cx="311.56" cy="40.62" r="1.31" fill="hsl(130,22%,80%)" opacity="0.12" /><circle cx="827.73" cy="126.98" r="1.05" fill="hsl(0,0%,100%)" opacity="0.12" /><circle cx="141.14" cy="30.28" r="1.18" fill="hsl(0,0%,100%)" opacity="0.12" /><circle cx="286.23" cy="84.31" r="0.12" fill="hsl(0,0%,100%)" opacity="0.12" /><circle cx="123.83" cy="128.93" r="0.40" fill="hsl(0,0%,100%)" opacity="0.12" /><circle cx="124.67" cy="134.33" r="0.46" fill="hsl(0,0%,100%)" opacity="0.12" /><circle cx="586.89" cy="88.92" r="2.49" fill="hsl(214,43%,55%)" opacity="0.20" /><circle cx="586.89" cy="88.92" r="1.56" fill="hsl(214.0,66%,63%)" opacity="0.74" /><circle cx="586.55" cy="120.17" r="2.49" fill="hsl(214,43%,55%)" opacity="0.20" /><circle cx="586.55" cy="120.17" r="1.56" fill="hsl(214.0,66%,63%)" opacity="0.74" /><circle cx="617.80" cy="102.85" r="2.29" fill="hsl(214,38%,49%)" opacity="0.18" /><circle cx="617.80" cy="102.85" r="1.41" fill="hsl(214.0,60%,54%)" opacity="0.69" /><circle cx="657.34" cy="88.06" r="2.29" fill="hsl(214,38%,49%)" opacity="0.18" /><circle cx="657.34" cy="88.06" r="1.41" fill="hsl(214.0,60%,54%)" opacity="0.69" /><circle cx="809.13" cy="71.59" r="2.29" fill="hsl(214,38%,49%)" opacity="0.18" /><circle cx="809.13" cy="71.59" r="1.41" fill="hsl(214.0,60%,54%)" opacity="0.69" /><circle cx="826.78" cy="64.69" r="2.29" fill="hsl(214,38%,49%)" opacity="0.18" /><circle cx="826.78" cy="64.69" r="1.41" fill="hsl(214.0,60%,54%)" opacity="0.69" /><circle cx="824.99" cy="87.45" r="2.29" fill="hsl(214,38%,49%)" opacity="0.18" /><circle cx="824.99" cy="87.45" r="1.41" fill="hsl(214.0,60%,54%)" opacity="0.69" /><circle cx="834.74" cy="95.91" r="2.70" fill="hsl(214,48%,62%)" opacity="0.21" /><circle cx="834.74" cy="95.91" r="1.72" fill="hsl(212.5,73%,75%)" opacity="0.79" /><circle cx="850.85" cy="55.67" r="2.77" fill="hsl(214,50%,64%)" opacity="0.22" /><circle cx="850.85" cy="55.67" r="1.77" fill="hsl(208.6,76%,79%)" opacity="0.80" /><circle cx="840.94" cy="64.02" r="2.82" fill="hsl(214,52%,67%)" opacity="0.22" /><circle cx="840.94" cy="64.02" r="1.82" fill="hsl(205.3,78%,82%)" opacity="0.81" /><circle cx="841.47" cy="89.13" r="2.77" fill="hsl(214,50%,64%)" opacity="0.22" /><circle cx="841.47" cy="89.13" r="1.77" fill="hsl(208.6,76%,79%)" opacity="0.80" /><circle cx="850.04" cy="128.32" r="2.82" fill="hsl(214,52%,67%)" opacity="0.22" /><circle cx="850.04" cy="128.32" r="1.82" fill="hsl(205.3,78%,82%)" opacity="0.81" /><circle cx="862.63" cy="36.60" r="2.62" fill="hsl(214,46%,59%)" opacity="0.21" /><circle cx="862.63" cy="36.60" r="1.66" fill="hsl(214.0,70%,70%)" opacity="0.76" /><circle cx="867.19" cy="56.73" r="2.62" fill="hsl(214,46%,59%)" opacity="0.21" /><circle cx="867.19" cy="56.73" r="1.66" fill="hsl(214.0,70%,70%)" opacity="0.76" /><circle cx="866.24" cy="72.97" r="2.77" fill="hsl(214,50%,64%)" opacity="0.22" /><circle cx="866.24" cy="72.97" r="1.77" fill="hsl(208.6,76%,79%)" opacity="0.80" /><circle cx="858.42" cy="111.33" r="2.91" fill="hsl(214,55%,70%)" opacity="0.23" /><circle cx="858.42" cy="111.33" r="1.88" fill="hsl(200.0,82%,88%)" opacity="0.83" /><circle cx="873.26" cy="33.06" r="2.49" fill="hsl(214,43%,55%)" opacity="0.20" /><circle cx="873.26" cy="33.06" r="1.56" fill="hsl(214.0,66%,63%)" opacity="0.74" /><circle cx="877.62" cy="51.59" r="2.82" fill="hsl(214,52%,67%)" opacity="0.22" /><circle cx="877.62" cy="51.59" r="1.82" fill="hsl(205.3,78%,82%)" opacity="0.81" /><circle cx="878.59" cy="67.34" r="2.70" fill="hsl(214,48%,62%)" opacity="0.21" /><circle cx="878.59" cy="67.34" r="1.72" fill="hsl(212.5,73%,75%)" opacity="0.79" /><circle cx="878.48" cy="100.73" r="2.70" fill="hsl(214,48%,62%)" opacity="0.21" /><circle cx="878.48" cy="100.73" r="1.72" fill="hsl(212.5,73%,75%)" opacity="0.79" /><path d="M 825.49,112.30 L 846.54,101.15 L 850.71,110.97 L 866.14,78.90 L 865.28,96.57 L 865.51,134.85 L 881.21,80.19" fill="none" stroke="rgba(255,255,255,0.1)" stroke-width="1.00" stroke-linejoin="round" /><g transform="rotate(-7.2 825.49 112.30)"><circle cx="825.49" cy="112.30" r="3.50" fill="hsla(48,100%,74%,0.35)" fill-opacity="0.35" /><circle cx="825.49" cy="112.30" r="2.10" fill="hsla(50,100%,99%,0.75)" filter="url(#organic-sphere)" /><line x1="823.90" y1="110.70" x2="827.08" y2="113.89" stroke="hsl(48,100%,68.0%)" stroke-width="0.40" stroke-opacity="0.42" stroke-linecap="round" /><line x1="823.90" y1="113.89" x2="827.08" y2="110.70" stroke="hsl(48,100%,68.0%)" stroke-width="0.40" stroke-opacity="0.42" stroke-linecap="round" /><line x1="820.49" y1="112.30" x2="830.49" y2="112.30" stroke="hsl(48,100%,68.0%)" stroke-width="0.50" stroke-linecap="round" /><line x1="825.49" y1="107.30" x2="825.49" y2="117.30" stroke="hsl(48,100%,68.0%)" stroke-width="0.50" stroke-linecap="round" /><circle cx="825.49" cy="112.30" r="0.90" fill="hsl(48,100%,68.0%)" /></g><g transform="rotate(2.7 846.54 101.15)"><circle cx="846.54" cy="101.15" r="5.90" fill="hsla(48,100%,74%,0.35)" fill-opacity="0.35" /><circle cx="846.54" cy="101.15" r="3.54" fill="hsla(50,100%,99%,0.75)" filter="url(#organic-sphere)" /><line x1="843.67" y1="98.28" x2="849.40" y2="104.01" stroke="hsl(48,100%,86.0%)" stroke-width="0.40" stroke-opacity="0.42" stroke-linecap="round" /><line x1="843.67" y1="104.01" x2="849.40" y2="98.28" stroke="hsl(48,100%,86.0%)" stroke-width="0.40" stroke-opacity="0.42" stroke-linecap="round" /><line x1="837.54" y1="101.15" x2="855.54" y2="101.15" stroke="hsl(48,100%,86.0%)" stroke-width="0.50" stroke-linecap="round" /><line x1="846.54" y1="92.15" x2="846.54" y2="110.15" stroke="hsl(48,100%,86.0%)" stroke-width="0.50" stroke-linecap="round" /><circle cx="846.54" cy="101.15" r="1.38" fill="hsl(48,100%,86.0%)" /></g><g transform="rotate(16.7 850.71 110.97)"><circle cx="850.71" cy="110.97" r="5.90" fill="hsla(48,100%,74%,0.35)" fill-opacity="0.35" /><circle cx="850.71" cy="110.97" r="3.54" fill="hsla(50,100%,99%,0.75)" filter="url(#organic-sphere)" /><line x1="847.85" y1="108.10" x2="853.57" y2="113.83" stroke="hsl(48,100%,92%)" stroke-width="0.40" stroke-opacity="0.42" stroke-linecap="round" /><line x1="847.85" y1="113.83" x2="853.57" y2="108.10" stroke="hsl(48,100%,92%)" stroke-width="0.40" stroke-opacity="0.42" stroke-linecap="round" /><line x1="841.71" y1="110.97" x2="859.71" y2="110.97" stroke="hsl(48,100%,92%)" stroke-width="0.50" stroke-linecap="round" /><line x1="850.71" y1="101.97" x2="850.71" y2="119.97" stroke="hsl(48,100%,92%)" stroke-width="0.50" stroke-linecap="round" /><circle cx="850.71" cy="110.97" r="1.38" fill="hsl(48,100%,92%)" /></g><g transform="rotate(0.0 866.14 78.90)"><circle cx="866.14" cy="78.90" r="3.50" fill="hsla(48,100%,74%,0.35)" fill-opacity="0.35" /><circle cx="866.14" cy="78.90" r="2.10" fill="hsla(50,100%,99%,0.75)" filter="url(#organic-sphere)" /><line x1="864.55" y1="77.31" x2="867.73" y2="80.49" stroke="hsl(48,100%,68.0%)" stroke-width="0.40" stroke-opacity="0.42" stroke-linecap="round" /><line x1="864.55" y1="80.49" x2="867.73" y2="77.31" stroke="hsl(48,100%,68.0%)" stroke-width="0.40" stroke-opacity="0.42" stroke-linecap="round" /><line x1="861.14" y1="78.90" x2="871.14" y2="78.90" stroke="hsl(48,100%,68.0%)" stroke-width="0.50" stroke-linecap="round" /><line x1="866.14" y1="73.90" x2="866.14" y2="83.90" stroke="hsl(48,100%,68.0%)" stroke-width="0.50" stroke-linecap="round" /><circle cx="866.14" cy="78.90" r="0.90" fill="hsl(48,100%,68.0%)" /></g><g transform="rotate(16.9 865.28 96.57)"><circle cx="865.28" cy="96.57" r="4.10" fill="hsla(48,100%,74%,0.35)" fill-opacity="0.35" /><circle cx="865.28" cy="96.57" r="2.46" fill="hsla(50,100%,99%,0.75)" filter="url(#organic-sphere)" /><line x1="863.37" y1="94.67" x2="867.19" y2="98.48" stroke="hsl(48,100%,72.5%)" stroke-width="0.40" stroke-opacity="0.42" stroke-linecap="round" /><line x1="863.37" y1="98.48" x2="867.19" y2="94.67" stroke="hsl(48,100%,72.5%)" stroke-width="0.40" stroke-opacity="0.42" stroke-linecap="round" /><line x1="859.28" y1="96.57" x2="871.28" y2="96.57" stroke="hsl(48,100%,72.5%)" stroke-width="0.50" stroke-linecap="round" /><line x1="865.28" y1="90.57" x2="865.28" y2="102.57" stroke="hsl(48,100%,72.5%)" stroke-width="0.50" stroke-linecap="round" /><circle cx="865.28" cy="96.57" r="1.02" fill="hsl(48,100%,72.5%)" /></g><g transform="rotate(-34.6 865.51 134.85)"><circle cx="865.51" cy="134.85" r="5.90" fill="hsla(48,100%,74%,0.35)" fill-opacity="0.35" /><circle cx="865.51" cy="134.85" r="3.54" fill="hsla(50,100%,99%,0.75)" filter="url(#organic-sphere)" /><line x1="862.65" y1="131.99" x2="868.38" y2="137.71" stroke="hsl(48,100%,86.0%)" stroke-width="0.40" stroke-opacity="0.42" stroke-linecap="round" /><line x1="862.65" y1="137.71" x2="868.38" y2="131.99" stroke="hsl(48,100%,86.0%)" stroke-width="0.40" stroke-opacity="0.42" stroke-linecap="round" /><line x1="856.51" y1="134.85" x2="874.51" y2="134.85" stroke="hsl(48,100%,86.0%)" stroke-width="0.50" stroke-linecap="round" /><line x1="865.51" y1="125.85" x2="865.51" y2="143.85" stroke="hsl(48,100%,86.0%)" stroke-width="0.50" stroke-linecap="round" /><circle cx="865.51" cy="134.85" r="1.38" fill="hsl(48,100%,86.0%)" /></g><g transform="rotate(16.4 881.21 80.19)"><circle cx="881.21" cy="80.19" r="3.50" fill="hsla(48,100%,74%,0.35)" fill-opacity="0.35" /><circle cx="881.21" cy="80.19" r="2.10" fill="hsla(50,100%,99%,0.75)" filter="url(#organic-sphere)" /><line x1="879.62" y1="78.60" x2="882.80" y2="81.78" stroke="hsl(48,100%,68.0%)" stroke-width="0.40" stroke-opacity="0.42" stroke-linecap="round" /><line x1="879.62" y1="81.78" x2="882.80" y2="78.60" stroke="hsl(48,100%,68.0%)" stroke-width="0.40" stroke-opacity="0.42" stroke-linecap="round" /><line x1="876.21" y1="80.19" x2="886.21" y2="80.19" stroke="hsl(48,100%,68.0%)" stroke-width="0.50" stroke-linecap="round" /><line x1="881.21" y1="75.19" x2="881.21" y2="85.19" stroke="hsl(48,100%,68.0%)" stroke-width="0.50" stroke-linecap="round" /><circle cx="881.21" cy="80.19" r="0.90" fill="hsl(48,100%,68.0%)" /></g></svg>