<svg xmlns="http://www.w3.org/2000/svg" viewBox="0 0 868 150" width="868" height="150" role="img" aria-label="Cinematic comet contribution graph"><rect x="0.00" y="0.00" width="868.00" height="150.00" fill="#f5f6fa" /><text x="10.00" y="12.00" font-family="monospace" font-size="10.00" fill="rgba(40,60,90,0.8)">Jan</text><text x="90.00" y="12.00" font-family="monospace" font-size="10.00" fill="rgba(40,60,90,0.8)">Feb</text><text x="154.00" y="12.00" font-family="monospace" font-size="10.00" fill="rgba(40,60,90,0.8)">Mar</text><text x="218.00" y="12.00" font-family="monospace" font-size="10.00" fill="rgba(40,60,90,0.8)">Apr</text><text x="298.00" y="12.00" font-family="monospace" font-size="10.00" fill="rgba(40,60,90,0.8)">May</text><text x="362.00" y="12.00" font-family="monospace" font-size="10.00" fill="rgba(40,60,90,0.8)">Jun</text><text x="426.00" y="12.00" font-family="monospace" font-size="10.00" fill="rgba(40,60,90,0.8)">Jul</text><text x="506.00" y="12.00" font-family="monospace" font-size="10.00" fill="rgba(40,60,90,0.8)">Aug</text><text x="570.00" y="12.00" font-family="monospace" font-size="10.00" fill="rgba(40,60,90,0.8)">Sep</text><text x="634.00" y="12.00" font-family="monospace" font-size="10.00" fill="rgba(40,60,90,0.8)">Oct</text><text x="714.00" y="12.00" font-family="monospace" font-size="10.00" fill="rgba(40,60,90,0.8)">Nov</text><text x="778.00" y="12.00" font-family="monospace" font-size="10.00" fill="rgba(40,60,90,0.8)">Dec</text><circle cx="710.04" cy="34.24" r="0.79" fill="hsl(0,0%,45%)" opacity="0.18" /><circle cx="623.31" cy="48.81" r="0.10" fill="hsl(0,0%,45%)" opacity="0.18" /><circle cx="513.05" cy="133.20" r="0.52" fill="hsl(0,0%,45%)" opacity="0.18" /><circle cx="671.44" cy="110.07" r="0.81" fill="hsl(0,0%,45%)" opacity="0.18" /><circle cx="228.74" cy="29.52" r="0.71" fill="hsl(268,32%,38%)" opacity="0.18" /><circle cx="113.55" cy="77.97" r="0.92" fill="hsl(130,22%,34%)" opacity="0.18" /><circle cx="168.52" cy="71.19" r="1.33" fill="hsl(15,35%,40%)" opacity="0.18" /><circle cx="841.56" cy="39.15" r="0.00" fill="hsl(200,45%,35%)" opacity="0.18" /><circle cx="675.98" cy="28.88" r="1.22" fill="hsl(0,0%,45%)" opacity="0.18" /><circle cx="229.67" cy="83.36" r="0.04" fill="hsl(0,0%,45%)" opacity="0.18" /><circle cx="697.27" cy="56.24" r="0.36" fill="hsl(0,0%,45%)" opacity="0.18" /><circle cx="500.02" cy="66.59" r="0.47" fill="hsl(130,22%,34%)" opacity="0.18" /><circle cx="706.03" cy="128.44" r="1.02" fill="hsl(0,0%,45%)" opacity="0.18" /><circle cx="69.63" cy="58.85" r="0.76" fill="hsl(268,32%,38%)" opacity="0.18" /><circle cx="558.36" cy="85.07" r="0.44" fill="hsl(15,35%,40%)" opacity="0.18" /><circle cx="785.53" cy="111.59" r="1.36" fill="hsl(0,0%,45%)" opacity="0.18" /><circle cx="441.37" cy="105.26" r="0.75" fill="hsl(200,45%,35%)" opacity="0.18" /><circle cx="248.20" cy="69.69" r="1.41" fill="hsl(200,45%,35%)" opacity="0.18" /><circle cx="337.78" cy="136.97" r="1.14" fill="hsl(15,35%,40%)" opacity="0.18" /><circle cx="804.16" cy="39.52" r="0.03" fill="hsl(130,22%,34%)" opacity="0.18" /><circle cx="199.00" cy="44.11" r="0.43" fill="hsl(15,35%,40%)" opacity="0.18" /><circle cx="839.67" cy="46.21" r="0.71" fill="hsl(0,0%,45%)" opacity="0.18" /><circle cx="599.41" cy="71.59" r="1.41" fill="hsl(15,35%,40%)" opacity="0.18" /><circle cx="212.73" cy="46.27" r="1.47" fill="hsl(200,45%,35%)" opacity="0.18" /><circle cx="416.84" cy="72.45" r="1.49" fill="hsl(0,0%,45%)" opacity="0.18" /><circle cx="218.79" cy="32.16" r="0.04" fill="hsl(0,0%,45%)" opacity="0.18" /><circle cx="51.34" cy="57.44" r="0.69" fill="hsl(0,0%,45%)" opacity="0.18" /><circle cx="107.81" cy="120.70" r="0.12" fill="hsl(130,22%,34%)" opacity="0.18" /><circle cx="698.85" cy="40.82" r="0.52" fill="hsl(0,0%,45%)" opacity="0.18" /><circle cx="99.28" cy="51.92" r="0.63" fill="hsl(0,0%,45%)" opacity="0.18" /><circle cx="301.14" cy="119.25" r="1.29" fill="hsl(0,0%,45%)" opacity="0.18" /><circle cx="432.56" cy="114.16" r="1.00" fill="hsl(0,0%,45%)" opacity="0.18" /><circle cx="687.90" cy="117.70" r="1.48" fill="hsl(0,0%,45%)" opacity="0.18" /><circle cx="473.13" cy="129.33" r="0.05" fill="hsl(0,0%,45%)" opacity="0.18" /><circle cx="47.84" cy="122.06" r="0.64" fill="hsl(15,35%,40%)" opacity="0.18" /><circle cx="404.11" cy="131.53" r="0.58" fill="hsl(0,0%,45%)" opacity="0.18" /><circle cx="110.34" cy="122.43" r="1.17" fill="hsl(0,0%,45%)" opacity="0.18" /><circle cx="228.49" cy="119.97" r="0.15" fill="hsl(0,0%,45%)" opacity="0.18" /><circle cx="380.86" cy="58.40" r="1.43" fill="hsl(0,0%,45%)" opacity="0.18" /><circle cx="392.73" cy="85.44" r="0.25" fill="hsl(200,45%,35%)" opacity="0.18" /><circle cx="290.39" cy="123.57" r="0.01" fill="hsl(0,0%,45%)" opacity="0.18" /><circle cx="394.29" cy="67.20" r="0.10" fill="hsl(0,0%,45%)" opacity="0.18" /><circle cx="74.71" cy="112.94" r="0.51" fill="hsl(200,45%,35%)" opacity="0.18" /><circle cx="704.43" cy="66.82" r="1.33" fill="hsl(0,0%,45%)" opacity="0.18" /><circle cx="283.56" cy="40.62" r="1.31" fill="hsl(130,22%,34%)" opacity="0.18" /><circle cx="799.73" cy="126.98" r="1.05" fill="hsl(0,0%,45%)" opacity="0.18" /><circle cx="113.14" cy="30.28" r="1.18" fill="hsl(0,0%,45%)" opacity="0.18" /><circle cx="258.23" cy="84.31" r="0.12" fill="hsl(0,0%,45%)" opacity="0.18" /><circle cx="95.83" cy="128.93" r="0.40" fill="hsl(0,0%,45%)" opacity="0.18" /><circle cx="96.67" cy="134.33" r="0.46" fill="hsl(0,0%,45%)" opacity="0.18" /><circle cx="104.82" cy="129.54" r="0.56" fill="hsl(0,0%,45%)" opacity="0.18" /><circle cx="771.72" cy="75.12" r="0.07" fill="hsl(0,0%,45%)" opacity="0.18" /><circle cx="184.81" cy="123.90" r="0.22" fill="hsl(0,0%,45%)" opacity="0.18" /><circle cx="739.03" cy="51.78" r="0.89" fill="hsl(0,0%,45%)" opacity="0.18" /><circle cx="775.64" cy="136.80" r="1.23" fill="hsl(0,0%,45%)" opacity="0.18" /><circle cx="511.96" cy="58.95" r="0.89" fill="hsl(0,0%,45%)" opacity="0.18" /><circle cx="698.36" cy="81.89" r="0.23" fill="hsl(0,0%,45%)" opacity="0.18" /><circle cx="814.97" cy="126.57" r="1.29" fill="hsl(0,0%,45%)" opacity="0.18" /><circle cx="450.72" cy="135.66" r="1.23" fill="hsl(0,0%,45%)" opacity="0.18" /><circle cx="265.52" cy="77.02" r="1.23" fill="hsl(0,0%,45%)" opacity="0.18" /><circle cx="458.55" cy="63.36" r="0.30" fill="hsl(0,0%,45%)" opacity="0.18" /><circle cx="593.47" cy="119.14" r="0.52" fill="hsl(0,0%,45%)" opacity="0.18" /><circle cx="640.81" cy="38.68" r="0.96" fill="hsl(0,0%,45%)" opacity="0.18" /><circle cx="516.77" cy="113.92" r="0.18" fill="hsl(0,0%,45%)" opacity="0.18" /><circle cx="449.24" cy="126.95" r="0.53" fill="hsl(0,0%,45%)" opacity="0.18" /><circle cx="100.58" cy="132.28" r="0.36" fill="hsl(0,0%,45%)" opacity="0.18" /><circle cx="430.39" cy="129.44" r="0.38" fill="hsl(0,0%,45%)" opacity="0.18" /><circle cx="248.35" cy="82.50" r="1.40" fill="hsl(0,0%,45%)" opacity="0.18" /><circle cx="138.54" cy="86.93" r="0.61" fill="hsl(0,0%,45%)" opacity="0.18" /><circle cx="118.75" cy="44.64" r="0.88" fill="hsl(268,32%,38%)" opacity="0.18" /><circle cx="459.23" cy="77.59" r="0.72" fill="hsl(0,0%,45%)" opacity="0.18" /><circle cx="519.87" cy="60.47" r="0.21" fill="hsl(0,0%,45%)" opacity="0.18" /><circle cx="631.02" cy="76.85" r="1.25" fill="hsl(0,0%,45%)" opacity="0.18" /><circle cx="618.12" cy="37.27" r="0.77" fill="hsl(0,0%,45%)" opacity="0.18" /><circle cx="724.77" cy="124.52" r="0.62" fill="hsl(0,0%,45%)" opacity="0.18" /><circle cx="550.33" cy="44.84" r="0.12" fill="hsl(0,0%,45%)" opacity="0.18" /><circle cx="832.68" cy="30.66" r="0.44" fill="hsl(0,0%,45%)" opacity="0.18" /><circle cx="114.61" cy="66.67" r="1.31" fill="hsl(0,0%,45%)" opacity="0.18" /><circle cx="642.69" cy="117.15" r="0.88" fill="hsl(0,0%,45%)" opacity="0.18" /><circle cx="83.81" cy="108.45" r="1.11" fill="hsl(130,22%,34%)" opacity="0.18" /><g transform="rotate(-17.9 416.31 117.46)"><circle cx="416.31" cy="117.46" r="4.10" fill="hsla(36,85%,55%,0.3)" fill-opacity="0.35" /><line x1="414.40" y1="115.55" x2="418.22" y2="119.37" stroke="hsl(48,100%,72.5%)" stroke-width="0.40" stroke-opacity="0.42" stroke-linecap="round" /><line x1="414.40" y1="119.37" x2="418.22" y2="115.55" stroke="hsl(48,100%,72.5%)" stroke-width="0.40" stroke-opacity="0.42" stroke-linecap="round" /><line x1="410.31" y1="117.46" x2="422.31" y2="117.46" stroke="hsl(48,100%,72.5%)" stroke-width="0.50" stroke-linecap="round" /><line x1="416.31" y1="111.46" x2="416.31" y2="123.46" stroke="hsl(48,100%,72.5%)" stroke-width="0.50" stroke-linecap="round" /><circle cx="416.31" cy="117.46" r="1.02" fill="hsl(48,100%,72.5%)" /></g></svg>