<svg xmlns="http://www.w3.org/2000/svg" viewBox="0 0 896 150" width="896" height="150" role="img" aria-label="Cinematic comet contribution graph"><rect x="0.00" y="0.00" width="896.00" height="150.00" fill="#010209" /><defs><filter id="organic-sphere" x="-80%" y="-80%" width="260%" height="260%"><feTurbulence type="fractalNoise" baseFrequency="0.035" numOctaves="2" seed="7" result="noise" /><feDisplacementMap in="SourceGraphic" in2="noise" scale="4" xChannelSelector="R" yChannelSelector="G" result="displaced" /><feGaussianBlur in="displaced" stdDeviation="1.4" /></filter></defs><text x="22.00" y="39.00" font-family="monospace" font-size="10.00" fill="rgba(122,172,216,0.75)" text-anchor="end">Mon</text><text x="22.00" y="71.00" font-family="monospace" font-size="10.00" fill="rgba(122,172,216,0.75)" text-anchor="end">Wed</text><text x="22.00" y="103.00" font-family="monospace" font-size="10.00" fill="rgba(122,172,216,0.75)" text-anchor="end">Fri</text><text x="38.00" y="12.00" font-family="monospace" font-size="10.00" fill="rgba(122,172,216,0.75)">Jan</text><text x="118.00" y="12.00" font-family="monospace" font-size="10.00" fill="rgba(122,172,216,0.75)">Feb</text><text x="182.00" y="12.00" font-family="monospace" font-size="10.00" fill="rgba(122,172,216,0.75)">Mar</text><text x="246.00" y="12.00" font-family="monospace" font-size="10.00" fill="rgba(122,172,216,0.75)">Apr</text><text x="326.00" y="12.00" font-family="monospace" font-size="10.00" fill="rgba(122,172,216,0.75)">May</text><text x="390.00" y="12.00" font-family="monospace" font-size="10.00" fill="rgba(122,172,216,0.75)">Jun</text><text x="454.00" y="12.00" font-family="monospace" font-size="10.00" fill="rgba(122,172,216,0.75)">Jul</text><text x="534.00" y="12.00" font-family="monospace" font-size="10.00" fill="rgba(122,172,216,0.75)">Aug</text><text x="598.00" y="12.00" font-family="monospace" font-size="10.00" fill="rgba(122,172,216,0.75)">Sep</text><text x="662.00" y="12.00" font-family="monospace" font-size="10.00" fill="rgba(122,172,216,0.75)">Oct</text><text x="742.00" y="12.00" font-family="monospace" font-size="10.00" fill="rgba(122,172,216,0.75)">Nov</text><text x="806.00" y="12.00" font-family="monospace" font-size="10.00" fill="rgba(122,172,216,0.75)">Dec</text><circle cx="738.04" cy="34.24" r="0.79" fill="hsl(0,0%,100%)" opacity="0.18" /><circle cx="651.31" cy="48.81" r="0.10" fill="hsl(0,0%,100%)" opacity="0.18" /><circle cx="541.05" cy="133.20" r="0.52" fill="hsl(0,0%,100%)" opacity="0.18" /><circle cx="699.44" cy="110.07" r="0.81" fill="hsl(0,0%,100%)" opacity="0.18" /><circle cx="256.74" cy="29.52" r="0.71" fill="hsl(268,32%,82%)" opacity="0.18" /><circle cx="141.55" cy="77.97" r="0.92" fill="hsl(130,22%,80%)" opacity="0.18" /><circle cx="196.52" cy="71.19" r="1.33" fill="hsl(15,35%,80%)" opacity="0.18" /><circle cx="869.56" cy="39.15" r="0.00" fill="hsl(200,45%,88%)" opacity="0.18" /><circle cx="703.98" cy="28.88" r="1.22" fill="hsl(0,0%,100%)" opacity="0.18" /><circle cx="257.67" cy="83.36" r="0.04" fill="hsl(0,0%,100%)" opacity="0.18" /><circle cx="725.27" cy="56.24" r="0.36" fill="hsl(0,0%,100%)" opacity="0.18" /><circle cx="528.02" cy="66.59" r="0.47" fill="hsl(130,22%,80%)" opacity="0.18" /><circle cx="734.03" cy="128.44" r="1.02" fill="hsl(0,0%,100%)" opacity="0.18" /><circle cx="97.63" cy="58.85" r="0.76" fill="hsl(268,32%,82%)" opacity="0.18" /><circle cx="586.36" cy="85.07" r="0.44" fill="hsl(15,35%,80%)" opacity="0.18" /><circle cx="813.53" cy="111.59" r="1.36" fill="hsl(0,0%,100%)" opacity="0.18" /><circle cx="469.37" cy="105.26" r="0.75" fill="hsl(200,45%,88%)" opacity="0.18" /><circle cx="276.20" cy="69.69" r="1.41" fill="hsl(200,45%,88%)" opacity="0.18" /><circle cx="365.78" cy="136.97" r="1.14" fill="hsl(15,35%,80%)" opacity="0.18" /><circle cx="832.16" cy="39.52" r="0.03" fill="hsl(130,22%,80%)" opacity="0.18" /><circle cx="227.00" cy="44.11" r="0.43" fill="hsl(15,35%,80%)" opacity="0.18" /><circle cx="867.67" cy="46.21" r="0.71" fill="hsl(0,0%,100%)" opacity="0.18" /><circle cx="627.41" cy="71.59" r="1.41" fill="hsl(15,35%,80%)" opacity="0.18" /><circle cx="240.73" cy="46.27" r="1.47" fill="hsl(200,45%,88%)" opacity="0.18" /><circle cx="444.84" cy="72.45" r="1.49" fill="hsl(0,0%,100%)" opacity="0.18" /><circle cx="246.79" cy="32.16" r="0.04" fill="hsl(0,0%,100%)" opacity="0.18" /><circle cx="79.34" cy="57.44" r="0.69" fill="hsl(0,0%,100%)" opacity="0.18" /><circle cx="135.81" cy="120.70" r="0.12" fill="hsl(130,22%,80%)" opacity="0.18" /><circle cx="726.85" cy="40.82" r="0.52" fill="hsl(0,0%,100%)" opacity="0.18" /><circle cx="127.28" cy="51.92" r="0.63" fill="hsl(0,0%,100%)" opacity="0.18" /><circle cx="329.14" cy="119.25" r="1.29" fill="hsl(0,0%,100%)" opacity="0.18" /><circle cx="460.56" cy="114.16" r="1.00" fill="hsl(0,0%,100%)" opacity="0.18" /><circle cx="715.90" cy="117.70" r="1.48" fill="hsl(0,0%,100%)" opacity="0.18" /><circle cx="501.13" cy="129.33" r="0.05" fill="hsl(0,0%,100%)" opacity="0.18" /><circle cx="75.84" cy="122.06" r="0.64" fill="hsl(15,35%,80%)" opacity="0.18" /><circle cx="432.11" cy="131.53" r="0.58" fill="hsl(0,0%,100%)" opacity="0.18" /><circle cx="138.34" cy="122.43" r="1.17" fill="hsl(0,0%,100%)" opacity="0.18" /><circle cx="256.49" cy="119.97" r="0.15" fill="hsl(0,0%,100%)" opacity="0.18" /><circle cx="408.86" cy="58.40" r="1.43" fill="hsl(0,0%,100%)" opacity="0.18" /><circle cx="420.73" cy="85.44" r="0.25" fill="hsl(200,45%,88%)" opacity="0.18" /><circle cx="318.39" cy="123.57" r="0.01" fill="hsl(0,0%,100%)" opacity="0.18" /><circle cx="422.29" cy="67.20" r="0.10" fill="hsl(0,0%,100%)" opacity="0.18" /><circle cx="102.71" cy="112.94" r="0.51" fill="hsl(200,45%,88%)" opacity="0.18" /><circle cx="732.43" cy="66.82" r="1.33" fill="hsl(0,0%,100%)" opacity="0.18" /><circle cx="311.56" cy="40.62" r="1.31" fill="hsl(130,22%,80%)" opacity="0.18" /><circle cx="827.73" cy="126.98" r="1.05" fill="hsl(0,0%,100%)" opacity="0.18" /><circle cx="141.14" cy="30.28" r="1.18" fill="hsl(0,0%,100%)" opacity="0.18" /><circle cx="286.23" cy="84.31" r="0.12" fill="hsl(0,0%,100%)" opacity="0.18" /><circle cx="123.83" cy="128.93" r="0.40" fill="hsl(0,0%,100%)" opacity="0.18" /><circle cx="124.67" cy="134.33" r="0.46" fill="hsl(0,0%,100%)" opacity="0.18" /><circle cx="132.82" cy="129.54" r="0.56" fill="hsl(0,0%,100%)" opacity="0.18" /><circle cx="799.72" cy="75.12" r="0.07" fill="hsl(0,0%,100%)" opacity="0.18" /><circle cx="212.81" cy="123.90" r="0.22" fill="hsl(0,0%,100%)" opacity="0.18" /><circle cx="767.03" cy="51.78" r="0.89" fill="hsl(0,0%,100%)" opacity="0.18" /><circle cx="803.64" cy="136.80" r="1.23" fill="hsl(0,0%,100%)" opacity="0.18" /><circle cx="539.96" cy="58.95" r="0.89" fill="hsl(0,0%,100%)" opacity="0.18" /><circle cx="726.36" cy="81.89" r="0.23" fill="hsl(0,0%,100%)" opacity="0.18" /><circle cx="842.97" cy="126.57" r="1.29" fill="hsl(0,0%,100%)" opacity="0.18" /><circle cx="478.72" cy="135.66" r="1.23" fill="hsl(0,0%,100%)" opacity="0.18" /><circle cx="293.52" cy="77.02" r="1.23" fill="hsl(0,0%,100%)" opacity="0.18" /><circle cx="486.55" cy="63.36" r="0.30" fill="hsl(0,0%,100%)" opacity="0.18" /><circle cx="621.47" cy="119.14" r="0.52" fill="hsl(0,0%,100%)" opacity="0.18" /><circle cx="668.81" cy="38.68" r="0.96" fill="hsl(0,0%,100%)" opacity="0.18" /><circle cx="544.77" cy="113.92" r="0.18" fill="hsl(0,0%,100%)" opacity="0.18" /><circle cx="477.24" cy="126.95" r="0.53" fill="hsl(0,0%,100%)" opacity="0.18" /><circle cx="128.58" cy="132.28" r="0.36" fill="hsl(0,0%,100%)" opacity="0.18" /><circle cx="458.39" cy="129.44" r="0.38" fill="hsl(0,0%,100%)" opacity="0.18" /><circle cx="276.35" cy="82.50" r="1.40" fill="hsl(0,0%,100%)" opacity="0.18" /><circle cx="166.54" cy="86.93" r="0.61" fill="hsl(0,0%,100%)" opacity="0.18" /><circle cx="146.75" cy="44.64" r="0.88" fill="hsl(268,32%,82%)" opacity="0.18" /><circle cx="487.23" cy="77.59" r="0.72" fill="hsl(0,0%,100%)" opacity="0.18" /><circle cx="547.87" cy="60.47" r="0.21" fill="hsl(0,0%,100%)" opacity="0.18" /><circle cx="659.02" cy="76.85" r="1.25" fill="hsl(0,0%,100%)" opacity="0.18" /><circle cx="646.12" cy="37.27" r="0.77" fill="hsl(0,0%,100%)" opacity="0.18" /><circle cx="752.77" cy="124.52" r="0.62" fill="hsl(0,0%,100%)" opacity="0.18" /><circle cx="578.33" cy="44.84" r="0.12" fill="hsl(0,0%,100%)" opacity="0.18" /><circle cx="860.68" cy="30.66" r="0.44" fill="hsl(0,0%,100%)" opacity="0.18" /><circle cx="142.61" cy="66.67" r="1.31" fill="hsl(0,0%,100%)" opacity="0.18" /><circle cx="670.69" cy="117.15" r="0.88" fill="hsl(0,0%,100%)" opacity="0.18" /><circle cx="111.81" cy="108.45" r="1.11" fill="hsl(130,22%,80%)" opacity="0.18" /><circle cx="192.20" cy="80.78" r="1.46" fill="hsl(214,51%,44%)" opacity="0.60" /><circle cx="210.19" cy="71.97" r="1.46" fill="hsl(214,51%,44%)" opacity="0.60" /><circle cx="234.28" cy="89.07" r="1.46" fill="hsl(214,51%,44%)" opacity="0.60" /><circle cx="287.24" cy="66.71" r="1.46" fill="hsl(214,51%,44%)" opacity="0.60" /><circle cx="348.73" cy="128.54" r="1.46" fill="hsl(214,51%,44%)" opacity="0.60" /><circle cx="461.81" cy="134.22" r="1.46" fill="hsl(214,51%,44%)" opacity="0.60" /><circle cx="481.75" cy="131.07" r="1.46" fill="hsl(214,51%,44%)" opacity="0.60" /><circle cx="555.22" cy="113.57" r="1.46" fill="hsl(214,51%,44%)" opacity="0.60" /><circle cx="700.63" cy="32.21" r="1.46" fill="hsl(214,51%,44%)" opacity="0.60" /><circle cx="697.75" cy="95.78" r="1.46" fill="hsl(214,51%,44%)" opacity="0.60" /><circle cx="843.35" cy="132.81" r="1.46" fill="hsl(214,51%,44%)" opacity="0.60" /><path d="M 174.51,101.92 L 444.31,117.46 L 714.46,133.69" fill="none" stroke="rgba(255,255,255,0.1)" stroke-width="1.00" stroke-linejoin="round" /><g transform="rotate(4.1 174.51 101.92)"><circle cx="174.51" cy="101.92" r="4.10" fill="hsla(48,100%,74%,0.35)" fill-opacity="0.35" /><circle cx="174.51" cy="101.92" r="2.46" fill="hsla(50,100%,99%,0.75)" filter="url(#organic-sphere)" /><line x1="172.60" y1="100.01" x2="176.42" y2="103.83" stroke="hsl(48,100%,72.5%)" stroke-width="0.40" stroke-opacity="0.42" stroke-linecap="round" /><line x1="172.60" y1="103.83" x2="176.42" y2="100.01" stroke="hsl(48,100%,72.5%)" stroke-width="0.40" stroke-opacity="0.42" stroke-linecap="round" /><line x1="168.51" y1="101.92" x2="180.51" y2="101.92" stroke="hsl(48,100%,72.5%)" stroke-width="0.50" stroke-linecap="round" /><line x1="174.51" y1="95.92" x2="174.51" y2="107.92" stroke="hsl(48,100%,72.5%)" stroke-width="0.50" stroke-linecap="round" /><circle cx="174.51" cy="101.92" r="1.02" fill="hsl(48,100%,72.5%)" /></g><g transform="rotate(-17.9 444.31 117.46)"><circle cx="444.31" cy="117.46" r="3.50" fill="hsla(48,100%,74%,0.35)" fill-opacity="0.35" /><circle cx="444.31" cy="117.46" r="2.10" fill="hsla(50,100%,99%,0.75)" filter="url(#organic-sphere)" /><line x1="442.72" y1="115.87" x2="445.90" y2="119.05" stroke="hsl(48,100%,68.0%)" stroke-width="0.40" stroke-opacity="0.42" stroke-linecap="round" /><line x1="442.72" y1="119.05" x2="445.90" y2="115.87" stroke="hsl(48,100%,68.0%)" stroke-width="0.40" stroke-opacity="0.42" stroke-linecap="round" /><line x1="439.31" y1="117.46" x2="449.31" y2="117.46" stroke="hsl(48,100%,68.0%)" stroke-width="0.50" stroke-linecap="round" /><line x1="444.31" y1="112.46" x2="444.31" y2="122.46" stroke="hsl(48,100%,68.0%)" stroke-width="0.50" stroke-linecap="round" /><circle cx="444.31" cy="117.46" r="0.90" fill="hsl(48,100%,68.0%)" /></g><g transform="rotate(-14.6 714.46 133.69)"><circle cx="714.46" cy="133.69" r="3.50" fill="hsla(48,100%,74%,0.35)" fill-opacity="0.35" /><circle cx="714.46" cy="133.69" r="2.10" fill="hsla(50,100%,99%,0.75)" filter="url(#organic-sphere)" /><line x1="712.87" y1="132.10" x2="716.05" y2="135.28" stroke="hsl(48,100%,68.0%)" stroke-width="0.40" stroke-opacity="0.42" stroke-linecap="round" /><line x1="712.87" y1="135.28" x2="716.05" y2="132.10" stroke="hsl(48,100%,68.0%)" stroke-width="0.40" stroke-opacity="0.42" stroke-linecap="round" /><line x1="709.46" y1="133.69" x2="719.46" y2="133.69" stroke="hsl(48,100%,68.0%)" stroke-width="0.50" stroke-linecap="round" /><line x1="714.46" y1="128.69" x2="714.46" y2="138.69" stroke="hsl(48,100%,68.0%)" stroke-width="0.50" stroke-linecap="round" /><circle cx="714.46" cy="133.69" r="0.90" fill="hsl(48,100%,68.0%)" /></g></svg>