<svg xmlns="http://www.w3.org/2000/svg" viewBox="0 0 896 300" width="896" height="300" role="img" aria-label="Cinematic comet contribution orbit"><rect x="0.00" y="0.00" width="896.00" height="300.00" fill="#010209" /><defs><linearGradient id="tail-grad" x1="0" y1="0" x2="1" y2="0"><stop offset="0%" stop-color="#c8e0ff" stop-opacity="0"/><stop offset="40%" stop-color="#c8e0ff" stop-opacity="0.1"/><stop offset="70%" stop-color="#d8ecff" stop-opacity="0.5"/><stop offset="90%" stop-color="#ffffff" stop-opacity="0.85"/><stop offset="100%" stop-color="#ffffff" stop-opacity="0"/></linearGradient><filter id="tail-blur" x="-20%" y="-100%" width="140%" height="300%"><feGaussianBlur stdDeviation="1.2"/></filter><filter id="organic-sphere" x="-80%" y="-80%" width="260%" height="260%"><feTurbulence type="fractalNoise" baseFrequency="0.035" numOctaves="2" seed="7" result="noise" /><feDisplacementMap in="SourceGraphic" in2="noise" scale="4" xChannelSelector="R" yChannelSelector="G" result="displaced" /><feGaussianBlur in="displaced" stdDeviation="1.4" /></filter><radialGradient id="sun-glow"><stop offset="0" stop-color="#ffe9a8" stop-opacity="0.55"/><stop offset="0.45" stop-color="#ffb74a" stop-opacity="0.14"/><stop offset="1" stop-color="#ffb74a" stop-opacity="0"/></radialGradient></defs><circle cx="739.66" cy="16.72" r="0.78" fill="hsl(130,22%,80%)" opacity="0.15" /><circle cx="648.03" cy="55.75" r="0.36" fill="hsl(200,45%,88%)" opacity="0.15" /><circle cx="531.53" cy="281.78" r="0.61" fill="hsl(200,45%,88%)" opacity="0.15" /><circle cx="698.87" cy="219.82" r="0.79" fill="hsl(0,0%,100%)" opacity="0.15" /><circle cx="231.13" cy="4.08" r="0.73" fill="hsl(268,32%,82%)" opacity="0.15" /><circle cx="109.41" cy="133.84" r="0.85" fill="hsl(268,32%,82%)" opacity="0.15" /><circle cx="167.49" cy="115.70" r="1.10" fill="hsl(268,32%,82%)" opacity="0.15" /><circle cx="878.63" cy="29.87" r="0.30" fill="hsl(130,22%,80%)" opacity="0.15" /><circle cx="703.68" cy="2.35" r="1.03" fill="hsl(200,45%,88%)" opacity="0.15" /><circle cx="232.10" cy="148.28" r="0.32" fill="hsl(15,35%,80%)" opacity="0.15" /><circle cx="726.17" cy="75.64" r="0.51" fill="hsl(15,35%,80%)" opacity="0.15" /><circle cx="517.76" cy="103.38" r="0.58" fill="hsl(268,32%,82%)" opacity="0.15" /><circle cx="735.43" cy="269.03" r="0.91" fill="hsl(130,22%,80%)" opacity="0.15" /><circle cx="63.01" cy="82.64" r="0.76" fill="hsl(268,32%,82%)" opacity="0.15" /><circle cx="579.40" cy="152.88" r="0.56" fill="hsl(268,32%,82%)" opacity="0.15" /><circle cx="819.42" cy="223.91" r="1.11" fill="hsl(200,45%,88%)" opacity="0.15" /><circle cx="455.78" cy="206.95" r="0.75" fill="hsl(130,22%,80%)" opacity="0.15" /><circle cx="251.68" cy="111.67" r="1.15" fill="hsl(130,22%,80%)" opacity="0.15" /><circle cx="346.33" cy="291.87" r="0.99" fill="hsl(268,32%,82%)" opacity="0.15" /><circle cx="839.12" cy="30.86" r="0.32" fill="hsl(268,32%,82%)" opacity="0.15" /><circle cx="199.70" cy="43.14" r="0.56" fill="hsl(268,32%,82%)" opacity="0.15" /><circle cx="876.63" cy="48.79" r="0.73" fill="hsl(130,22%,80%)" opacity="0.15" /><circle cx="622.78" cy="116.76" r="1.14" fill="hsl(268,32%,82%)" opacity="0.15" /><circle cx="214.20" cy="48.95" r="1.18" fill="hsl(130,22%,80%)" opacity="0.15" /><circle cx="429.87" cy="119.06" r="1.19" fill="hsl(200,45%,88%)" opacity="0.15" /><circle cx="220.61" cy="11.15" r="0.32" fill="hsl(0,0%,100%)" opacity="0.15" /><circle cx="43.69" cy="78.87" r="0.71" fill="hsl(15,35%,80%)" opacity="0.15" /><circle cx="103.35" cy="248.29" r="0.37" fill="hsl(268,32%,82%)" opacity="0.15" /><circle cx="727.84" cy="34.34" r="0.61" fill="hsl(15,35%,80%)" opacity="0.15" /><circle cx="94.34" cy="64.07" r="0.68" fill="hsl(15,35%,80%)" opacity="0.15" /><circle cx="307.62" cy="244.43" r="1.07" fill="hsl(15,35%,80%)" opacity="0.15" /><circle cx="446.47" cy="230.78" r="0.90" fill="hsl(130,22%,80%)" opacity="0.15" /><circle cx="716.27" cy="240.26" r="1.19" fill="hsl(15,35%,80%)" opacity="0.15" /><circle cx="489.35" cy="271.43" r="0.33" fill="hsl(0,0%,100%)" opacity="0.15" /><circle cx="39.98" cy="251.94" r="0.68" fill="hsl(268,32%,82%)" opacity="0.15" /><circle cx="416.41" cy="277.32" r="0.65" fill="hsl(15,35%,80%)" opacity="0.15" /><circle cx="106.02" cy="252.93" r="1.00" fill="hsl(200,45%,88%)" opacity="0.15" /><circle cx="230.86" cy="246.35" r="0.39" fill="hsl(15,35%,80%)" opacity="0.15" /><circle cx="391.85" cy="81.42" r="1.16" fill="hsl(15,35%,80%)" opacity="0.15" /><circle cx="404.40" cy="153.85" r="0.45" fill="hsl(130,22%,80%)" opacity="0.15" /><circle cx="296.26" cy="256.00" r="0.31" fill="hsl(15,35%,80%)" opacity="0.15" /><circle cx="406.04" cy="104.99" r="0.36" fill="hsl(0,0%,100%)" opacity="0.15" /><circle cx="68.37" cy="227.51" r="0.61" fill="hsl(130,22%,80%)" opacity="0.15" /><circle cx="733.73" cy="103.98" r="1.10" fill="hsl(200,45%,88%)" opacity="0.15" /><circle cx="289.04" cy="33.80" r="1.08" fill="hsl(268,32%,82%)" opacity="0.15" /><circle cx="834.43" cy="265.13" r="0.93" fill="hsl(200,45%,88%)" opacity="0.15" /><circle cx="108.98" cy="6.10" r="1.01" fill="hsl(15,35%,80%)" opacity="0.15" /><circle cx="262.28" cy="150.84" r="0.37" fill="hsl(15,35%,80%)" opacity="0.15" /><circle cx="90.69" cy="270.34" r="0.54" fill="hsl(15,35%,80%)" opacity="0.15" /><circle cx="91.58" cy="284.82" r="0.58" fill="hsl(130,22%,80%)" opacity="0.15" /><circle cx="100.19" cy="271.98" r="0.64" fill="hsl(0,0%,100%)" opacity="0.15" /><circle cx="804.84" cy="126.21" r="0.34" fill="hsl(200,45%,88%)" opacity="0.15" /><circle cx="184.70" cy="256.88" r="0.43" fill="hsl(130,22%,80%)" opacity="0.15" /><circle cx="770.30" cy="63.70" r="0.83" fill="hsl(130,22%,80%)" opacity="0.15" /><circle cx="808.98" cy="291.43" r="1.04" fill="hsl(200,45%,88%)" opacity="0.15" /><circle cx="530.37" cy="82.91" r="0.83" fill="hsl(15,35%,80%)" opacity="0.15" /><circle cx="727.32" cy="144.35" r="0.44" fill="hsl(200,45%,88%)" opacity="0.15" /><circle cx="850.53" cy="264.04" r="1.07" fill="hsl(15,35%,80%)" opacity="0.15" /><circle cx="465.66" cy="288.37" r="1.04" fill="hsl(200,45%,88%)" opacity="0.15" /><circle cx="269.98" cy="131.31" r="1.04" fill="hsl(200,45%,88%)" opacity="0.15" /><circle cx="473.94" cy="94.72" r="0.48" fill="hsl(0,0%,100%)" opacity="0.15" /><circle cx="616.50" cy="244.13" r="0.61" fill="hsl(15,35%,80%)" opacity="0.15" /><circle cx="666.52" cy="28.60" r="0.87" fill="hsl(15,35%,80%)" opacity="0.15" /><circle cx="535.45" cy="230.15" r="0.41" fill="hsl(15,35%,80%)" opacity="0.15" /><circle cx="464.10" cy="265.03" r="0.62" fill="hsl(15,35%,80%)" opacity="0.15" /><circle cx="95.71" cy="279.32" r="0.52" fill="hsl(200,45%,88%)" opacity="0.15" /><circle cx="444.18" cy="271.72" r="0.53" fill="hsl(0,0%,100%)" opacity="0.15" /><circle cx="251.85" cy="146.00" r="1.14" fill="hsl(0,0%,100%)" opacity="0.15" /><circle cx="135.82" cy="157.86" r="0.66" fill="hsl(15,35%,80%)" opacity="0.15" /><circle cx="114.90" cy="44.57" r="0.83" fill="hsl(268,32%,82%)" opacity="0.15" /><circle cx="474.65" cy="132.84" r="0.73" fill="hsl(0,0%,100%)" opacity="0.15" /><circle cx="538.73" cy="86.96" r="0.43" fill="hsl(15,35%,80%)" opacity="0.15" /><circle cx="656.17" cy="130.84" r="1.05" fill="hsl(200,45%,88%)" opacity="0.15" /><circle cx="642.54" cy="24.83" r="0.76" fill="hsl(15,35%,80%)" opacity="0.15" /><circle cx="755.23" cy="258.54" r="0.67" fill="hsl(0,0%,100%)" opacity="0.15" /><circle cx="570.91" cy="45.10" r="0.37" fill="hsl(0,0%,100%)" opacity="0.15" /><circle cx="869.25" cy="7.12" r="0.56" fill="hsl(15,35%,80%)" opacity="0.15" /><circle cx="110.54" cy="103.57" r="1.09" fill="hsl(0,0%,100%)" opacity="0.15" /><circle cx="668.51" cy="238.78" r="0.83" fill="hsl(130,22%,80%)" opacity="0.15" /><circle cx="77.99" cy="215.50" r="0.96" fill="hsl(268,32%,82%)" opacity="0.15" /><circle cx="499.94" cy="190.74" r="1.13" fill="hsl(130,22%,80%)" opacity="0.15" /><circle cx="703.35" cy="62.02" r="0.66" fill="hsl(15,35%,80%)" opacity="0.15" /><circle cx="687.61" cy="169.58" r="0.50" fill="hsl(15,35%,80%)" opacity="0.15" /><circle cx="445.76" cy="62.49" r="0.75" fill="hsl(0,0%,100%)" opacity="0.15" /><circle cx="103.47" cy="226.33" r="0.44" fill="hsl(200,45%,88%)" opacity="0.15" /><circle cx="45.25" cy="73.28" r="0.34" fill="hsl(15,35%,80%)" opacity="0.15" /><circle cx="677.71" cy="191.21" r="1.07" fill="hsl(200,45%,88%)" opacity="0.15" /><circle cx="414.60" cy="51.93" r="0.91" fill="hsl(200,45%,88%)" opacity="0.15" /><circle cx="447.39" cy="24.25" r="0.44" fill="hsl(0,0%,100%)" opacity="0.15" /><circle cx="623.25" cy="55.23" r="1.02" fill="hsl(200,45%,88%)" opacity="0.15" /><circle cx="473.53" cy="85.57" r="1.11" fill="hsl(200,45%,88%)" opacity="0.15" /><circle cx="442.71" cy="21.80" r="1.10" fill="hsl(0,0%,100%)" opacity="0.15" /><circle cx="432.82" cy="253.27" r="1.07" fill="hsl(130,22%,80%)" opacity="0.15" /><circle cx="419.61" cy="204.10" r="0.36" fill="hsl(15,35%,80%)" opacity="0.15" /><circle cx="254.62" cy="260.91" r="0.79" fill="hsl(268,32%,82%)" opacity="0.15" /><circle cx="353.81" cy="167.26" r="0.71" fill="hsl(0,0%,100%)" opacity="0.15" /><circle cx="5.88" cy="297.62" r="0.41" fill="hsl(268,32%,82%)" opacity="0.15" /><circle cx="554.24" cy="261.06" r="1.12" fill="hsl(130,22%,80%)" opacity="0.15" /><circle cx="32.88" cy="145.82" r="0.88" fill="hsl(15,35%,80%)" opacity="0.15" /><circle cx="53.04" cy="167.02" r="1.18" fill="hsl(200,45%,88%)" opacity="0.15" /><circle cx="695.23" cy="186.26" r="1.09" fill="hsl(268,32%,82%)" opacity="0.15" /><circle cx="828.44" cy="120.95" r="0.36" fill="hsl(268,32%,82%)" opacity="0.15" /><circle cx="544.92" cy="227.32" r="0.40" fill="hsl(130,22%,80%)" opacity="0.15" /><circle cx="745.01" cy="63.28" r="1.15" fill="hsl(200,45%,88%)" opacity="0.15" /><circle cx="78.18" cy="75.58" r="0.81" fill="hsl(200,45%,88%)" opacity="0.15" /><circle cx="533.85" cy="198.51" r="0.90" fill="hsl(268,32%,82%)" opacity="0.15" /><circle cx="93.79" cy="221.02" r="0.39" fill="hsl(200,45%,88%)" opacity="0.15" /><circle cx="654.64" cy="207.07" r="0.41" fill="hsl(0,0%,100%)" opacity="0.15" /><circle cx="827.61" cy="149.30" r="0.33" fill="hsl(15,35%,80%)" opacity="0.15" /><circle cx="93.13" cy="215.05" r="0.58" fill="hsl(0,0%,100%)" opacity="0.15" /><circle cx="160.00" cy="152.00" r="44.00" fill="url(#sun-glow)" /><text x="160.00" y="157.00" font-family="monospace" font-size="17.00" fill="#fff3c4" text-anchor="middle" font-weight="bold">727</text><text x="160.00" y="169.00" font-family="monospace" font-size="7.00" fill="rgba(122,172,216,0.75)" text-anchor="middle">contributions</text><circle cx="160.00" cy="152.00" r="50.00" fill="none" stroke="#5d7ea8" stroke-width="0.40" opacity="0.18" /><circle cx="160.00" cy="152.00" r="84.50" fill="none" stroke="#5d7ea8" stroke-width="0.40" opacity="0.18" /><circle cx="160.00" cy="152.00" r="119.00" fill="none" stroke="#5d7ea8" stroke-width="0.40" opacity="0.18" /><line x1="171.57" y1="19.71" x2="172.08" y2="13.98" stroke="rgba(122,172,216,0.75)" stroke-width="0.60" /><line x1="186.71" y1="21.91" x2="187.87" y2="16.28" stroke="rgba(122,172,216,0.75)" stroke-width="0.60" /><text x="215.15" y="20.90" font-family="monospace" font-size="8.00" fill="rgba(122,172,216,0.75)" text-anchor="middle">May</text><line x1="253.28" y1="57.48" x2="257.32" y2="53.39" stroke="rgba(122,172,216,0.75)" stroke-width="0.60" /><text x="279.32" y="72.61" font-family="monospace" font-size="8.00" fill="rgba(122,172,216,0.75)" text-anchor="middle">Jun</text><line x1="285.59" y1="108.85" x2="291.03" y2="106.98" stroke="rgba(122,172,216,0.75)" stroke-width="0.60" /><text x="303.51" y="134.29" font-family="monospace" font-size="8.00" fill="rgba(122,172,216,0.75)" text-anchor="middle">Jul</text><line x1="291.68" y1="169.23" x2="297.38" y2="169.97" stroke="rgba(122,172,216,0.75)" stroke-width="0.60" /><text x="297.74" y="200.30" font-family="monospace" font-size="8.00" fill="rgba(122,172,216,0.75)" text-anchor="middle">Aug</text><line x1="261.02" y1="238.20" x2="265.40" y2="241.93" stroke="rgba(122,172,216,0.75)" stroke-width="0.60" /><text x="250.81" y="268.04" font-family="monospace" font-size="8.00" fill="rgba(122,172,216,0.75)" text-anchor="middle">Sep</text><line x1="212.13" y1="274.14" x2="214.39" y2="279.43" stroke="rgba(122,172,216,0.75)" stroke-width="0.60" /><text x="191.04" y="296.64" font-family="monospace" font-size="8.00" fill="rgba(122,172,216,0.75)" text-anchor="middle">Oct</text><line x1="152.35" y1="284.58" x2="152.02" y2="290.32" stroke="rgba(122,172,216,0.75)" stroke-width="0.60" /><text x="124.79" y="295.66" font-family="monospace" font-size="8.00" fill="rgba(122,172,216,0.75)" text-anchor="middle">Nov</text><line x1="81.34" y1="259.00" x2="77.94" y2="263.63" stroke="rgba(122,172,216,0.75)" stroke-width="0.60" /><text x="53.83" y="253.76" font-family="monospace" font-size="8.00" fill="rgba(122,172,216,0.75)" text-anchor="middle">Dec</text><line x1="41.95" y1="212.83" x2="36.84" y2="215.47" stroke="rgba(122,172,216,0.75)" stroke-width="0.60" /><text x="20.98" y="196.22" font-family="monospace" font-size="8.00" fill="rgba(122,172,216,0.75)" text-anchor="middle">Jan</text><line x1="27.87" y1="138.68" x2="22.15" y2="138.11" stroke="rgba(122,172,216,0.75)" stroke-width="0.60" /><text x="20.97" y="113.81" font-family="monospace" font-size="8.00" fill="rgba(122,172,216,0.75)" text-anchor="middle">Feb</text><line x1="47.59" y1="81.29" x2="42.72" y2="78.23" stroke="rgba(122,172,216,0.75)" stroke-width="0.60" /><text x="53.82" y="56.26" font-family="monospace" font-size="8.00" fill="rgba(122,172,216,0.75)" text-anchor="middle">Mar</text><line x1="90.78" y1="38.67" x2="87.78" y2="33.76" stroke="rgba(122,172,216,0.75)" stroke-width="0.60" /><text x="108.83" y="19.33" font-family="monospace" font-size="8.00" fill="rgba(122,172,216,0.75)" text-anchor="middle">Apr</text><circle cx="173.86" cy="57.01" r="1.86" fill="hsl(214.0,60%,54%)" opacity="0.73" /><circle cx="177.18" cy="34.25" r="1.66" fill="hsl(214.0,56%,48%)" opacity="0.68" /><circle cx="183.56" cy="107.90" r="1.66" fill="hsl(214.0,56%,48%)" opacity="0.68" /><circle cx="223.93" cy="116.76" r="1.66" fill="hsl(214.0,56%,48%)" opacity="0.68" /><circle cx="254.14" cy="100.10" r="2.18" fill="hsl(214.0,68%,66%)" opacity="0.83" /><circle cx="206.27" cy="133.06" r="2.26" fill="hsl(214.0,70%,70%)" opacity="0.86" /><circle cx="270.13" cy="106.91" r="1.66" fill="hsl(214.0,56%,48%)" opacity="0.68" /><circle cx="241.36" cy="129.19" r="1.66" fill="hsl(214.0,56%,48%)" opacity="0.68" /><circle cx="209.01" cy="189.16" r="2.32" fill="hsl(214.0,72%,73%)" opacity="0.88" /><circle cx="218.17" cy="196.11" r="2.29" fill="hsl(214.0,71%,72%)" opacity="0.87" /><circle cx="227.33" cy="203.05" r="2.44" fill="hsl(208.2,76%,79%)" opacity="0.93" /><circle cx="236.50" cy="210.00" r="2.60" fill="hsl(200.0,82%,88%)" opacity="1.00" /><circle cx="204.41" cy="194.55" r="2.50" fill="hsl(205.3,78%,82%)" opacity="0.95" /><circle cx="245.93" cy="234.33" r="2.13" fill="hsl(214.0,67%,64%)" opacity="0.81" /><circle cx="199.22" cy="199.37" r="2.35" fill="hsl(212.9,73%,74%)" opacity="0.89" /><circle cx="213.89" cy="217.09" r="2.06" fill="hsl(214.0,65%,61%)" opacity="0.79" /><circle cx="221.22" cy="225.95" r="2.22" fill="hsl(214.0,69%,68%)" opacity="0.84" /><circle cx="228.56" cy="234.80" r="2.32" fill="hsl(214.0,72%,73%)" opacity="0.88" /><circle cx="235.89" cy="243.66" r="2.22" fill="hsl(214.0,69%,68%)" opacity="0.84" /><circle cx="187.25" cy="193.92" r="1.86" fill="hsl(214.0,60%,54%)" opacity="0.73" /><circle cx="193.51" cy="203.57" r="1.98" fill="hsl(214.0,63%,58%)" opacity="0.76" /><circle cx="218.58" cy="242.14" r="2.22" fill="hsl(214.0,69%,68%)" opacity="0.84" /><circle cx="207.82" cy="248.28" r="1.98" fill="hsl(214.0,63%,58%)" opacity="0.76" /><circle cx="212.94" cy="258.58" r="2.13" fill="hsl(214.0,67%,64%)" opacity="0.81" /><circle cx="188.64" cy="231.50" r="2.43" fill="hsl(209.0,76%,78%)" opacity="0.92" /><circle cx="200.33" cy="263.96" r="2.37" fill="hsl(211.8,74%,75%)" opacity="0.90" /><circle cx="171.04" cy="247.36" r="1.98" fill="hsl(214.0,63%,58%)" opacity="0.76" /><circle cx="172.36" cy="258.79" r="1.66" fill="hsl(214.0,56%,48%)" opacity="0.68" /><circle cx="160.00" cy="213.50" r="1.66" fill="hsl(214.0,56%,48%)" opacity="0.68" /><circle cx="160.00" cy="236.50" r="1.86" fill="hsl(214.0,60%,54%)" opacity="0.73" /><circle cx="160.00" cy="248.00" r="1.86" fill="hsl(214.0,60%,54%)" opacity="0.73" /><circle cx="152.93" cy="213.09" r="1.66" fill="hsl(214.0,56%,48%)" opacity="0.68" /><circle cx="148.96" cy="247.36" r="1.66" fill="hsl(214.0,56%,48%)" opacity="0.68" /><circle cx="145.95" cy="211.87" r="1.66" fill="hsl(214.0,56%,48%)" opacity="0.68" /><circle cx="131.36" cy="231.50" r="1.86" fill="hsl(214.0,60%,54%)" opacity="0.73" /><circle cx="84.11" cy="243.66" r="2.57" fill="hsl(201.4,81%,87%)" opacity="0.99" /><circle cx="98.98" cy="210.46" r="1.98" fill="hsl(214.0,63%,58%)" opacity="0.76" /><circle cx="74.07" cy="234.33" r="2.56" fill="hsl(202.4,80%,85%)" opacity="0.98" /><circle cx="120.16" cy="182.21" r="2.37" fill="hsl(211.8,74%,75%)" opacity="0.90" /><circle cx="110.99" cy="189.16" r="1.86" fill="hsl(214.0,60%,54%)" opacity="0.73" /><circle cx="83.50" cy="210.00" r="2.29" fill="hsl(214.0,71%,72%)" opacity="0.87" /><circle cx="101.30" cy="170.35" r="2.35" fill="hsl(212.9,73%,74%)" opacity="0.89" /><circle cx="54.39" cy="172.06" r="1.86" fill="hsl(214.0,60%,54%)" opacity="0.73" /><circle cx="98.56" cy="149.37" r="2.13" fill="hsl(214.0,67%,64%)" opacity="0.81" /><circle cx="65.20" cy="136.89" r="1.98" fill="hsl(214.0,63%,58%)" opacity="0.76" /><circle cx="45.42" cy="119.88" r="1.98" fill="hsl(214.0,63%,58%)" opacity="0.76" /><circle cx="103.09" cy="128.70" r="2.60" fill="hsl(200.0,82%,88%)" opacity="1.00" /><circle cx="65.86" cy="100.10" r="2.32" fill="hsl(214.0,72%,73%)" opacity="0.88" /><circle cx="109.91" cy="116.31" r="2.39" fill="hsl(210.8,75%,76%)" opacity="0.91" /><circle cx="91.18" cy="102.96" r="2.56" fill="hsl(202.4,80%,85%)" opacity="0.98" /><circle cx="81.82" cy="96.29" r="2.44" fill="hsl(208.2,76%,79%)" opacity="0.93" /><circle cx="72.45" cy="89.62" r="1.86" fill="hsl(214.0,60%,54%)" opacity="0.73" /><circle cx="114.35" cy="110.79" r="2.52" fill="hsl(204.1,79%,84%)" opacity="0.97" /><circle cx="126.99" cy="114.45" r="1.66" fill="hsl(214.0,56%,48%)" opacity="0.68" /><circle cx="96.61" cy="79.90" r="2.51" fill="hsl(204.7,79%,83%)" opacity="0.96" /><circle cx="129.02" cy="73.38" r="1.66" fill="hsl(214.0,56%,48%)" opacity="0.68" /><circle cx="151.12" cy="91.14" r="2.49" fill="hsl(206.0,78%,82%)" opacity="0.95" /><circle cx="149.46" cy="79.76" r="2.22" fill="hsl(214.0,69%,68%)" opacity="0.84" /><circle cx="147.80" cy="68.39" r="1.66" fill="hsl(214.0,56%,48%)" opacity="0.68" /><circle cx="146.14" cy="57.01" r="1.66" fill="hsl(214.0,56%,48%)" opacity="0.68" /><g transform="rotate(-3.9 175.52 45.63)"><circle cx="175.52" cy="45.63" r="5.90" fill="hsla(48,100%,74%,0.35)" fill-opacity="0.35" /><circle cx="175.52" cy="45.63" r="3.54" fill="hsla(50,100%,99%,0.75)" filter="url(#organic-sphere)" /><line x1="172.66" y1="42.76" x2="178.39" y2="48.49" stroke="hsl(48,100%,92%)" stroke-width="0.40" stroke-opacity="0.42" stroke-linecap="round" /><line x1="172.66" y1="48.49" x2="178.39" y2="42.76" stroke="hsl(48,100%,92%)" stroke-width="0.40" stroke-opacity="0.42" stroke-linecap="round" /><line x1="166.52" y1="45.63" x2="184.52" y2="45.63" stroke="hsl(48,100%,92%)" stroke-width="0.50" stroke-linecap="round" /><line x1="175.52" y1="36.63" x2="175.52" y2="54.63" stroke="hsl(48,100%,92%)" stroke-width="0.50" stroke-linecap="round" /><circle cx="175.52" cy="45.63" r="1.38" fill="hsl(48,100%,92%)" /></g><g transform="rotate(-32.4 245.66 216.95)"><circle cx="245.66" cy="216.95" r="5.90" fill="hsla(48,100%,74%,0.35)" fill-opacity="0.35" /><circle cx="245.66" cy="216.95" r="3.54" fill="hsla(50,100%,99%,0.75)" filter="url(#organic-sphere)" /><line x1="242.80" y1="214.09" x2="248.52" y2="219.81" stroke="hsl(48,100%,92%)" stroke-width="0.40" stroke-opacity="0.42" stroke-linecap="round" /><line x1="242.80" y1="219.81" x2="248.52" y2="214.09" stroke="hsl(48,100%,92%)" stroke-width="0.40" stroke-opacity="0.42" stroke-linecap="round" /><line x1="236.66" y1="216.95" x2="254.66" y2="216.95" stroke="hsl(48,100%,92%)" stroke-width="0.50" stroke-linecap="round" /><line x1="245.66" y1="207.95" x2="245.66" y2="225.95" stroke="hsl(48,100%,92%)" stroke-width="0.50" stroke-linecap="round" /><circle cx="245.66" cy="216.95" r="1.38" fill="hsl(48,100%,92%)" /></g><g transform="rotate(-16.3 254.82 223.90)"><circle cx="254.82" cy="223.90" r="5.90" fill="hsla(48,100%,74%,0.35)" fill-opacity="0.35" /><circle cx="254.82" cy="223.90" r="3.54" fill="hsla(50,100%,99%,0.75)" filter="url(#organic-sphere)" /><line x1="251.96" y1="221.03" x2="257.69" y2="226.76" stroke="hsl(48,100%,92%)" stroke-width="0.40" stroke-opacity="0.42" stroke-linecap="round" /><line x1="251.96" y1="226.76" x2="257.69" y2="221.03" stroke="hsl(48,100%,92%)" stroke-width="0.40" stroke-opacity="0.42" stroke-linecap="round" /><line x1="245.82" y1="223.90" x2="263.82" y2="223.90" stroke="hsl(48,100%,92%)" stroke-width="0.50" stroke-linecap="round" /><line x1="254.82" y1="214.90" x2="254.82" y2="232.90" stroke="hsl(48,100%,92%)" stroke-width="0.50" stroke-linecap="round" /><circle cx="254.82" cy="223.90" r="1.38" fill="hsl(48,100%,92%)" /></g><g transform="rotate(29.9 192.54 242.32)"><circle cx="192.54" cy="242.32" r="5.90" fill="hsla(48,100%,74%,0.35)" fill-opacity="0.35" /><circle cx="192.54" cy="242.32" r="3.54" fill="hsla(50,100%,99%,0.75)" filter="url(#organic-sphere)" /><line x1="189.67" y1="239.45" x2="195.40" y2="245.18" stroke="hsl(48,100%,92%)" stroke-width="0.40" stroke-opacity="0.42" stroke-linecap="round" /><line x1="189.67" y1="245.18" x2="195.40" y2="239.45" stroke="hsl(48,100%,92%)" stroke-width="0.40" stroke-opacity="0.42" stroke-linecap="round" /><line x1="183.54" y1="242.32" x2="201.54" y2="242.32" stroke="hsl(48,100%,92%)" stroke-width="0.50" stroke-linecap="round" /><line x1="192.54" y1="233.32" x2="192.54" y2="251.32" stroke="hsl(48,100%,92%)" stroke-width="0.50" stroke-linecap="round" /><circle cx="192.54" cy="242.32" r="1.38" fill="hsl(48,100%,92%)" /></g><g transform="rotate(44.6 196.43 253.14)"><circle cx="196.43" cy="253.14" r="5.90" fill="hsla(48,100%,74%,0.35)" fill-opacity="0.35" /><circle cx="196.43" cy="253.14" r="3.54" fill="hsla(50,100%,99%,0.75)" filter="url(#organic-sphere)" /><line x1="193.57" y1="250.27" x2="199.30" y2="256.00" stroke="hsl(48,100%,92%)" stroke-width="0.40" stroke-opacity="0.42" stroke-linecap="round" /><line x1="193.57" y1="256.00" x2="199.30" y2="250.27" stroke="hsl(48,100%,92%)" stroke-width="0.40" stroke-opacity="0.42" stroke-linecap="round" /><line x1="187.43" y1="253.14" x2="205.43" y2="253.14" stroke="hsl(48,100%,92%)" stroke-width="0.50" stroke-linecap="round" /><line x1="196.43" y1="244.14" x2="196.43" y2="262.14" stroke="hsl(48,100%,92%)" stroke-width="0.50" stroke-linecap="round" /><circle cx="196.43" cy="253.14" r="1.38" fill="hsl(48,100%,92%)" /></g><g transform="rotate(-19.1 174.05 211.87)"><circle cx="174.05" cy="211.87" r="5.90" fill="hsla(48,100%,74%,0.35)" fill-opacity="0.35" /><circle cx="174.05" cy="211.87" r="3.54" fill="hsla(50,100%,99%,0.75)" filter="url(#organic-sphere)" /><line x1="171.19" y1="209.01" x2="176.91" y2="214.74" stroke="hsl(48,100%,92%)" stroke-width="0.40" stroke-opacity="0.42" stroke-linecap="round" /><line x1="171.19" y1="214.74" x2="176.91" y2="209.01" stroke="hsl(48,100%,92%)" stroke-width="0.40" stroke-opacity="0.42" stroke-linecap="round" /><line x1="165.05" y1="211.87" x2="183.05" y2="211.87" stroke="hsl(48,100%,92%)" stroke-width="0.50" stroke-linecap="round" /><line x1="174.05" y1="202.87" x2="174.05" y2="220.87" stroke="hsl(48,100%,92%)" stroke-width="0.50" stroke-linecap="round" /><circle cx="174.05" cy="211.87" r="1.38" fill="hsl(48,100%,92%)" /></g><g transform="rotate(21.8 113.73 133.06)"><circle cx="113.73" cy="133.06" r="5.90" fill="hsla(48,100%,74%,0.35)" fill-opacity="0.35" /><circle cx="113.73" cy="133.06" r="3.54" fill="hsla(50,100%,99%,0.75)" filter="url(#organic-sphere)" /><line x1="110.86" y1="130.19" x2="116.59" y2="135.92" stroke="hsl(48,100%,92%)" stroke-width="0.40" stroke-opacity="0.42" stroke-linecap="round" /><line x1="110.86" y1="135.92" x2="116.59" y2="130.19" stroke="hsl(48,100%,92%)" stroke-width="0.40" stroke-opacity="0.42" stroke-linecap="round" /><line x1="104.73" y1="133.06" x2="122.73" y2="133.06" stroke="hsl(48,100%,92%)" stroke-width="0.50" stroke-linecap="round" /><line x1="113.73" y1="124.06" x2="113.73" y2="142.06" stroke="hsl(48,100%,92%)" stroke-width="0.50" stroke-linecap="round" /><circle cx="113.73" cy="133.06" r="1.38" fill="hsl(48,100%,92%)" /></g><text x="340.00" y="40.00" font-family="monospace" font-size="18.00" fill="#e8f3ff" letter-spacing="6.00">STAKS-SOR</text><text x="340.00" y="56.00" font-family="monospace" font-size="9.00" fill="rgba(122,172,216,0.75)">20 Apr 2025 → 23 Apr 2026</text><text x="340.00" y="104.00" font-family="monospace" font-size="26.00" fill="#dff1ff">67</text><text x="340.00" y="119.00" font-family="monospace" font-size="8.00" fill="rgba(122,172,216,0.75)" letter-spacing="1.50">ACTIVE DAYS</text><text x="590.00" y="104.00" font-family="monospace" font-size="26.00" fill="#dff1ff">6d</text><text x="590.00" y="119.00" font-family="monospace" font-size="8.00" fill="rgba(122,172,216,0.75)" letter-spacing="1.50">LONGEST STREAK</text><text x="340.00" y="162.00" font-family="monospace" font-size="26.00" fill="#dff1ff">46</text><text x="340.00" y="177.00" font-family="monospace" font-size="8.00" fill="rgba(122,172,216,0.75)" letter-spacing="1.50">BEST DAY · 25 APR</text><text x="590.00" y="162.00" font-family="monospace" font-size="26.00" fill="#dff1ff">Mon</text><text x="590.00" y="177.00" font-family="monospace" font-size="8.00" fill="rgba(122,172,216,0.75)" letter-spacing="1.50">BUSIEST WEEKDAY</text><text x="340.00" y="208.00" font-family="monospace" font-size="8.00" fill="rgba(122,172,216,0.75)" letter-spacing="1.50">WEEKLY VOLUME</text><rect x="340.00" y="232.99" width="8.04" height="29.01" rx="1.00" fill="rgb(64,164,207)" /><rect x="350.04" y="260.00" width="8.04" height="2.00" rx="1.00" fill="#0e182b" /><rect x="360.08" y="260.00" width="8.04" height="2.00" rx="1.00" fill="#0e182b" /><rect x="370.11" y="256.14" width="8.04" height="5.86" rx="1.00" fill="rgb(15,39,77)" /><rect x="380.15" y="260.00" width="8.04" height="2.00" rx="1.00" fill="#0e182b" /><rect x="390.19" y="260.00" width="8.04" height="2.00" rx="1.00" fill="#0e182b" /><rect x="400.23" y="260.00" width="8.04" height="2.00" rx="1.00" fill="#0e182b" /><rect x="410.26" y="260.00" width="8.04" height="2.00" rx="1.00" fill="#0e182b" /><rect x="420.30" y="249.79" width="8.04" height="12.21" rx="1.00" fill="rgb(19,59,112)" /><rect x="430.34" y="248.42" width="8.04" height="13.58" rx="1.00" fill="rgb(21,65,120)" /><rect x="440.38" y="256.14" width="8.04" height="5.86" rx="1.00" fill="rgb(15,39,77)" /><rect x="450.42" y="260.00" width="8.04" height="2.00" rx="1.00" fill="#0e182b" /><rect x="460.45" y="260.00" width="8.04" height="2.00" rx="1.00" fill="#0e182b" /><rect x="470.49" y="260.00" width="8.04" height="2.00" rx="1.00" fill="#0e182b" /><rect x="480.53" y="260.00" width="8.04" height="2.00" rx="1.00" fill="#0e182b" /><rect x="490.57" y="260.00" width="8.04" height="2.00" rx="1.00" fill="#0e182b" /><rect x="500.60" y="260.00" width="8.04" height="2.00" rx="1.00" fill="#0e182b" /><rect x="510.64" y="260.00" width="8.04" height="2.00" rx="1.00" fill="#0e182b" /><rect x="520.68" y="216.00" width="8.04" height="46.00" rx="1.00" fill="rgb(240,251,255)" /><rect x="530.72" y="240.70" width="8.04" height="21.30" rx="1.00" fill="rgb(30,109,169)" /><rect x="540.75" y="235.90" width="8.04" height="26.10" rx="1.00" fill="rgb(46,141,195)" /><rect x="550.79" y="246.63" width="8.04" height="15.37" rx="1.00" fill="rgb(23,75,131)" /><rect x="560.83" y="249.08" width="8.04" height="12.92" rx="1.00" fill="rgb(20,62,116)" /><rect x="570.87" y="222.59" width="8.04" height="39.41" rx="1.00" fill="rgb(157,228,241)" /><rect x="580.91" y="236.85" width="8.04" height="25.15" rx="1.00" fill="rgb(40,133,191)" /><rect x="590.94" y="252.28" width="8.04" height="9.72" rx="1.00" fill="rgb(18,52,98)" /><rect x="600.98" y="251.37" width="8.04" height="10.63" rx="1.00" fill="rgb(18,54,103)" /><rect x="611.02" y="254.54" width="8.04" height="7.46" rx="1.00" fill="rgb(16,44,86)" /><rect x="621.06" y="256.14" width="8.04" height="5.86" rx="1.00" fill="rgb(15,39,77)" /><rect x="631.09" y="254.54" width="8.04" height="7.46" rx="1.00" fill="rgb(16,44,86)" /><rect x="641.13" y="260.00" width="8.04" height="2.00" rx="1.00" fill="#0e182b" /><rect x="651.17" y="260.00" width="8.04" height="2.00" rx="1.00" fill="#0e182b" /><rect x="661.21" y="239.95" width="8.04" height="22.05" rx="1.00" fill="rgb(31,113,174)" /><rect x="671.25" y="239.58" width="8.04" height="22.42" rx="1.00" fill="rgb(31,115,176)" /><rect x="681.28" y="241.49" width="8.04" height="20.51" rx="1.00" fill="rgb(29,104,164)" /><rect x="691.32" y="260.00" width="8.04" height="2.00" rx="1.00" fill="#0e182b" /><rect x="701.36" y="260.00" width="8.04" height="2.00" rx="1.00" fill="#0e182b" /><rect x="711.40" y="247.20" width="8.04" height="14.80" rx="1.00" fill="rgb(22,72,127)" /><rect x="721.43" y="254.54" width="8.04" height="7.46" rx="1.00" fill="rgb(16,44,86)" /><rect x="731.47" y="260.00" width="8.04" height="2.00" rx="1.00" fill="#0e182b" /><rect x="741.51" y="251.37" width="8.04" height="10.63" rx="1.00" fill="rgb(18,54,103)" /><rect x="751.55" y="253.32" width="8.04" height="8.68" rx="1.00" fill="rgb(17,48,92)" /><rect x="761.58" y="253.32" width="8.04" height="8.68" rx="1.00" fill="rgb(17,48,92)" /><rect x="771.62" y="229.86" width="8.04" height="32.14" rx="1.00" fill="rgb(84,189,220)" /><rect x="781.66" y="247.80" width="8.04" height="14.20" rx="1.00" fill="rgb(21,69,124)" /><rect x="791.70" y="231.12" width="8.04" height="30.88" rx="1.00" fill="rgb(76,179,215)" /><rect x="801.74" y="241.90" width="8.04" height="20.10" rx="1.00" fill="rgb(28,102,161)" /><rect x="811.77" y="241.90" width="8.04" height="20.10" rx="1.00" fill="rgb(28,102,161)" /><rect x="821.81" y="260.00" width="8.04" height="2.00" rx="1.00" fill="#0e182b" /><rect x="831.85" y="260.00" width="8.04" height="2.00" rx="1.00" fill="#0e182b" /><rect x="841.89" y="256.14" width="8.04" height="5.86" rx="1.00" fill="rgb(15,39,77)" /><rect x="851.92" y="260.00" width="8.04" height="2.00" rx="1.00" fill="#0e182b" /><rect x="861.96" y="239.58" width="8.04" height="22.42" rx="1.00" fill="rgb(31,115,176)" /><text x="350.04" y="275.00" font-family="monospace" font-size="8.00" fill="rgba(122,172,216,0.75)">May</text><text x="400.23" y="275.00" font-family="monospace" font-size="8.00" fill="rgba(122,172,216,0.75)">Jun</text><text x="440.38" y="275.00" font-family="monospace" font-size="8.00" fill="rgba(122,172,216,0.75)">Jul</text><text x="480.53" y="275.00" font-family="monospace" font-size="8.00" fill="rgba(122,172,216,0.75)">Aug</text><text x="530.72" y="275.00" font-family="monospace" font-size="8.00" fill="rgba(122,172,216,0.75)">Sep</text><text x="570.87" y="275.00" font-family="monospace" font-size="8.00" fill="rgba(122,172,216,0.75)">Oct</text><text x="611.02" y="275.00" font-family="monospace" font-size="8.00" fill="rgba(122,172,216,0.75)">Nov</text><text x="661.21" y="275.00" font-family="monospace" font-size="8.00" fill="rgba(122,172,216,0.75)">Dec</text><text x="701.36" y="275.00" font-family="monospace" font-size="8.00" fill="rgba(122,172,216,0.75)">Jan</text><text x="751.55" y="275.00" font-family="monospace" font-size="8.00" fill="rgba(122,172,216,0.75)">Feb</text><text x="791.70" y="275.00" font-family="monospace" font-size="8.00" fill="rgba(122,172,216,0.75)">Mar</text><text x="831.85" y="275.00" font-family="monospace" font-size="8.00" fill="rgba(122,172,216,0.75)">Apr</text></svg>