<svg xmlns="http://www.w3.org/2000/svg" viewBox="0 0 896 150" width="896" height="150" role="img" aria-label="Cinematic comet contribution graph"><rect x="0.00" y="0.00" width="896.00" height="150.00" fill="#010209" /><defs><linearGradient id="tail-grad" x1="0" y1="0" x2="1" y2="0"><stop offset="0%" stop-color="#c8e0ff" stop-opacity="0"/><stop offset="40%" stop-color="#c8e0ff" stop-opacity="0.1"/><stop offset="70%" stop-color="#d8ecff" stop-opacity="0.5"/><stop offset="90%" stop-color="#ffffff" stop-opacity="0.85"/><stop offset="100%" stop-color="#ffffff" stop-opacity="0"/></linearGradient><filter id="tail-blur" x="-20%" y="-100%" width="140%" height="300%"><feGaussianBlur stdDeviation="1.2"/></filter><filter id="organic-sphere" x="-80%" y="-80%" width="260%" height="260%"><feTurbulence type="fractalNoise" baseFrequency="0.035" numOctaves="2" seed="7" result="noise" /><feDisplacementMap in="SourceGraphic" in2="noise" scale="4" xChannelSelector="R" yChannelSelector="G" result="displaced" /><feGaussianBlur in="displaced" stdDeviation="1.4" /></filter></defs><text x="22.00" y="55.00" font-family="monospace" font-size="10.00" fill="rgba(122,172,216,0.75)" text-anchor="end">Mon</text><text x="22.00" y="87.00" font-family="monospace" font-size="10.00" fill="rgba(122,172,216,0.75)" text-anchor="end">Wed</text><text x="22.00" y="119.00" font-family="monospace" font-size="10.00" fill="rgba(122,172,216,0.75)" text-anchor="end">Fri</text><text x="38.00" y="12.00" font-family="monospace" font-size="10.00" fill="rgba(122,172,216,0.75)">Apr</text><text x="70.00" y="12.00" font-family="monospace" font-size="10.00" fill="rgba(122,172,216,0.75)">May</text><text x="134.00" y="12.00" font-family="monospace" font-size="10.00" fill="rgba(122,172,216,0.75)">Jun</text><text x="198.00" y="12.00" font-family="monospace" font-size="10.00" fill="rgba(122,172,216,0.75)">Jul</text><text x="262.00" y="12.00" font-family="monospace" font-size="10.00" fill="rgba(122,172,216,0.75)">Aug</text><text x="342.00" y="12.00" font-family="monospace" font-size="10.00" fill="rgba(122,172,216,0.75)">Sep</text><text x="406.00" y="12.00" font-family="monospace" font-size="10.00" fill="rgba(122,172,216,0.75)">Oct</text><text x="470.00" y="12.00" font-family="monospace" font-size="10.00" fill="rgba(122,172,216,0.75)">Nov</text><text x="550.00" y="12.00" font-family="monospace" font-size="10.00" fill="rgba(122,172,216,0.75)">Dec</text><text x="614.00" y="12.00" font-family="monospace" font-size="10.00" fill="rgba(122,172,216,0.75)">Jan</text><text x="694.00" y="12.00" font-family="monospace" font-size="10.00" fill="rgba(122,172,216,0.75)">Feb</text><text x="758.00" y="12.00" font-family="monospace" font-size="10.00" fill="rgba(122,172,216,0.75)">Mar</text><text x="822.00" y="12.00" font-family="monospace" font-size="10.00" fill="rgba(122,172,216,0.75)">Apr</text><circle cx="738.04" cy="34.24" r="0.79" fill="hsl(0,0%,100%)" opacity="0.05"><animate attributeName="opacity" values="0.05;0.3;0.05" dur="7s" begin="-6.03s" repeatCount="indefinite" /></circle><circle cx="651.31" cy="48.81" r="0.10" fill="hsl(0,0%,100%)" opacity="0.05"><animate attributeName="opacity" values="0.05;0.3;0.05" dur="7s" begin="-4.67s" repeatCount="indefinite" /></circle><circle cx="541.05" cy="133.20" r="0.52" fill="hsl(0,0%,100%)" opacity="0.05"><animate attributeName="opacity" values="0.05;0.3;0.05" dur="7s" begin="-0.43s" repeatCount="indefinite" /></circle><circle cx="699.44" cy="110.07" r="0.81" fill="hsl(0,0%,100%)" opacity="0.05"><animate attributeName="opacity" values="0.05;0.3;0.05" dur="7s" begin="-3.91s" repeatCount="indefinite" /></circle><circle cx="256.74" cy="29.52" r="0.71" fill="hsl(268,32%,82%)" opacity="0.05"><animate attributeName="opacity" values="0.05;0.3;0.05" dur="7s" begin="-4.55s" repeatCount="indefinite" /></circle><circle cx="141.55" cy="77.97" r="0.92" fill="hsl(130,22%,80%)" opacity="0.05"><animate attributeName="opacity" values="0.05;0.3;0.05" dur="7s" begin="-1.47s" repeatCount="indefinite" /></circle><circle cx="196.52" cy="71.19" r="1.33" fill="hsl(15,35%,80%)" opacity="0.05"><animate attributeName="opacity" values="0.05;0.3;0.05" dur="7s" begin="-1.85s" repeatCount="indefinite" /></circle><circle cx="869.56" cy="39.15" r="0.00" fill="hsl(200,45%,88%)" opacity="0.05"><animate attributeName="opacity" values="0.05;0.3;0.05" dur="7s" begin="-1.84s" repeatCount="indefinite" /></circle><circle cx="703.98" cy="28.88" r="1.22" fill="hsl(0,0%,100%)" opacity="0.05"><animate attributeName="opacity" values="0.05;0.3;0.05" dur="7s" begin="-3.36s" repeatCount="indefinite" /></circle><circle cx="257.67" cy="83.36" r="0.04" fill="hsl(0,0%,100%)" opacity="0.05"><animate attributeName="opacity" values="0.05;0.3;0.05" dur="7s" begin="-6.03s" repeatCount="indefinite" /></circle><circle cx="725.27" cy="56.24" r="0.36" fill="hsl(0,0%,100%)" opacity="0.05"><animate attributeName="opacity" values="0.05;0.3;0.05" dur="7s" begin="-3.16s" repeatCount="indefinite" /></circle><circle cx="528.02" cy="66.59" r="0.47" fill="hsl(130,22%,80%)" opacity="0.05"><animate attributeName="opacity" values="0.05;0.3;0.05" dur="7s" begin="-1.06s" repeatCount="indefinite" /></circle><circle cx="734.03" cy="128.44" r="1.02" fill="hsl(0,0%,100%)" opacity="0.05"><animate attributeName="opacity" values="0.05;0.3;0.05" dur="7s" begin="-2.31s" repeatCount="indefinite" /></circle><circle cx="97.63" cy="58.85" r="0.76" fill="hsl(268,32%,82%)" opacity="0.05"><animate attributeName="opacity" values="0.05;0.3;0.05" dur="7s" begin="-2.16s" repeatCount="indefinite" /></circle><circle cx="586.36" cy="85.07" r="0.44" fill="hsl(15,35%,80%)" opacity="0.05"><animate attributeName="opacity" values="0.05;0.3;0.05" dur="7s" begin="-5.61s" repeatCount="indefinite" /></circle><circle cx="813.53" cy="111.59" r="1.36" fill="hsl(0,0%,100%)" opacity="0.05"><animate attributeName="opacity" values="0.05;0.3;0.05" dur="7s" begin="-5.70s" repeatCount="indefinite" /></circle><circle cx="469.37" cy="105.26" r="0.75" fill="hsl(200,45%,88%)" opacity="0.05"><animate attributeName="opacity" values="0.05;0.3;0.05" dur="7s" begin="-0.62s" repeatCount="indefinite" /></circle><circle cx="276.20" cy="69.69" r="1.41" fill="hsl(200,45%,88%)" opacity="0.05"><animate attributeName="opacity" values="0.05;0.3;0.05" dur="7s" begin="-0.05s" repeatCount="indefinite" /></circle><circle cx="365.78" cy="136.97" r="1.14" fill="hsl(15,35%,80%)" opacity="0.05"><animate attributeName="opacity" values="0.05;0.3;0.05" dur="7s" begin="-2.85s" repeatCount="indefinite" /></circle><circle cx="832.16" cy="39.52" r="0.03" fill="hsl(130,22%,80%)" opacity="0.05"><animate attributeName="opacity" values="0.05;0.3;0.05" dur="7s" begin="-5.14s" repeatCount="indefinite" /></circle><circle cx="227.00" cy="44.11" r="0.43" fill="hsl(15,35%,80%)" opacity="0.05"><animate attributeName="opacity" values="0.05;0.3;0.05" dur="7s" begin="-4.02s" repeatCount="indefinite" /></circle><circle cx="867.67" cy="46.21" r="0.71" fill="hsl(0,0%,100%)" opacity="0.05"><animate attributeName="opacity" values="0.05;0.3;0.05" dur="7s" begin="-6.70s" repeatCount="indefinite" /></circle><circle cx="627.41" cy="71.59" r="1.41" fill="hsl(15,35%,80%)" opacity="0.05"><animate attributeName="opacity" values="0.05;0.3;0.05" dur="7s" begin="-2.17s" repeatCount="indefinite" /></circle><circle cx="240.73" cy="46.27" r="1.47" fill="hsl(200,45%,88%)" opacity="0.05"><animate attributeName="opacity" values="0.05;0.3;0.05" dur="7s" begin="-0.75s" repeatCount="indefinite" /></circle><circle cx="444.84" cy="72.45" r="1.49" fill="hsl(0,0%,100%)" opacity="0.05"><animate attributeName="opacity" values="0.05;0.3;0.05" dur="7s" begin="-2.44s" repeatCount="indefinite" /></circle><circle cx="246.79" cy="32.16" r="0.04" fill="hsl(0,0%,100%)" opacity="0.05"><animate attributeName="opacity" values="0.05;0.3;0.05" dur="7s" begin="-0.21s" repeatCount="indefinite" /></circle><circle cx="79.34" cy="57.44" r="0.69" fill="hsl(0,0%,100%)" opacity="0.05"><animate attributeName="opacity" values="0.05;0.3;0.05" dur="7s" begin="-2.82s" repeatCount="indefinite" /></circle><circle cx="135.81" cy="120.70" r="0.12" fill="hsl(130,22%,80%)" opacity="0.05"><animate attributeName="opacity" values="0.05;0.3;0.05" dur="7s" begin="-5.09s" repeatCount="indefinite" /></circle><circle cx="726.85" cy="40.82" r="0.52" fill="hsl(0,0%,100%)" opacity="0.05"><animate attributeName="opacity" values="0.05;0.3;0.05" dur="7s" begin="-1.64s" repeatCount="indefinite" /></circle><circle cx="127.28" cy="51.92" r="0.63" fill="hsl(0,0%,100%)" opacity="0.05"><animate attributeName="opacity" values="0.05;0.3;0.05" dur="7s" begin="-5.50s" repeatCount="indefinite" /></circle><circle cx="329.14" cy="119.25" r="1.29" fill="hsl(0,0%,100%)" opacity="0.05"><animate attributeName="opacity" values="0.05;0.3;0.05" dur="7s" begin="-4.59s" repeatCount="indefinite" /></circle><circle cx="460.56" cy="114.16" r="1.00" fill="hsl(0,0%,100%)" opacity="0.05"><animate attributeName="opacity" values="0.05;0.3;0.05" dur="7s" begin="-1.61s" repeatCount="indefinite" /></circle><circle cx="715.90" cy="117.70" r="1.48" fill="hsl(0,0%,100%)" opacity="0.05"><animate attributeName="opacity" values="0.05;0.3;0.05" dur="7s" begin="-3.42s" repeatCount="indefinite" /></circle><circle cx="501.13" cy="129.33" r="0.05" fill="hsl(0,0%,100%)" opacity="0.05"><animate attributeName="opacity" values="0.05;0.3;0.05" dur="7s" begin="-5.19s" repeatCount="indefinite" /></circle><circle cx="75.84" cy="122.06" r="0.64" fill="hsl(15,35%,80%)" opacity="0.05"><animate attributeName="opacity" values="0.05;0.3;0.05" dur="7s" begin="-6.18s" repeatCount="indefinite" /></circle><circle cx="432.11" cy="131.53" r="0.58" fill="hsl(0,0%,100%)" opacity="0.05"><animate attributeName="opacity" values="0.05;0.3;0.05" dur="7s" begin="-3.98s" repeatCount="indefinite" /></circle><circle cx="138.34" cy="122.43" r="1.17" fill="hsl(0,0%,100%)" opacity="0.05"><animate attributeName="opacity" values="0.05;0.3;0.05" dur="7s" begin="-2.57s" repeatCount="indefinite" /></circle><circle cx="256.49" cy="119.97" r="0.15" fill="hsl(0,0%,100%)" opacity="0.05"><animate attributeName="opacity" values="0.05;0.3;0.05" dur="7s" begin="-6.58s" repeatCount="indefinite" /></circle><circle cx="408.86" cy="58.40" r="1.43" fill="hsl(0,0%,100%)" opacity="0.05"><animate attributeName="opacity" values="0.05;0.3;0.05" dur="7s" begin="-6.91s" repeatCount="indefinite" /></circle><circle cx="420.73" cy="85.44" r="0.25" fill="hsl(200,45%,88%)" opacity="0.05"><animate attributeName="opacity" values="0.05;0.3;0.05" dur="7s" begin="-4.30s" repeatCount="indefinite" /></circle><circle cx="318.39" cy="123.57" r="0.01" fill="hsl(0,0%,100%)" opacity="0.05"><animate attributeName="opacity" values="0.05;0.3;0.05" dur="7s" begin="-5.26s" repeatCount="indefinite" /></circle><circle cx="422.29" cy="67.20" r="0.10" fill="hsl(0,0%,100%)" opacity="0.05"><animate attributeName="opacity" values="0.05;0.3;0.05" dur="7s" begin="-3.26s" repeatCount="indefinite" /></circle><circle cx="102.71" cy="112.94" r="0.51" fill="hsl(200,45%,88%)" opacity="0.05"><animate attributeName="opacity" values="0.05;0.3;0.05" dur="7s" begin="-6.56s" repeatCount="indefinite" /></circle><circle cx="732.43" cy="66.82" r="1.33" fill="hsl(0,0%,100%)" opacity="0.05"><animate attributeName="opacity" values="0.05;0.3;0.05" dur="7s" begin="-5.08s" repeatCount="indefinite" /></circle><circle cx="311.56" cy="40.62" r="1.31" fill="hsl(130,22%,80%)" opacity="0.05"><animate attributeName="opacity" values="0.05;0.3;0.05" dur="7s" begin="-1.35s" repeatCount="indefinite" /></circle><circle cx="827.73" cy="126.98" r="1.05" fill="hsl(0,0%,100%)" opacity="0.05"><animate attributeName="opacity" values="0.05;0.3;0.05" dur="7s" begin="-0.33s" repeatCount="indefinite" /></circle><circle cx="141.14" cy="30.28" r="1.18" fill="hsl(0,0%,100%)" opacity="0.05"><animate attributeName="opacity" values="0.05;0.3;0.05" dur="7s" begin="-2.87s" repeatCount="indefinite" /></circle><circle cx="286.23" cy="84.31" r="0.12" fill="hsl(0,0%,100%)" opacity="0.05"><animate attributeName="opacity" values="0.05;0.3;0.05" dur="7s" begin="-2.82s" repeatCount="indefinite" /></circle><circle cx="123.83" cy="128.93" r="0.40" fill="hsl(0,0%,100%)" opacity="0.05"><animate attributeName="opacity" values="0.05;0.3;0.05" dur="7s" begin="-6.29s" repeatCount="indefinite" /></circle><circle cx="124.67" cy="134.33" r="0.46" fill="hsl(0,0%,100%)" opacity="0.05"><animate attributeName="opacity" values="0.05;0.3;0.05" dur="7s" begin="-5.91s" repeatCount="indefinite" /></circle><circle cx="132.82" cy="129.54" r="0.56" fill="hsl(0,0%,100%)" opacity="0.05"><animate attributeName="opacity" values="0.05;0.3;0.05" dur="7s" begin="-5.75s" repeatCount="indefinite" /></circle><circle cx="799.72" cy="75.12" r="0.07" fill="hsl(0,0%,100%)" opacity="0.05"><animate attributeName="opacity" values="0.05;0.3;0.05" dur="7s" begin="-2.48s" repeatCount="indefinite" /></circle><circle cx="212.81" cy="123.90" r="0.22" fill="hsl(0,0%,100%)" opacity="0.05"><animate attributeName="opacity" values="0.05;0.3;0.05" dur="7s" begin="-0.85s" repeatCount="indefinite" /></circle><circle cx="767.03" cy="51.78" r="0.89" fill="hsl(0,0%,100%)" opacity="0.05"><animate attributeName="opacity" values="0.05;0.3;0.05" dur="7s" begin="-2.35s" repeatCount="indefinite" /></circle><circle cx="803.64" cy="136.80" r="1.23" fill="hsl(0,0%,100%)" opacity="0.05"><animate attributeName="opacity" values="0.05;0.3;0.05" dur="7s" begin="-3.36s" repeatCount="indefinite" /></circle><circle cx="539.96" cy="58.95" r="0.89" fill="hsl(0,0%,100%)" opacity="0.05"><animate attributeName="opacity" values="0.05;0.3;0.05" dur="7s" begin="-4.22s" repeatCount="indefinite" /></circle><circle cx="726.36" cy="81.89" r="0.23" fill="hsl(0,0%,100%)" opacity="0.05"><animate attributeName="opacity" values="0.05;0.3;0.05" dur="7s" begin="-3.40s" repeatCount="indefinite" /></circle><circle cx="842.97" cy="126.57" r="1.29" fill="hsl(0,0%,100%)" opacity="0.05"><animate attributeName="opacity" values="0.05;0.3;0.05" dur="7s" begin="-1.92s" repeatCount="indefinite" /></circle><circle cx="478.72" cy="135.66" r="1.23" fill="hsl(0,0%,100%)" opacity="0.05"><animate attributeName="opacity" values="0.05;0.3;0.05" dur="7s" begin="-1.07s" repeatCount="indefinite" /></circle><circle cx="293.52" cy="77.02" r="1.23" fill="hsl(0,0%,100%)" opacity="0.05"><animate attributeName="opacity" values="0.05;0.3;0.05" dur="7s" begin="-1.97s" repeatCount="indefinite" /></circle><circle cx="486.55" cy="63.36" r="0.30" fill="hsl(0,0%,100%)" opacity="0.05"><animate attributeName="opacity" values="0.05;0.3;0.05" dur="7s" begin="-4.64s" repeatCount="indefinite" /></circle><circle cx="621.47" cy="119.14" r="0.52" fill="hsl(0,0%,100%)" opacity="0.05"><animate attributeName="opacity" values="0.05;0.3;0.05" dur="7s" begin="-5.07s" repeatCount="indefinite" /></circle><circle cx="668.81" cy="38.68" r="0.96" fill="hsl(0,0%,100%)" opacity="0.05"><animate attributeName="opacity" values="0.05;0.3;0.05" dur="7s" begin="-2.74s" repeatCount="indefinite" /></circle><circle cx="544.77" cy="113.92" r="0.18" fill="hsl(0,0%,100%)" opacity="0.05"><animate attributeName="opacity" values="0.05;0.3;0.05" dur="7s" begin="-5.86s" repeatCount="indefinite" /></circle><circle cx="477.24" cy="126.95" r="0.53" fill="hsl(0,0%,100%)" opacity="0.05"><animate attributeName="opacity" values="0.05;0.3;0.05" dur="7s" begin="-0.65s" repeatCount="indefinite" /></circle><circle cx="385.87" cy="87.96" r="2.06" fill="hsl(214,33%,44%)" opacity="0.16" /><circle cx="385.87" cy="87.96" r="1.23" fill="hsl(214.0,54%,45%)" opacity="0.63" /><circle cx="602.83" cy="127.71" r="2.20" fill="hsl(214,35%,46%)" opacity="0.18" /><circle cx="602.83" cy="127.71" r="1.34" fill="hsl(214.0,57%,49%)" opacity="0.66" /><circle cx="625.33" cy="89.13" r="2.20" fill="hsl(214,35%,46%)" opacity="0.18" /><circle cx="625.33" cy="89.13" r="1.34" fill="hsl(214.0,57%,49%)" opacity="0.66" /><circle cx="617.80" cy="102.85" r="2.20" fill="hsl(214,35%,46%)" opacity="0.18" /><circle cx="617.80" cy="102.85" r="1.34" fill="hsl(214.0,57%,49%)" opacity="0.66" /><circle cx="624.93" cy="111.72" r="2.70" fill="hsl(214,45%,58%)" opacity="0.22" /><circle cx="624.93" cy="111.72" r="1.72" fill="hsl(214.0,69%,68%)" opacity="0.77" /><circle cx="617.76" cy="134.84" r="2.49" fill="hsl(214,41%,53%)" opacity="0.20" /><circle cx="617.76" cy="134.84" r="1.56" fill="hsl(214.0,63%,59%)" opacity="0.73" /><circle cx="638.64" cy="35.35" r="2.52" fill="hsl(214,41%,53%)" opacity="0.20" /><circle cx="638.64" cy="35.35" r="1.58" fill="hsl(214.0,64%,60%)" opacity="0.73" /><circle cx="633.26" cy="48.45" r="2.47" fill="hsl(214,40%,52%)" opacity="0.20" /><circle cx="633.26" cy="48.45" r="1.54" fill="hsl(214.0,63%,58%)" opacity="0.72" /><circle cx="643.14" cy="72.84" r="2.52" fill="hsl(214,41%,53%)" opacity="0.20" /><circle cx="643.14" cy="72.84" r="1.58" fill="hsl(214.0,64%,60%)" opacity="0.73" /><circle cx="637.39" cy="84.50" r="2.06" fill="hsl(214,33%,44%)" opacity="0.16" /><circle cx="637.39" cy="84.50" r="1.23" fill="hsl(214.0,54%,45%)" opacity="0.63" /><circle cx="634.77" cy="103.31" r="2.65" fill="hsl(214,44%,57%)" opacity="0.21" /><circle cx="634.77" cy="103.31" r="1.68" fill="hsl(214.0,68%,66%)" opacity="0.76" /><circle cx="634.82" cy="112.98" r="2.75" fill="hsl(214,47%,60%)" opacity="0.22" /><circle cx="634.82" cy="112.98" r="1.76" fill="hsl(214.0,71%,71%)" opacity="0.79" /><circle cx="637.34" cy="131.13" r="2.54" fill="hsl(214,41%,54%)" opacity="0.20" /><circle cx="637.34" cy="131.13" r="1.60" fill="hsl(214.0,65%,61%)" opacity="0.74" /><circle cx="651.09" cy="32.41" r="2.62" fill="hsl(214,43%,56%)" opacity="0.21" /><circle cx="651.09" cy="32.41" r="1.66" fill="hsl(214.0,67%,65%)" opacity="0.75" /><circle cx="649.02" cy="56.32" r="2.52" fill="hsl(214,41%,53%)" opacity="0.20" /><circle cx="649.02" cy="56.32" r="1.58" fill="hsl(214.0,64%,60%)" opacity="0.73" /><circle cx="658.70" cy="70.84" r="2.84" fill="hsl(214,49%,63%)" opacity="0.23" /><circle cx="658.70" cy="70.84" r="1.83" fill="hsl(210.9,75%,76%)" opacity="0.81" /><circle cx="657.34" cy="88.06" r="2.77" fill="hsl(214,47%,60%)" opacity="0.22" /><circle cx="657.34" cy="88.06" r="1.77" fill="hsl(214.0,72%,72%)" opacity="0.79" /><circle cx="656.99" cy="95.46" r="2.59" fill="hsl(214,43%,55%)" opacity="0.21" /><circle cx="656.99" cy="95.46" r="1.64" fill="hsl(214.0,66%,63%)" opacity="0.75" /><circle cx="655.18" cy="116.14" r="2.44" fill="hsl(214,39%,51%)" opacity="0.20" /><circle cx="655.18" cy="116.14" r="1.52" fill="hsl(214.0,62%,57%)" opacity="0.71" /><circle cx="667.02" cy="31.61" r="2.06" fill="hsl(214,33%,44%)" opacity="0.16" /><circle cx="667.02" cy="31.61" r="1.23" fill="hsl(214.0,54%,45%)" opacity="0.63" /><circle cx="671.08" cy="52.64" r="2.60" fill="hsl(214,43%,56%)" opacity="0.21" /><circle cx="671.08" cy="52.64" r="1.65" fill="hsl(214.0,67%,64%)" opacity="0.75" /><circle cx="665.66" cy="63.48" r="2.82" fill="hsl(214,49%,62%)" opacity="0.23" /><circle cx="665.66" cy="63.48" r="1.81" fill="hsl(211.9,74%,75%)" opacity="0.80" /><circle cx="666.33" cy="80.11" r="2.81" fill="hsl(214,48%,62%)" opacity="0.23" /><circle cx="666.33" cy="80.11" r="1.80" fill="hsl(212.9,73%,74%)" opacity="0.80" /><circle cx="666.38" cy="104.22" r="2.63" fill="hsl(214,44%,56%)" opacity="0.21" /><circle cx="666.38" cy="104.22" r="1.67" fill="hsl(214.0,67%,65%)" opacity="0.76" /><circle cx="666.92" cy="112.44" r="2.69" fill="hsl(214,45%,58%)" opacity="0.22" /><circle cx="666.92" cy="112.44" r="1.71" fill="hsl(214.0,69%,68%)" opacity="0.77" /><circle cx="665.80" cy="136.74" r="2.69" fill="hsl(214,45%,58%)" opacity="0.22" /><circle cx="665.80" cy="136.74" r="1.71" fill="hsl(214.0,69%,68%)" opacity="0.77" /><circle cx="689.82" cy="31.05" r="2.64" fill="hsl(214,44%,57%)" opacity="0.21" /><circle cx="689.82" cy="31.05" r="1.67" fill="hsl(214.0,68%,66%)" opacity="0.76" /><circle cx="685.28" cy="51.35" r="2.64" fill="hsl(214,44%,57%)" opacity="0.21" /><circle cx="685.28" cy="51.35" r="1.67" fill="hsl(214.0,68%,66%)" opacity="0.76" /><circle cx="682.26" cy="72.14" r="2.89" fill="hsl(214,50%,65%)" opacity="0.23" /><circle cx="682.26" cy="72.14" r="1.86" fill="hsl(208.5,76%,79%)" opacity="0.82" /><circle cx="689.77" cy="79.64" r="2.80" fill="hsl(214,48%,61%)" opacity="0.22" /><circle cx="689.77" cy="79.64" r="1.79" fill="hsl(213.3,73%,74%)" opacity="0.80" /><circle cx="690.54" cy="94.99" r="2.78" fill="hsl(214,47%,61%)" opacity="0.22" /><circle cx="690.54" cy="94.99" r="1.78" fill="hsl(214.0,72%,73%)" opacity="0.79" /><circle cx="682.36" cy="120.36" r="2.78" fill="hsl(214,47%,61%)" opacity="0.22" /><circle cx="682.36" cy="120.36" r="1.78" fill="hsl(214.0,72%,73%)" opacity="0.79" /><circle cx="690.85" cy="135.97" r="2.29" fill="hsl(214,37%,48%)" opacity="0.18" /><circle cx="690.85" cy="135.97" r="1.41" fill="hsl(214.0,58%,51%)" opacity="0.68" /><circle cx="705.15" cy="39.90" r="2.90" fill="hsl(214,51%,65%)" opacity="0.23" /><circle cx="705.15" cy="39.90" r="1.87" fill="hsl(207.9,77%,80%)" opacity="0.82" /><circle cx="697.76" cy="55.27" r="2.88" fill="hsl(214,50%,64%)" opacity="0.23" /><circle cx="697.76" cy="55.27" r="1.86" fill="hsl(208.9,76%,78%)" opacity="0.81" /><circle cx="703.01" cy="67.84" r="2.74" fill="hsl(214,46%,60%)" opacity="0.22" /><circle cx="703.01" cy="67.84" r="1.75" fill="hsl(214.0,71%,71%)" opacity="0.78" /><circle cx="702.97" cy="83.03" r="2.94" fill="hsl(214,52%,67%)" opacity="0.24" /><circle cx="702.97" cy="83.03" r="1.91" fill="hsl(205.3,78%,82%)" opacity="0.83" /><circle cx="698.88" cy="103.45" r="2.95" fill="hsl(214,52%,67%)" opacity="0.24" /><circle cx="698.88" cy="103.45" r="1.91" fill="hsl(205.2,78%,82%)" opacity="0.83" /><circle cx="698.72" cy="119.63" r="2.81" fill="hsl(214,48%,62%)" opacity="0.23" /><circle cx="698.72" cy="119.63" r="1.80" fill="hsl(212.9,73%,74%)" opacity="0.80" /><circle cx="705.65" cy="137.10" r="2.86" fill="hsl(214,50%,64%)" opacity="0.23" /><circle cx="705.65" cy="137.10" r="1.84" fill="hsl(210.0,75%,77%)" opacity="0.81" /><circle cx="715.08" cy="32.58" r="2.78" fill="hsl(214,47%,61%)" opacity="0.22" /><circle cx="715.08" cy="32.58" r="1.78" fill="hsl(214.0,72%,73%)" opacity="0.79" /><circle cx="713.51" cy="55.44" r="2.74" fill="hsl(214,46%,60%)" opacity="0.22" /><circle cx="713.51" cy="55.44" r="1.75" fill="hsl(214.0,71%,71%)" opacity="0.78" /><circle cx="721.45" cy="63.30" r="2.80" fill="hsl(214,48%,61%)" opacity="0.22" /><circle cx="721.45" cy="63.30" r="1.79" fill="hsl(213.3,73%,74%)" opacity="0.80" /><circle cx="714.50" cy="79.17" r="3.01" fill="hsl(214,54%,69%)" opacity="0.24" /><circle cx="714.50" cy="79.17" r="1.96" fill="hsl(201.3,81%,87%)" opacity="0.84" /><circle cx="720.89" cy="96.71" r="2.93" fill="hsl(214,52%,66%)" opacity="0.23" /><circle cx="720.89" cy="96.71" r="1.89" fill="hsl(206.2,78%,81%)" opacity="0.83" /><circle cx="714.56" cy="112.12" r="2.94" fill="hsl(214,52%,66%)" opacity="0.24" /><circle cx="714.56" cy="112.12" r="1.90" fill="hsl(205.7,78%,82%)" opacity="0.83" /><circle cx="713.60" cy="136.34" r="2.81" fill="hsl(214,48%,62%)" opacity="0.23" /><circle cx="713.60" cy="136.34" r="1.80" fill="hsl(212.9,73%,74%)" opacity="0.80" /><circle cx="729.52" cy="40.68" r="2.85" fill="hsl(214,49%,63%)" opacity="0.23" /><circle cx="729.52" cy="40.68" r="1.84" fill="hsl(210.4,75%,77%)" opacity="0.81" /><circle cx="738.58" cy="56.40" r="2.83" fill="hsl(214,49%,63%)" opacity="0.23" /><circle cx="738.58" cy="56.40" r="1.82" fill="hsl(211.4,74%,76%)" opacity="0.80" /><circle cx="729.68" cy="72.24" r="2.83" fill="hsl(214,49%,63%)" opacity="0.23" /><circle cx="729.68" cy="72.24" r="1.82" fill="hsl(211.4,74%,76%)" opacity="0.80" /><circle cx="733.52" cy="83.79" r="2.96" fill="hsl(214,53%,67%)" opacity="0.24" /><circle cx="733.52" cy="83.79" r="1.92" fill="hsl(204.3,79%,83%)" opacity="0.83" /><circle cx="737.50" cy="96.43" r="2.97" fill="hsl(214,53%,68%)" opacity="0.24" /><circle cx="737.50" cy="96.43" r="1.93" fill="hsl(203.7,79%,84%)" opacity="0.84" /><circle cx="737.26" cy="112.35" r="2.82" fill="hsl(214,48%,62%)" opacity="0.23" /><circle cx="737.26" cy="112.35" r="1.81" fill="hsl(212.3,74%,75%)" opacity="0.80" /><circle cx="738.15" cy="137.17" r="2.84" fill="hsl(214,49%,63%)" opacity="0.23" /><circle cx="738.15" cy="137.17" r="1.82" fill="hsl(211.2,74%,76%)" opacity="0.80" /><circle cx="754.97" cy="40.23" r="3.00" fill="hsl(214,54%,69%)" opacity="0.24" /><circle cx="754.97" cy="40.23" r="1.95" fill="hsl(202.3,80%,86%)" opacity="0.84" /><circle cx="752.95" cy="64.25" r="3.03" fill="hsl(214,55%,70%)" opacity="0.24" /><circle cx="752.95" cy="64.25" r="1.97" fill="hsl(200.3,82%,88%)" opacity="0.85" /><circle cx="745.11" cy="80.54" r="2.86" fill="hsl(214,50%,64%)" opacity="0.23" /><circle cx="745.11" cy="80.54" r="1.84" fill="hsl(210.0,75%,77%)" opacity="0.81" /><circle cx="755.13" cy="111.96" r="2.78" fill="hsl(214,47%,61%)" opacity="0.22" /><circle cx="755.13" cy="111.96" r="1.78" fill="hsl(214.0,72%,73%)" opacity="0.79" /><circle cx="754.86" cy="136.75" r="2.94" fill="hsl(214,52%,66%)" opacity="0.24" /><circle cx="754.86" cy="136.75" r="1.90" fill="hsl(205.9,78%,82%)" opacity="0.83" /><circle cx="768.94" cy="48.53" r="2.98" fill="hsl(214,53%,68%)" opacity="0.24" /><circle cx="768.94" cy="48.53" r="1.93" fill="hsl(203.4,80%,84%)" opacity="0.84" /><circle cx="770.94" cy="71.97" r="2.98" fill="hsl(214,53%,68%)" opacity="0.24" /><circle cx="770.94" cy="71.97" r="1.94" fill="hsl(203.1,80%,85%)" opacity="0.84" /><circle cx="770.28" cy="80.33" r="2.92" fill="hsl(214,51%,66%)" opacity="0.23" /><circle cx="770.28" cy="80.33" r="1.89" fill="hsl(206.7,77%,81%)" opacity="0.82" /><circle cx="762.30" cy="120.03" r="2.93" fill="hsl(214,52%,66%)" opacity="0.24" /><circle cx="762.30" cy="120.03" r="1.90" fill="hsl(205.9,78%,82%)" opacity="0.83" /><circle cx="765.78" cy="133.10" r="2.86" fill="hsl(214,50%,64%)" opacity="0.23" /><circle cx="765.78" cy="133.10" r="1.84" fill="hsl(210.0,75%,77%)" opacity="0.81" /><circle cx="785.01" cy="40.90" r="3.03" fill="hsl(214,55%,70%)" opacity="0.24" /><circle cx="785.01" cy="40.90" r="1.97" fill="hsl(200.5,82%,87%)" opacity="0.85" /><circle cx="786.80" cy="55.38" r="3.00" fill="hsl(214,54%,69%)" opacity="0.24" /><circle cx="786.80" cy="55.38" r="1.95" fill="hsl(201.8,81%,86%)" opacity="0.84" /><circle cx="778.81" cy="63.74" r="3.01" fill="hsl(214,54%,69%)" opacity="0.24" /><circle cx="778.81" cy="63.74" r="1.96" fill="hsl(201.3,81%,87%)" opacity="0.84" /><circle cx="778.88" cy="87.78" r="2.99" fill="hsl(214,54%,68%)" opacity="0.24" /><circle cx="778.88" cy="87.78" r="1.94" fill="hsl(202.7,80%,85%)" opacity="0.84" /><circle cx="786.08" cy="94.91" r="2.95" fill="hsl(214,52%,67%)" opacity="0.24" /><circle cx="786.08" cy="94.91" r="1.91" fill="hsl(204.9,79%,83%)" opacity="0.83" /><circle cx="787.12" cy="113.11" r="2.95" fill="hsl(214,52%,67%)" opacity="0.24" /><circle cx="787.12" cy="113.11" r="1.91" fill="hsl(205.0,79%,83%)" opacity="0.83" /><circle cx="778.08" cy="135.27" r="2.76" fill="hsl(214,47%,60%)" opacity="0.22" /><circle cx="778.08" cy="135.27" r="1.77" fill="hsl(214.0,72%,72%)" opacity="0.79" /><circle cx="794.91" cy="31.49" r="2.87" fill="hsl(214,50%,64%)" opacity="0.23" /><circle cx="794.91" cy="31.49" r="1.85" fill="hsl(209.7,75%,78%)" opacity="0.81" /><circle cx="803.19" cy="48.39" r="2.89" fill="hsl(214,51%,65%)" opacity="0.23" /><circle cx="803.19" cy="48.39" r="1.87" fill="hsl(208.4,76%,79%)" opacity="0.82" /><circle cx="801.53" cy="63.30" r="2.88" fill="hsl(214,50%,64%)" opacity="0.23" /><circle cx="801.53" cy="63.30" r="1.86" fill="hsl(208.8,76%,79%)" opacity="0.81" /><circle cx="802.95" cy="81.17" r="2.90" fill="hsl(214,51%,65%)" opacity="0.23" /><circle cx="802.95" cy="81.17" r="1.87" fill="hsl(208.0,76%,79%)" opacity="0.82" /><circle cx="793.73" cy="104.61" r="2.95" fill="hsl(214,52%,67%)" opacity="0.24" /><circle cx="793.73" cy="104.61" r="1.91" fill="hsl(205.1,79%,83%)" opacity="0.83" /><circle cx="794.18" cy="111.91" r="2.91" fill="hsl(214,51%,65%)" opacity="0.23" /><circle cx="794.18" cy="111.91" r="1.88" fill="hsl(207.1,77%,80%)" opacity="0.82" /><circle cx="793.65" cy="135.97" r="2.73" fill="hsl(214,46%,59%)" opacity="0.22" /><circle cx="793.65" cy="135.97" r="1.74" fill="hsl(214.0,70%,70%)" opacity="0.78" /><circle cx="809.98" cy="40.38" r="2.62" fill="hsl(214,43%,56%)" opacity="0.21" /><circle cx="809.98" cy="40.38" r="1.66" fill="hsl(214.0,67%,65%)" opacity="0.75" /><circle cx="810.44" cy="48.75" r="2.82" fill="hsl(214,49%,62%)" opacity="0.23" /><circle cx="810.44" cy="48.75" r="1.81" fill="hsl(212.1,74%,75%)" opacity="0.80" /><circle cx="809.13" cy="71.59" r="2.77" fill="hsl(214,47%,60%)" opacity="0.22" /><circle cx="809.13" cy="71.59" r="1.77" fill="hsl(214.0,72%,72%)" opacity="0.79" /><circle cx="810.90" cy="79.04" r="2.72" fill="hsl(214,46%,59%)" opacity="0.22" /><circle cx="810.90" cy="79.04" r="1.73" fill="hsl(214.0,70%,70%)" opacity="0.78" /><circle cx="810.61" cy="103.47" r="2.47" fill="hsl(214,40%,52%)" opacity="0.20" /><circle cx="810.61" cy="103.47" r="1.54" fill="hsl(214.0,63%,58%)" opacity="0.72" /><circle cx="810.00" cy="110.97" r="2.47" fill="hsl(214,40%,52%)" opacity="0.20" /><circle cx="810.00" cy="110.97" r="1.54" fill="hsl(214.0,63%,58%)" opacity="0.72" /><circle cx="817.94" cy="135.37" r="2.78" fill="hsl(214,47%,61%)" opacity="0.22" /><circle cx="817.94" cy="135.37" r="1.78" fill="hsl(214.0,72%,73%)" opacity="0.79" /><circle cx="826.14" cy="40.06" r="2.80" fill="hsl(214,48%,62%)" opacity="0.22" /><circle cx="826.14" cy="40.06" r="1.80" fill="hsl(213.1,73%,74%)" opacity="0.80" /><circle cx="835.15" cy="55.21" r="2.78" fill="hsl(214,48%,61%)" opacity="0.22" /><circle cx="835.15" cy="55.21" r="1.78" fill="hsl(214.0,72%,73%)" opacity="0.79" /><circle cx="834.74" cy="95.91" r="2.96" fill="hsl(214,53%,67%)" opacity="0.24" /><circle cx="834.74" cy="95.91" r="1.92" fill="hsl(204.7,79%,83%)" opacity="0.83" /><circle cx="825.49" cy="112.30" r="2.91" fill="hsl(214,51%,65%)" opacity="0.23" /><circle cx="825.49" cy="112.30" r="1.88" fill="hsl(207.2,77%,80%)" opacity="0.82" /><circle cx="842.86" cy="40.99" r="2.97" fill="hsl(214,53%,68%)" opacity="0.24" /><circle cx="842.86" cy="40.99" r="1.93" fill="hsl(203.6,80%,84%)" opacity="0.84" /><circle cx="850.85" cy="55.67" r="3.00" fill="hsl(214,54%,69%)" opacity="0.24" /><circle cx="850.85" cy="55.67" r="1.95" fill="hsl(201.9,81%,86%)" opacity="0.84" /><circle cx="840.94" cy="64.02" r="2.96" fill="hsl(214,53%,67%)" opacity="0.24" /><circle cx="840.94" cy="64.02" r="1.92" fill="hsl(204.4,79%,83%)" opacity="0.83" /><circle cx="841.47" cy="89.13" r="2.92" fill="hsl(214,51%,66%)" opacity="0.23" /><circle cx="841.47" cy="89.13" r="1.89" fill="hsl(206.7,77%,81%)" opacity="0.82" /><circle cx="846.54" cy="101.15" r="2.94" fill="hsl(214,52%,66%)" opacity="0.24" /><circle cx="846.54" cy="101.15" r="1.90" fill="hsl(205.9,78%,82%)" opacity="0.83" /><circle cx="850.71" cy="110.97" r="3.03" fill="hsl(214,55%,70%)" opacity="0.24" /><circle cx="850.71" cy="110.97" r="1.97" fill="hsl(200.5,82%,87%)" opacity="0.85" /><circle cx="850.04" cy="128.32" r="3.03" fill="hsl(214,55%,70%)" opacity="0.24" /><circle cx="850.04" cy="128.32" r="1.98" fill="hsl(200.0,82%,88%)" opacity="0.85" /><circle cx="862.63" cy="36.60" r="2.95" fill="hsl(214,52%,67%)" opacity="0.24" /><circle cx="862.63" cy="36.60" r="1.91" fill="hsl(204.8,79%,83%)" opacity="0.83" /><circle cx="867.19" cy="56.73" r="2.99" fill="hsl(214,53%,68%)" opacity="0.24" /><circle cx="867.19" cy="56.73" r="1.94" fill="hsl(202.9,80%,85%)" opacity="0.84" /><circle cx="866.24" cy="72.97" r="2.89" fill="hsl(214,51%,65%)" opacity="0.23" /><circle cx="866.24" cy="72.97" r="1.87" fill="hsl(208.2,76%,79%)" opacity="0.82" /><circle cx="866.14" cy="78.90" r="2.77" fill="hsl(214,47%,61%)" opacity="0.22" /><circle cx="866.14" cy="78.90" r="1.77" fill="hsl(214.0,72%,72%)" opacity="0.79" /><circle cx="865.28" cy="96.57" r="2.93" fill="hsl(214,52%,66%)" opacity="0.23" /><circle cx="865.28" cy="96.57" r="1.89" fill="hsl(206.2,78%,81%)" opacity="0.83" /><circle cx="858.42" cy="111.33" r="2.83" fill="hsl(214,49%,63%)" opacity="0.23" /><circle cx="858.42" cy="111.33" r="1.82" fill="hsl(211.6,74%,76%)" opacity="0.80" /><circle cx="865.51" cy="134.85" r="2.88" fill="hsl(214,50%,64%)" opacity="0.23" /><circle cx="865.51" cy="134.85" r="1.86" fill="hsl(208.9,76%,78%)" opacity="0.81" /><circle cx="873.26" cy="33.06" r="2.85" fill="hsl(214,49%,63%)" opacity="0.23" /><circle cx="873.26" cy="33.06" r="1.83" fill="hsl(210.6,75%,77%)" opacity="0.81" /><circle cx="877.62" cy="51.59" r="2.87" fill="hsl(214,50%,64%)" opacity="0.23" /><circle cx="877.62" cy="51.59" r="1.85" fill="hsl(209.7,75%,78%)" opacity="0.81" /><circle cx="878.59" cy="67.34" r="2.89" fill="hsl(214,50%,64%)" opacity="0.23" /><circle cx="878.59" cy="67.34" r="1.86" fill="hsl(208.6,76%,79%)" opacity="0.82" /><circle cx="881.21" cy="80.19" r="2.82" fill="hsl(214,49%,62%)" opacity="0.23" /><circle cx="881.21" cy="80.19" r="1.81" fill="hsl(211.9,74%,75%)" opacity="0.80" /><circle cx="878.48" cy="100.73" r="2.67" fill="hsl(214,45%,57%)" opacity="0.21" /><circle cx="878.48" cy="100.73" r="1.70" fill="hsl(214.0,69%,67%)" opacity="0.77" /><path d="M 745.73,56.85 L 745.37,95.21 L 770.78,31.68 L 770.94,96.71 L 826.78,64.69 L 824.99,87.45 L 834.56,137.11" fill="none" stroke="rgba(255,255,255,0.1)" stroke-width="1.00" stroke-linejoin="round" /><ellipse cx="-56" cy="0" rx="56" ry="3.00" fill="url(#tail-grad)" filter="url(#tail-blur)"><animateMotion dur="8.30s" begin="0s" repeatCount="indefinite" keyTimes="0;0.5783;1" keyPoints="0;1;1" calcMode="linear" rotate="auto" path="M 745.73,56.85 L 745.37,95.21 L 770.78,31.68 L 770.94,96.71 L 826.78,64.69 L 824.99,87.45 L 834.56,137.11" /><animate attributeName="opacity" dur="8.30s" begin="0s" repeatCount="indefinite" keyTimes="0;0.5783;0.5793;1" values="1;1;0;0" /></ellipse><circle cx="0.00" cy="0.00" r="7.65" fill="hsl(195,90%,75%)" opacity="0.28"><animateMotion dur="8.30s" begin="0s" repeatCount="indefinite" keyTimes="0;0.5783;1" keyPoints="0;1;1" calcMode="linear" path="M 745.73,56.85 L 745.37,95.21 L 770.78,31.68 L 770.94,96.71 L 826.78,64.69 L 824.99,87.45 L 834.56,137.11" /><animate attributeName="opacity" dur="8.30s" begin="0s" repeatCount="indefinite" keyTimes="0;0.5783;0.5793;1" values="0.28;0.28;0;0" /></circle><circle cx="0.00" cy="0.00" r="4.70" fill="hsl(185,70%,90%)" opacity="0.55"><animateMotion dur="8.30s" begin="0s" repeatCount="indefinite" keyTimes="0;0.5783;1" keyPoints="0;1;1" calcMode="linear" path="M 745.73,56.85 L 745.37,95.21 L 770.78,31.68 L 770.94,96.71 L 826.78,64.69 L 824.99,87.45 L 834.56,137.11" /><animate attributeName="opacity" dur="8.30s" begin="0s" repeatCount="indefinite" keyTimes="0;0.5783;0.5793;1" values="0.55;0.55;0;0" /></circle><circle cx="0.00" cy="0.00" r="1.85" fill="hsl(150,35%,97%)" opacity="1.00"><animateMotion dur="8.30s" begin="0s" repeatCount="indefinite" keyTimes="0;0.5783;1" keyPoints="0;1;1" calcMode="linear" path="M 745.73,56.85 L 745.37,95.21 L 770.78,31.68 L 770.94,96.71 L 826.78,64.69 L 824.99,87.45 L 834.56,137.11" /><animate attributeName="opacity" dur="8.30s" begin="0s" repeatCount="indefinite" keyTimes="0;0.5783;0.5793;1" values="1;1;0;0" /></circle><g transform="rotate(37.6 745.73 56.85)"><circle cx="745.73" cy="56.85" r="5.90" fill="hsla(48,100%,74%,0.35)" fill-opacity="0.35"><animate attributeName="fill-opacity" values="0.25;0.45;0.25" dur="3s" begin="-0.00s" repeatCount="indefinite" /></circle><circle cx="745.73" cy="56.85" r="3.54" fill="hsla(50,100%,99%,0.75)" filter="url(#organic-sphere)" /><line x1="742.87" y1="53.99" x2="748.60" y2="59.72" stroke="hsl(48,100%,92%)" stroke-width="0.40" stroke-opacity="0.42" stroke-linecap="round" /><line x1="742.87" y1="59.72" x2="748.60" y2="53.99" stroke="hsl(48,100%,92%)" stroke-width="0.40" stroke-opacity="0.42" stroke-linecap="round" /><line x1="736.73" y1="56.85" x2="754.73" y2="56.85" stroke="hsl(48,100%,92%)" stroke-width="0.50" stroke-linecap="round" /><line x1="745.73" y1="47.85" x2="745.73" y2="65.85" stroke="hsl(48,100%,92%)" stroke-width="0.50" stroke-linecap="round" /><circle cx="745.73" cy="56.85" r="1.38" fill="hsl(48,100%,92%)" /></g><g transform="rotate(-14.4 745.37 95.21)"><circle cx="745.37" cy="95.21" r="5.90" fill="hsla(48,100%,74%,0.35)" fill-opacity="0.35"><animate attributeName="fill-opacity" values="0.25;0.45;0.25" dur="3s" begin="-0.60s" repeatCount="indefinite" /></circle><circle cx="745.37" cy="95.21" r="3.54" fill="hsla(50,100%,99%,0.75)" filter="url(#organic-sphere)" /><line x1="742.51" y1="92.35" x2="748.23" y2="98.08" stroke="hsl(48,100%,92%)" stroke-width="0.40" stroke-opacity="0.42" stroke-linecap="round" /><line x1="742.51" y1="98.08" x2="748.23" y2="92.35" stroke="hsl(48,100%,92%)" stroke-width="0.40" stroke-opacity="0.42" stroke-linecap="round" /><line x1="736.37" y1="95.21" x2="754.37" y2="95.21" stroke="hsl(48,100%,92%)" stroke-width="0.50" stroke-linecap="round" /><line x1="745.37" y1="86.21" x2="745.37" y2="104.21" stroke="hsl(48,100%,92%)" stroke-width="0.50" stroke-linecap="round" /><circle cx="745.37" cy="95.21" r="1.38" fill="hsl(48,100%,92%)" /></g><g transform="rotate(37.5 770.78 31.68)"><circle cx="770.78" cy="31.68" r="5.90" fill="hsla(48,100%,74%,0.35)" fill-opacity="0.35"><animate attributeName="fill-opacity" values="0.25;0.45;0.25" dur="3s" begin="-1.20s" repeatCount="indefinite" /></circle><circle cx="770.78" cy="31.68" r="3.54" fill="hsla(50,100%,99%,0.75)" filter="url(#organic-sphere)" /><line x1="767.92" y1="28.81" x2="773.64" y2="34.54" stroke="hsl(48,100%,92%)" stroke-width="0.40" stroke-opacity="0.42" stroke-linecap="round" /><line x1="767.92" y1="34.54" x2="773.64" y2="28.81" stroke="hsl(48,100%,92%)" stroke-width="0.40" stroke-opacity="0.42" stroke-linecap="round" /><line x1="761.78" y1="31.68" x2="779.78" y2="31.68" stroke="hsl(48,100%,92%)" stroke-width="0.50" stroke-linecap="round" /><line x1="770.78" y1="22.68" x2="770.78" y2="40.68" stroke="hsl(48,100%,92%)" stroke-width="0.50" stroke-linecap="round" /><circle cx="770.78" cy="31.68" r="1.38" fill="hsl(48,100%,92%)" /></g><g transform="rotate(12.7 770.94 96.71)"><circle cx="770.94" cy="96.71" r="5.90" fill="hsla(48,100%,74%,0.35)" fill-opacity="0.35"><animate attributeName="fill-opacity" values="0.25;0.45;0.25" dur="3s" begin="-1.80s" repeatCount="indefinite" /></circle><circle cx="770.94" cy="96.71" r="3.54" fill="hsla(50,100%,99%,0.75)" filter="url(#organic-sphere)" /><line x1="768.08" y1="93.85" x2="773.81" y2="99.58" stroke="hsl(48,100%,92%)" stroke-width="0.40" stroke-opacity="0.42" stroke-linecap="round" /><line x1="768.08" y1="99.58" x2="773.81" y2="93.85" stroke="hsl(48,100%,92%)" stroke-width="0.40" stroke-opacity="0.42" stroke-linecap="round" /><line x1="761.94" y1="96.71" x2="779.94" y2="96.71" stroke="hsl(48,100%,92%)" stroke-width="0.50" stroke-linecap="round" /><line x1="770.94" y1="87.71" x2="770.94" y2="105.71" stroke="hsl(48,100%,92%)" stroke-width="0.50" stroke-linecap="round" /><circle cx="770.94" cy="96.71" r="1.38" fill="hsl(48,100%,92%)" /></g><g transform="rotate(36.5 826.78 64.69)"><circle cx="826.78" cy="64.69" r="5.90" fill="hsla(48,100%,74%,0.35)" fill-opacity="0.35"><animate attributeName="fill-opacity" values="0.25;0.45;0.25" dur="3s" begin="-2.40s" repeatCount="indefinite" /></circle><circle cx="826.78" cy="64.69" r="3.54" fill="hsla(50,100%,99%,0.75)" filter="url(#organic-sphere)" /><line x1="823.92" y1="61.83" x2="829.65" y2="67.55" stroke="hsl(48,100%,92%)" stroke-width="0.40" stroke-opacity="0.42" stroke-linecap="round" /><line x1="823.92" y1="67.55" x2="829.65" y2="61.83" stroke="hsl(48,100%,92%)" stroke-width="0.40" stroke-opacity="0.42" stroke-linecap="round" /><line x1="817.78" y1="64.69" x2="835.78" y2="64.69" stroke="hsl(48,100%,92%)" stroke-width="0.50" stroke-linecap="round" /><line x1="826.78" y1="55.69" x2="826.78" y2="73.69" stroke="hsl(48,100%,92%)" stroke-width="0.50" stroke-linecap="round" /><circle cx="826.78" cy="64.69" r="1.38" fill="hsl(48,100%,92%)" /></g><g transform="rotate(-32.6 824.99 87.45)"><circle cx="824.99" cy="87.45" r="5.90" fill="hsla(48,100%,74%,0.35)" fill-opacity="0.35"><animate attributeName="fill-opacity" values="0.25;0.45;0.25" dur="3s" begin="-3.00s" repeatCount="indefinite" /></circle><circle cx="824.99" cy="87.45" r="3.54" fill="hsla(50,100%,99%,0.75)" filter="url(#organic-sphere)" /><line x1="822.13" y1="84.59" x2="827.86" y2="90.32" stroke="hsl(48,100%,92%)" stroke-width="0.40" stroke-opacity="0.42" stroke-linecap="round" /><line x1="822.13" y1="90.32" x2="827.86" y2="84.59" stroke="hsl(48,100%,92%)" stroke-width="0.40" stroke-opacity="0.42" stroke-linecap="round" /><line x1="815.99" y1="87.45" x2="833.99" y2="87.45" stroke="hsl(48,100%,92%)" stroke-width="0.50" stroke-linecap="round" /><line x1="824.99" y1="78.45" x2="824.99" y2="96.45" stroke="hsl(48,100%,92%)" stroke-width="0.50" stroke-linecap="round" /><circle cx="824.99" cy="87.45" r="1.38" fill="hsl(48,100%,92%)" /></g><g transform="rotate(26.7 834.56 137.11)"><circle cx="834.56" cy="137.11" r="5.90" fill="hsla(48,100%,74%,0.35)" fill-opacity="0.35"><animate attributeName="fill-opacity" values="0.25;0.45;0.25" dur="3s" begin="-3.60s" repeatCount="indefinite" /></circle><circle cx="834.56" cy="137.11" r="3.54" fill="hsla(50,100%,99%,0.75)" filter="url(#organic-sphere)" /><line x1="831.70" y1="134.25" x2="837.42" y2="139.98" stroke="hsl(48,100%,92%)" stroke-width="0.40" stroke-opacity="0.42" stroke-linecap="round" /><line x1="831.70" y1="139.98" x2="837.42" y2="134.25" stroke="hsl(48,100%,92%)" stroke-width="0.40" stroke-opacity="0.42" stroke-linecap="round" /><line x1="825.56" y1="137.11" x2="843.56" y2="137.11" stroke="hsl(48,100%,92%)" stroke-width="0.50" stroke-linecap="round" /><line x1="834.56" y1="128.11" x2="834.56" y2="146.11" stroke="hsl(48,100%,92%)" stroke-width="0.50" stroke-linecap="round" /><circle cx="834.56" cy="137.11" r="1.38" fill="hsl(48,100%,92%)" /></g></svg>